<?xml version="1.0" standalone="no"?>
<!DOCTYPE svg PUBLIC "-//W3C//DTD SVG 1.1//EN" "http://www.w3.org/Graphics/SVG/1.1/DTD/svg11.dtd" >
<svg>
<metadata></metadata>
<defs>
<font id="OwnHand" horiz-adv-x="921" >
  <font-face 
    font-family="OwnHand"
    font-weight="500"
    font-stretch="normal"
    units-per-em="1000"
    panose-1="2 0 6 3 0 0 0 0 0 0"
    ascent="800"
    descent="-200"
    x-height="475.001"
    cap-height="696.999"
    bbox="-185.777 -340.938 980.59 1013.45"
    underline-thickness="50"
    underline-position="-100"
    unicode-range="U+0020-U+FF5E"
  />
<missing-glyph horiz-adv-x="364" 
d="M66 33h199v600h-199v-600zM33 0v666h265v-666h-265z" />
    <glyph glyph-name=".notdef" horiz-adv-x="364" 
d="M66 33h199v600h-199v-600zM33 0v666h265v-666h-265z" />
    <glyph glyph-name="space" unicode=" " horiz-adv-x="300" 
 />
    <glyph glyph-name="exclam" unicode="!" horiz-adv-x="211" 
d="M161 120c4.66699 -0.666992 9.33203 -1.66699 13.999 -3c12.667 -4 22.334 -10.667 29.001 -20s9.66699 -20 9 -32c-1.33301 -18 -9.5 -34.667 -24.5 -50s-31.5 -24.666 -49.5 -27.999c-25.333 -4 -46.5 1.66699 -63.5 17s-26.167 33.666 -27.5 54.999
c-2 23.333 4.66699 42.333 20 57c17.333 16.667 40.333 23.667 69 21c11.333 -1.33301 19.333 -7 24 -17zM149.998 59c-16 0 -29.667 -1.66602 -41 -4.99902h-1c4.66699 -8 11.667 -11 21 -9c6 0.666992 12 4 18 10c1.33301 1.33301 2.33301 2.66602 3 3.99902z
M196.998 685.001c1.33301 -16.667 1.33398 -34.001 0.000976562 -52.001s-3.33301 -38.333 -6 -61s-4.33398 -38.334 -5.00098 -47.001c-4.66699 -54.667 -7 -151 -7 -289c0 -8 -2.83301 -14.833 -8.5 -20.5s-12.5 -8.5 -20.5 -8.5s-14.833 2.83301 -20.5 8.5
s-8.5 12.5 -8.5 20.5c0 140.667 2.33301 238.334 7 293.001c1.33301 12 3.33301 28.833 6 50.5s4.66699 40.167 6 55.5c0.666992 14.667 0.333984 30 -0.999023 46c-0.666992 8 1.66602 15 6.99902 21s12 9.33301 20 10s15 -1.66602 21 -6.99902s9.33301 -12 10 -20z" />
    <glyph glyph-name="quotedbl" unicode="&#x22;" horiz-adv-x="259" 
d="M108 688c0 -29.333 0.999023 -60.498 2.99902 -93.498s4.83301 -69.5 8.5 -109.5s6.16699 -71 7.5 -93c0.666992 -8 -1.66602 -15 -6.99902 -21s-12 -9.33301 -20 -10s-15 1.66602 -21 6.99902s-9.33301 12 -10 20c-1.33301 22 -3.83301 53.5 -7.5 94.5
s-6.5 78.167 -8.5 111.5s-3 64.666 -3 93.999c0 8 2.83301 14.833 8.5 20.5s12.5 8.5 20.5 8.5s14.833 -2.83301 20.5 -8.5s8.5 -12.5 8.5 -20.5zM243.999 651.002c0.666992 -8 6 -92 16 -252c0.666992 -8 -1.66602 -15 -6.99902 -21s-12 -9.33301 -20 -10
s-15 1.66602 -21 6.99902s-9.33301 12 -10 20c-10 160 -15.333 244 -16 252s1.66602 15 6.99902 21s12 9.33301 20 10s15 -1.66602 21 -6.99902s9.33301 -12 10 -20z" />
    <glyph glyph-name="numbersign" unicode="#" horiz-adv-x="574" 
d="M307 395c-36.667 -2.66699 -70.667 -6.33301 -102 -11l-14 -40c-6 -18 -18.333 -50.333 -37 -97l121 6l3 12c10 40 19.667 83.333 29 130zM545 398.001c-59.333 2.66699 -118.67 2.66309 -178.003 -0.00390625c-11.333 -55.333 -21.666 -102.666 -30.999 -141.999l138 8
c8 0.666992 15 -1.66602 21 -6.99902s9.33301 -12 10 -20s-1.66602 -15 -6.99902 -21s-12 -9.33301 -20 -10l-159 -9l-22 -63c-2 -4.66699 -8.16699 -20.667 -18.5 -48s-18.166 -48.666 -23.499 -63.999c-2.66699 -7.33301 -7.5 -12.666 -14.5 -15.999
s-14.333 -3.66602 -22 -0.999023s-13.167 7.5 -16.5 14.5s-3.66602 14.5 -0.999023 22.5c4.66699 14.667 12.334 36 23.001 64s16.667 44 18 48l14 40l-124 -7c-14.667 -40.667 -24.667 -77.334 -30 -110.001c-2 -8 -6.16699 -14.333 -12.5 -19s-13.5 -6.16699 -21.5 -4.5
s-14.333 5.66699 -19 12s-6.33398 13.5 -5.00098 21.5c5.33301 30 14 62.333 26 97c-7.33301 0.666992 -13.666 3.5 -18.999 8.5s-8.33301 11.167 -9 18.5c-0.666992 8 1.66602 15 6.99902 21s12 9.33301 20 10l22 1l21 53c11.333 29.333 19.666 52 24.999 68l3 8
c-12.667 -2.66699 -24.667 -5.66699 -36 -9c-8 -2 -15.5 -1 -22.5 3s-11.5 9.83301 -13.5 17.5s-1 15 3 22s9.66699 11.5 17 13.5c22 6 46 11.333 72 16c26.667 92.667 40 175.334 40 248.001c0 8 2.83301 14.833 8.5 20.5s12.5 8.5 20.5 8.5s14.833 -2.83301 20.5 -8.5
s8.5 -12.5 8.5 -20.5c0 -70.667 -11.667 -150 -35 -238c30 3.33301 62 6.33301 96 9l2 15c18.667 94 33.334 163 44.001 207c2 8 6.33301 14 13 18s14 5 22 3s14 -6.33301 18 -13s5 -14 3 -22c-10 -42.667 -24.333 -110.667 -43 -204v-1
c57.333 2 113.666 1.66699 168.999 -1c8 -0.666992 14.667 -3.83398 20 -9.50098s7.83301 -12.5 7.5 -20.5s-3.33301 -14.667 -9 -20s-12.5 -8 -20.5 -8z" />
    <glyph glyph-name="dollar" unicode="$" horiz-adv-x="501" 
d="M222 421c-4 88 -5.99902 154.666 -5.99902 199.999c-12.667 2 -24.667 2.66699 -36 2c-36.667 -2 -63.334 -9 -80.001 -21c-18.667 -13.333 -28 -34.666 -28 -63.999c0 -20.667 1.33301 -33.334 4 -38.001c10 -17.333 31.667 -33.666 65 -48.999c18 -8 45 -18 81 -30z
M283.001 337.999c0.666992 -22.667 1.33398 -43.332 2.00098 -61.999c0.666992 -16.667 0.333984 -32.667 -0.999023 -48c-2 -16.667 -4.5 -36.334 -7.5 -59.001s-4.83301 -37 -5.5 -43c-1.33301 -12 -2.33301 -24.333 -3 -37c24 -5.33301 46.667 -7 68 -5
c41.333 4 72.166 21.333 92.499 52s21.166 63 2.49902 97c-20.667 40 -70 75 -148 105zM216.001 680.001c1.33301 37.333 3.33496 72.6641 6.00195 105.997c0.666992 8 4.16699 14.5 10.5 19.5s13.5 7.16699 21.5 6.5s14.5 -4.16699 19.5 -10.5s7.16699 -13.5 6.5 -21.5
c-3.33301 -35.333 -5.33301 -73.333 -6 -114c40.667 -14 77 -36.333 109 -67s54.667 -65.667 68 -105c2 -7.33301 1.33301 -14.666 -2 -21.999s-8.83301 -12.166 -16.5 -14.499s-15.167 -1.83301 -22.5 1.5s-12.333 9 -15 17c-8.66699 27.333 -24 52.333 -46 75
s-47 40.334 -75 53.001c0 -38 2.33301 -106 7 -204c22 -8 41.667 -15.667 59 -23s35.666 -16.666 54.999 -27.999s36.333 -24.5 51 -39.5s27 -31.167 37 -48.5c19.333 -40.667 24.166 -77.834 14.499 -111.501s-29 -61.834 -58 -84.501s-61.5 -35.667 -97.5 -39
c-24 -2 -49 -0.666992 -75 4c0 -6.66699 0.333008 -14 1 -22c1.33301 -62 1.66602 -103.333 0.999023 -124c-0.666992 -8 -3.83398 -14.667 -9.50098 -20s-12.5 -7.83301 -20.5 -7.5s-14.667 3.33301 -20 9s-8 12.5 -8 20.5c0.666992 19.333 0.333984 59.333 -0.999023 120
c-0.666992 16 -1 29.667 -1 41c-72 27.333 -137.333 73.666 -196 138.999c-5.33301 6 -7.66602 13 -6.99902 21s4 14.667 10 20s13 7.66602 21 6.99902s14.667 -4 20 -10c46 -51.333 97.333 -89.666 154 -114.999l2 23l7 46c2.66699 22 4.5 40 5.5 54s1.5 28 1.5 42
c-0.666992 24 -1.66699 52.333 -3 85c-51.333 17.333 -87.333 30.666 -108 39.999c-44 20.667 -74 44.334 -90 71.001c-8 14 -12 36.667 -12 68c0 49.333 17.333 86.333 52 111c26.667 18.667 63.334 29.334 110.001 32.001
c13.333 0.666992 26.666 0.333984 39.999 -0.999023z" />
    <glyph glyph-name="percent" unicode="%" horiz-adv-x="820" 
d="M68 501c8.66699 -52 25.001 -90.3311 49.001 -114.998c41.333 -42 81.333 -51.333 120 -28c17.333 10.667 32.166 27.167 44.499 49.5s19.5 47.166 21.5 74.499c2 23.333 -4.5 43.166 -19.5 59.499s-35.5 27.5 -61.5 33.5c-26.667 6 -53 5.5 -79 -1.5
s-46 -19.5 -60 -37.5c-4.66699 -5.33301 -9.66699 -17 -15 -35zM9.00098 505.002c-4.66699 33.333 -5.99609 68.333 -3.99609 105c0.666992 8 4 14.667 10 20s13 7.66602 21 6.99902s14.667 -4 20 -10s7.66602 -13 6.99902 -21v-9c22.667 18.667 50.167 30.834 82.5 36.501
s62.166 4.83398 89.499 -2.49902c37.333 -8.66699 68.333 -26.334 93 -53.001s35.667 -60 33 -100c-2.66699 -36 -12.334 -69.333 -29.001 -100s-38.334 -54 -65.001 -70c-28 -18 -59.333 -24 -94 -18s-67.334 24.667 -98.001 56c-22 22.667 -39 52.667 -51 90
c-1.33301 0.666992 -2.66602 1 -3.99902 1c-7.33301 2 -13 6.5 -17 13.5s-5 14.5 -3 22.5c0.666992 2 2 6.66699 4 14zM538.005 237.002c-12.667 -23.333 -18.332 -44.334 -16.999 -63.001c1.33301 -23.333 8.66602 -45.333 21.999 -66s30 -37.334 50 -50.001
c44.667 -28 86.667 -29.333 126 -4c16 10.667 28 26 36 46s10.833 42.333 8.5 67s-9.33301 46.834 -21 66.501s-26.167 33.834 -43.5 42.501c-16.667 8.66699 -39.667 8.33398 -69 -0.999023c-8.66699 -2.66699 -35.667 -14.334 -81 -35.001c-3.33301 -2 -7 -3 -11 -3z
M621.007 333.001c40.667 11.333 75.334 9.66406 104.001 -5.00293c28 -14 50.333 -35.333 67 -64c16 -28 25.667 -58.333 29 -91c3.33301 -33.333 -0.833984 -65.166 -12.501 -95.499s-30.834 -54.166 -57.501 -71.499c-33.333 -19.333 -65.666 -28 -96.999 -26
c-32 1.33301 -62.333 11 -91 29c-28 17.333 -51 40.333 -69 69c-18.667 28.667 -29 59.334 -31 92.001c-2.66699 36.667 8.5 73.667 33.5 111s52.833 68 83.5 92c6.66699 4.66699 14 6.5 22 5.5s14.333 -4.5 19 -10.5c8.66699 -12 8.66699 -23.667 0 -35zM621.007 656.999
c-5.33301 -13.333 -12.3389 -26.998 -21.0059 -40.998l-28 -45l-22 -36c-9.33301 -16 -22.666 -41.667 -39.999 -77c-17.333 -36.667 -31.333 -64 -42 -82c-10 -16.667 -25.333 -37.334 -46 -62.001c-23.333 -28 -38 -46.667 -44 -56c-56 -80 -104.667 -162.333 -146 -247
c-3.33301 -7.33301 -8.83301 -12.166 -16.5 -14.499s-15.167 -1.83301 -22.5 1.5s-12.166 8.83301 -14.499 16.5s-1.83301 15.167 1.5 22.5c42.667 86.667 92.667 171.667 150 255c6.66699 9.33301 22.334 29 47.001 59c18.667 22.667 32.334 41 41.001 55
c10 16 23.333 41.667 40 77c18 37.333 32 64.666 42 81.999c6 10 14 22.667 24 38s18.5 29.166 25.5 41.499s13.5 24.5 19.5 36.5c2.66699 7.33301 7.83398 12.333 15.501 15s15.167 2.5 22.5 -0.5s12.333 -8.33301 15 -16s2.33398 -15.167 -0.999023 -22.5z" />
    <glyph glyph-name="ampersand" unicode="&#x26;" horiz-adv-x="565" 
d="M185 340c-8 -9.33301 -15.334 -18.334 -22.001 -27.001c-29.333 -42.667 -35.333 -87.667 -18 -135c8.66699 -23.333 28 -38.666 58 -45.999c30 -6.66699 66.667 -4.66699 110 6c16.667 4.66699 33.334 10 50.001 16l-30 33l-62 61c-39.333 38 -68 68.667 -86 92z
M458.999 137.999c13.333 -14 26.333 -26.3291 39 -36.9961c6 -5.33301 9.33301 -12 10 -20s-1.66602 -15 -6.99902 -21s-12 -9.33301 -20 -10s-15 1.66602 -21 6.99902c-17.333 15.333 -35.666 32.666 -54.999 51.999c-24.667 -11.333 -50.667 -20.333 -78 -27
c-52.667 -13.333 -98.334 -15.333 -137.001 -6c-50 11.333 -83 38.666 -99 81.999c-24.667 66 -16.334 128.667 24.999 188c10 14.667 22.333 29.334 37 44.001c-11.333 21.333 -19.666 42.666 -24.999 63.999c-7.33301 24.667 -9.16602 54.167 -5.49902 88.5
s12.5 64.5 26.5 90.5c17.333 32 40 52 68 60c32.667 9.33301 67.667 1.66602 105 -23.001c32 -20.667 53.333 -42.334 64 -65.001c11.333 -24 11.333 -48.333 0 -73c-5.33301 -12.667 -14.666 -26.167 -27.999 -40.5s-24.666 -25.5 -33.999 -33.5l-44 -34l-53 -43
c15.333 -21.333 42.166 -50.5 80.499 -87.5s60.833 -59.167 67.5 -66.5l43 -46c38.667 22.667 63.334 45 74.001 67c3.33301 8 6.16602 16.333 8.49902 25s3.66602 15.5 3.99902 20.5s0.833008 14.333 1.5 28s1.33398 23.834 2.00098 30.501c0.666992 8 4 14.667 10 20
s13 7.66602 21 6.99902s14.667 -4 20 -10s7.66602 -13 6.99902 -21c-0.666992 -4 -1.33398 -13.667 -2.00098 -29s-1.33398 -26.166 -2.00098 -32.499s-2.5 -15.666 -5.5 -27.999s-7.16699 -23.833 -12.5 -34.5c-14 -30.667 -42.333 -59.334 -85 -86.001zM196.999 431.003
l47.001 38c27.333 21.333 47.833 38.333 61.5 51s23.167 24.667 28.5 36c3.33301 8 3.33301 16 0 24c-6 12.667 -20.667 26.667 -44 42c-22.667 14.667 -41.667 19.667 -57 15c-12.667 -3.33301 -23.667 -14 -33 -32c-10 -18.667 -16.5 -41.5 -19.5 -68.5
s-1.83301 -49.833 3.5 -68.5c3.33301 -12.667 7.66602 -25 12.999 -37z" />
    <glyph glyph-name="quotesingle" unicode="'" horiz-adv-x="134" 
d="M127 688c-5.33301 -72 -2.66602 -169.999 8.00098 -293.999c0.666992 -8 -1.5 -15.167 -6.5 -21.5s-11.5 -9.83301 -19.5 -10.5s-15.167 1.5 -21.5 6.5s-9.83301 11.5 -10.5 19.5c-11.333 126.667 -14 228 -8 304c0.666992 8 4 14.667 10 20s13 7.66602 21 6.99902
s14.667 -4 20 -10s7.66602 -13 6.99902 -21z" />
    <glyph glyph-name="parenleft" unicode="(" horiz-adv-x="274" 
d="M271 665l-42.998 -70.9961c-22.667 -36 -40.334 -66 -53.001 -90s-23.667 -47.667 -33 -71c-18.667 -49.333 -32.5 -112.333 -41.5 -189s-8.83301 -140.334 0.5 -191.001c2 -6.66699 5 -14.334 9 -23.001s8 -16 12 -22l18 -26l16 -25
c4.66699 -6.66699 11.834 -18 21.501 -34s16.834 -27.167 21.501 -33.5s11.334 -14.166 20.001 -23.499c8.66699 -10 17.334 -18 26.001 -24c6.66699 -4.66699 10.834 -10.834 12.501 -18.501s0.166992 -14.834 -4.5 -21.501s-10.834 -10.834 -18.501 -12.501
s-14.834 -0.166992 -21.501 4.5c-12 8 -23.833 18.333 -35.5 31s-20.334 23 -26.001 31s-13.834 20.667 -24.501 38l-19 31l-15 22c-8.66699 12.667 -15.334 22.834 -20.001 30.501s-10 17.667 -16 30s-10 23.5 -12 33.5c-10.667 58.667 -11.334 128.5 -2.00098 209.5
s24.333 148.5 45 202.5c9.33301 25.333 21 51.166 35 77.499s32.5 58 55.5 95s37.167 60.167 42.5 69.5c4 6.66699 9.83301 11 17.5 13s15 1 22 -3s11.5 -9.83301 13.5 -17.5s1 -15.167 -3 -22.5z" />
    <glyph glyph-name="parenright" unicode=")" horiz-adv-x="228" 
d="M69 704c4 -10.667 8.50098 -20.001 13.501 -28.001s12.333 -18.5 22 -31.5s17.5 -23.167 23.5 -30.5c27.333 -40 50.666 -88 69.999 -144c18 -52.667 28 -104 30 -154c2 -51.333 -1.66699 -98 -11 -140s-25.166 -86 -47.499 -132s-45.333 -86.5 -69 -121.5
s-52.5 -74.5 -86.5 -118.5c-4.66699 -6 -11 -9.5 -19 -10.5s-15.167 0.833008 -21.5 5.5s-10 11 -11 19s0.833008 15.333 5.5 22c33.333 42.667 61.333 81 84 115s44.334 72 65.001 114s35.167 82.167 43.5 120.5s11.5 80 9.5 125s-10.667 90.833 -26 137.5
c-17.333 49.333 -38.666 92 -63.999 128c-2 3.33301 -8.83301 12.5 -20.5 27.5s-20.834 28.167 -27.501 39.5s-12.334 23.666 -17.001 36.999c-2.66699 8 -2.33398 15.5 0.999023 22.5s8.83301 11.833 16.5 14.5s15 2.33398 22 -0.999023s11.833 -8.66602 14.5 -15.999z" />
    <glyph glyph-name="asterisk" unicode="*" horiz-adv-x="334" 
d="M229 727c2 -24.667 2.33008 -58.334 0.99707 -101.001l-1 -27c23.333 18.667 44.666 33 63.999 43c6.66699 3.33301 13.834 3.83301 21.501 1.5s13.334 -7 17.001 -14s4.33398 -14.333 2.00098 -22s-7.16602 -13.5 -14.499 -17.5c-22 -11.333 -47 -29.333 -75 -54
c20.667 -21.333 38.667 -39 54 -53c6 -5.33301 9.33301 -12 10 -20s-1.66602 -15 -6.99902 -21s-12 -9.33301 -20 -10s-15 1.66602 -21 6.99902l-23 21c5.33301 -34.667 8.66602 -60 9.99902 -76c0.666992 -8 -1.66602 -15 -6.99902 -21s-12 -9.33301 -20 -10
s-15 1.66602 -21 6.99902s-9.33301 12 -10 20c-1.33301 14 -4.33301 38 -9 72l-3 18c-8.66699 -9.33301 -16.334 -18.666 -23.001 -27.999c-4.66699 -6 -11 -9.5 -19 -10.5s-15.167 0.833008 -21.5 5.5s-10 11 -11 19s0.833008 15.333 5.5 22c14.667 19.333 33 40 55 62
l-5 5c-38.667 42.667 -71.667 73.334 -99 92.001c-6 4.66699 -9.83301 11 -11.5 19s-0.166992 15.167 4.5 21.5s11 10.333 19 12s15.333 0.166992 22 -4.5c24.667 -17.333 51 -40.666 79 -69.999v13c1.33301 38.667 1 69.667 -1 93c-0.666992 8 1.5 15.167 6.5 21.5
s11.5 9.83301 19.5 10.5s15.167 -1.5 21.5 -6.5s9.83301 -11.5 10.5 -19.5z" />
    <glyph glyph-name="plus" unicode="+" horiz-adv-x="507" 
d="M481 243c-6 -0.666992 -23.999 -2.33203 -53.999 -4.99902s-49.5 -4.16699 -58.5 -4.5s-28.5 -0.166016 -58.5 0.500977l-10 1l4 -61l4 -72c2 -23.333 3.66699 -44 5 -62c0.666992 -8 -1.66602 -15 -6.99902 -21s-12 -9.33301 -20 -10s-15 1.66602 -21 6.99902
s-9.33301 12 -10 20c-0.666992 15.333 -2 36.666 -4 63.999l-5 76c-2 22.667 -3.33301 44 -4 64c-52.667 4.66699 -95.334 5.66699 -128.001 3c-8 -0.666992 -15 1.66602 -21 6.99902s-9.33301 12 -10 20s1.66602 15 6.99902 21s12 9.33301 20 10
c34.667 2.66699 78 1.66699 130 -3c-2 70.667 0 135 6 193c0.666992 8 4.16699 14.5 10.5 19.5s13.5 7.16699 21.5 6.5s14.5 -4.16699 19.5 -10.5s7.16699 -13.5 6.5 -21.5c-6 -57.333 -8 -121.333 -6 -192c6 -0.666992 11.333 -1 16 -1
c27.333 -0.666992 44.833 -0.833984 52.5 -0.500977s25.667 1.83301 54 4.5s47.166 4.33398 56.499 5.00098c8 0.666992 15 -1.66602 21 -6.99902s9.33301 -12 10 -20s-1.66602 -15 -6.99902 -21s-12 -9.33301 -20 -10z" />
    <glyph glyph-name="comma" unicode="," horiz-adv-x="163" 
d="M164 59c-0.666992 -14 -0.832031 -27.002 -0.499023 -39.002s0.333008 -25 0 -39s-1.83301 -25.667 -4.5 -35c-8 -38.667 -34.333 -71.667 -79 -99c-6.66699 -4 -13.834 -5 -21.501 -3s-13.667 6.33301 -18 13s-5.5 13.834 -3.5 21.501s6.33301 13.834 13 18.501
c30 18.667 47.667 39 53 61c1.33301 8 2.16602 17 2.49902 27s0.333008 20.667 0 32s-0.166016 26 0.500977 44c0 8 3 14.667 9 20s13 8 21 8s14.667 -3 20 -9s8 -13 8 -21z" />
    <glyph glyph-name="hyphen" unicode="-" horiz-adv-x="287" 
d="M258 243c-16.667 0.666992 -39.6641 2.00098 -68.9971 4.00098s-56 3.66699 -80 5s-47 2 -69 2c-8 0 -14.833 2.83301 -20.5 8.5s-8.5 12.5 -8.5 20.5s2.83301 14.833 8.5 20.5s12.5 8.5 20.5 8.5c22 0 45.167 -0.666992 69.5 -2s51.666 -3 81.999 -5
s53.166 -3.33301 68.499 -4c8 -0.666992 14.833 -3.83398 20.5 -9.50098s8.16699 -12.5 7.5 -20.5s-3.83398 -14.833 -9.50098 -20.5s-12.5 -8.16699 -20.5 -7.5z" />
    <glyph glyph-name="period" unicode="." horiz-adv-x="188" 
d="M101 26c-19.333 26.667 -28.333 49.6689 -27 69.002c1.33301 12.667 6.66602 23 15.999 31c8 6.66699 17.333 10.334 28 11.001c16.667 1.33301 32.334 -3.33398 47.001 -14.001c20 -14 27.667 -31.333 23 -52c-2.66699 -14 -11.667 -24.667 -27 -32
c-3.33301 -1.33301 -6 -2.33301 -8 -3c-1.33301 -6.66699 -5 -12.334 -11 -17.001c-6.66699 -4.66699 -14 -6.33398 -22 -5.00098s-14.333 5.33301 -19 12z" />
    <glyph glyph-name="slash" unicode="/" horiz-adv-x="276" 
d="M275 646c-46.667 -118 -79.002 -207.665 -97.002 -268.998c-8.66699 -28.667 -19.667 -69.334 -33 -122.001c-14 -54 -27.5 -103 -40.5 -147s-27.167 -85 -42.5 -123c-3.33301 -7.33301 -8.66602 -12.5 -15.999 -15.5s-14.666 -3 -21.999 0s-12.5 8.16699 -15.5 15.5
s-3.16699 14.666 -0.5 21.999c15.333 36.667 29.166 76 41.499 118s25.333 89.667 39 143s24.834 95 33.501 125c18 62 51 153.667 99 275c2.66699 7.33301 7.66699 12.5 15 15.5s14.833 3.16699 22.5 0.5s13 -7.66699 16 -15s3.16699 -15 0.5 -23z" />
    <glyph glyph-name="zero" unicode="0" horiz-adv-x="517" 
d="M95 207c16 19.333 34.334 40.334 55.001 63.001l50 54l60 61l53 54l49 54c-30.667 69.333 -65 112.666 -103 129.999c-40.667 18 -83 -2 -127 -60c-20.667 -28 -34 -49.333 -40 -64c-18 -50 -26.333 -99.333 -25 -148s10.666 -96.667 27.999 -144zM121.001 147.001
c16 -30 33.999 -55.332 53.999 -75.999c41.333 -42 78 -55 110 -39c42.667 22 72.334 88.333 89.001 199c0.666992 4 2.33398 8 5.00098 12c14 73.333 15.333 135.333 4 186l-28 -30l-57 -59l-66 -68l-52 -57c-22.667 -24.667 -42.334 -47.334 -59.001 -68.001zM429 482.002
c10.667 -32.667 16.8359 -67.4961 18.5029 -104.496s0.5 -69.667 -3.5 -98s-10.667 -61.833 -20 -100.5l-6 -33l-8 -37c-2 -10 -5.33301 -21.833 -10 -35.5s-9.66699 -25.834 -15 -36.501s-14 -16 -26 -16c-14 -18 -30 -31.333 -48 -40c-20 -11.333 -41 -15.666 -63 -12.999
s-42.333 9.5 -61 20.5s-36.334 25.167 -53.001 42.5c-18.667 18.667 -35.667 41 -51 67l-36 -53c-4 -6.66699 -10 -10.834 -18 -12.501s-15.333 -0.333984 -22 3.99902s-10.834 10.5 -12.501 18.5s-0.166992 15.333 4.5 22c16 25.333 34 51.333 54 78
c-16 36.667 -28 75 -36 115s-10.5 82.167 -7.5 126.5s12.5 85.833 28.5 124.5c8 19.333 24 44.666 48 75.999c30.667 41.333 63 68.5 97 81.5s67.333 11.833 100 -3.5c46 -20.667 86.333 -65.334 121 -134.001c24 27.333 45.667 50 65 68c6 5.33301 13 8 21 8
s14.667 -3 20 -9s8 -13 8 -21s-3 -14.667 -9 -20c-20.667 -19.333 -46.334 -46.333 -77.001 -81z" />
    <glyph glyph-name="one" unicode="1" horiz-adv-x="467" 
d="M435 51c-34 5.33301 -83.334 5.66699 -148.001 1c-74.667 -5.33301 -128 -6.66602 -160 -3.99902c-8 0.666992 -14.667 4 -20 10s-7.66602 13 -6.99902 21s4 14.667 10 20s13 7.66602 21 6.99902c30.667 -2.66699 72 -2 124 2c-2 14.667 -3.66699 35.334 -5 62.001
c-2 34 -3.33301 55.667 -4 65c-1.33301 20 -3.66602 45.667 -6.99902 77l-8 81c-2 20.667 -4 45.5 -6 74.5s-3.33301 55.833 -4 80.5c-0.666992 32.667 -1.66699 53.667 -3 63c-0.666992 2 -1 3.66699 -1 5c-6 -10 -13 -22.667 -21 -38
c-14 -27.333 -28.333 -58.666 -43 -93.999c-3.33301 -7.33301 -8.66602 -12.333 -15.999 -15s-14.833 -2.5 -22.5 0.5s-12.834 8.16699 -15.501 15.5s-2.66699 15 0 23c16 35.333 31.333 67.666 46 96.999c12 24.667 22.667 43.667 32 57c6 9.33301 11.667 16.666 17 21.999
c11.333 10.667 23 15.334 35 14.001c17.333 -2.66699 30 -15.334 38 -38.001c3.33301 -10.667 6 -25 8 -43c2 -11.333 3.33301 -33.666 4 -66.999c0.666992 -24.667 2 -51.334 4 -80.001s4 -53.334 6 -74.001l8 -80c3.33301 -32.667 5.66602 -57.667 6.99902 -75
c0.666992 -9.33301 2 -32 4 -68c1.33301 -26 3 -46.333 5 -61c52 3.33301 95.333 2.33301 130 -3c8 -1.33301 14.333 -5.16602 19 -11.499s6.5 -13.5 5.5 -21.5s-4.66699 -14.333 -11 -19s-13.5 -6.66699 -21.5 -6z" />
    <glyph glyph-name="two" unicode="2" horiz-adv-x="612" 
d="M33 426c4 10 8.66211 23.334 13.9951 40.001c0.666992 0.666992 3 6.66699 7 18l8 27c12.667 39.333 27.667 69.333 45 90c17.333 22 40.5 40 69.5 54s58.833 22.333 89.5 25c34 3.33301 65.5 -1.33398 94.5 -14.001s51.167 -34.334 66.5 -65.001
c18 -37.333 27.333 -75.666 28 -114.999s-6.5 -76.5 -21.5 -111.5s-32.833 -67 -53.5 -96s-44.334 -56.833 -71.001 -83.5c-7.33301 -7.33301 -16.666 -16 -27.999 -26c12.667 2.66699 28 4.66699 46 6c24 2 68.333 0 133 -6c50.667 -4.66699 90 -4 118 2
c7.33301 2 14.5 0.833008 21.5 -3.5s11.333 -10.333 13 -18s0.333984 -15 -3.99902 -22s-10.5 -11.167 -18.5 -12.5c-33.333 -8 -78.333 -9.33301 -135 -4c-62.667 6 -104 8 -124 6c-40 -3.33301 -77 -13.333 -111 -30c-3.33301 -1.33301 -7.33301 -3.33301 -12 -6l-14 -9
c-14 -8 -27 -13 -39 -15c-3.33301 -0.666992 -6.66602 -0.666992 -9.99902 0c-8.66699 0.666992 -15.667 4 -21 10c-7.33301 8 -9.66602 17.333 -6.99902 28c1.33301 4 3.33301 8 6 12c3.33301 4.66699 10 11.334 20 20.001l23 18c9.33301 7.33301 15 12 17 14l42 37
c19.333 17.333 34 31 44 41c24.667 24 46.167 49.167 64.5 75.5s33.5 54 45.5 83s17.833 59 17.5 90s-7.5 60.833 -21.5 89.5c-18 36 -52.667 51.667 -104 47c-23.333 -2 -46 -8.33301 -68 -19s-39 -23.667 -51 -39c-12 -14 -23.667 -37.667 -35 -71l-9 -26
c-3.33301 -11.333 -5 -17.333 -5 -18c-6 -18.667 -11.333 -33.667 -16 -45c-3.33301 -7.33301 -8.66602 -12.5 -15.999 -15.5s-14.666 -3 -21.999 0s-12.5 8.16699 -15.5 15.5s-3.16699 14.666 -0.5 21.999z" />
    <glyph glyph-name="three" unicode="3" horiz-adv-x="478" 
d="M32 491c14 24.667 32.5029 50.6689 55.5029 78.002s47.833 51.333 74.5 72c74 56.667 141.333 70 202 40c28.667 -14.667 47 -35 55 -61s9 -54 3 -84c-10.667 -48 -32 -92 -64 -132c-5.33301 -6.66699 -11 -12.667 -17 -18
c19.333 -0.666992 36.666 -3.33398 51.999 -8.00098c54.667 -16 83.334 -52 86.001 -108c2 -50.667 -12.833 -95.334 -44.5 -134.001s-71.167 -65 -118.5 -79c-49.333 -14.667 -97.833 -12.667 -145.5 6s-85.167 55.334 -112.5 110.001
c-3.33301 7.33301 -3.83301 14.833 -1.5 22.5s7.16602 13.167 14.499 16.5s14.833 3.83301 22.5 1.5s13.167 -7.16602 16.5 -14.499c20.667 -41.333 48.167 -68.833 82.5 -82.5s69.833 -14.834 106.5 -3.50098c36.667 10.667 66.5 30.167 89.5 58.5s33.833 60.5 32.5 96.5
c-1.33301 28 -16 46 -44 54c-25.333 7.33301 -59.333 7.66602 -102 0.999023l-21 -6c-16 -5.33301 -30 -6 -42 -2c-11.333 4.66699 -18.333 11.667 -21 21s-1.33398 18 3.99902 26c2 3.33301 5 6 9 8c3.33301 2.66699 8.66602 5 15.999 7l19 6
c33.333 19.333 57.666 38.333 72.999 57c27.333 33.333 45 69.333 53 108c8.66699 40.667 -0.333008 67.667 -27 81c-38.667 19.333 -85.667 8 -141 -34c-23.333 -18 -45.166 -39.333 -65.499 -64s-36.833 -47.334 -49.5 -68.001c-4 -7.33301 -9.83301 -12 -17.5 -14
s-15 -1 -22 3s-11.5 9.83301 -13.5 17.5s-1 14.834 3 21.501z" />
    <glyph glyph-name="four" unicode="4" horiz-adv-x="549" 
d="M123 255l5.00098 -1c7.33301 0 16.833 -0.166992 28.5 -0.5s18.167 -0.5 19.5 -0.5c36.667 -1.33301 94.667 -9 174 -23h3c1.33301 28.667 2.16602 58.667 2.49902 90s0.333008 68.833 0 112.5s-0.5 74.167 -0.5 91.5c0 9.33301 0.333008 31.333 1 66
c-6 -8.66699 -10.667 -15.667 -14 -21c-13.333 -18 -43.5 -56.5 -90.5 -115.5s-80.5 -106.5 -100.5 -142.5l-23 -46zM407.001 163c-4 -50.667 -10.6689 -97.0029 -20.002 -139.003c-1.33301 -8 -5.33301 -14.167 -12 -18.5s-14 -5.66602 -22 -3.99902
s-14.167 5.83398 -18.5 12.501s-5.5 14 -3.5 22c8.66699 41.333 15 86.666 19 135.999l-10 1c-76.667 13.333 -132 20.666 -166 21.999c-1.33301 0 -7.83301 0.166992 -19.5 0.5s-21.167 0.5 -28.5 0.5c-12 0.666992 -21.667 1.33398 -29 2.00098
c-4.66699 0 -8.33398 0.333008 -11.001 1s-4.66699 1 -6 1c-4.66699 1.33301 -8.66699 3 -12 5c-7.33301 5.33301 -11.666 13 -12.999 23c0 3.33301 0.333008 7.33301 1 12c0.666992 4 2.33398 9.33301 5.00098 16c3.33301 8.66699 8.33301 20.334 15 35.001
c7.33301 15.333 15.666 31.333 24.999 48c20 37.333 55.333 87.833 106 151.5s79.667 101.167 87 112.5c4 4.66699 10 13.667 18 27l18 27c8.66699 10.667 16.667 18.667 24 24c16 9.33301 31.333 9.66602 46 0.999023c2.66699 -2 5 -4.16699 7 -6.5
s3.33301 -4.16602 4 -5.49902l1 -3c0.666992 -1.33301 1 -2.66602 1 -3.99902c0.666992 -1.33301 1 -2.33301 1 -3v-3v-4v-12v-38c-0.666992 -44.667 -1 -71 -1 -79c0 -15.333 0.166992 -45.666 0.5 -90.999s0.333008 -84.333 0 -117s-1.16602 -64.334 -2.49902 -95.001
c40.667 -6 77.334 -9 110.001 -9c8 0 14.833 -2.83301 20.5 -8.5s8.5 -12.5 8.5 -20.5s-2.83301 -14.833 -8.5 -20.5s-12.5 -8.5 -20.5 -8.5c-34.667 0 -72.667 3 -114 9z" />
    <glyph glyph-name="five" unicode="5" horiz-adv-x="558" 
d="M447 554c-11.333 0 -36.665 1.66504 -75.998 4.99805l-103 8c-39.333 1.33301 -70.333 0.333008 -93 -3c-22 -3.33301 -34.667 -8 -38 -14c-6 -10 -10.333 -27 -13 -51c0 -4 -0.333008 -10.333 -1 -19s-1 -13.334 -1 -14.001c-1.33301 -14.667 -3 -26.334 -5 -35.001
c-4 -23.333 -7 -41.666 -9 -54.999c-2 -11.333 -3.33301 -20.333 -4 -27c6 0.666992 14.333 3.33398 25 8.00098c4.66699 2.66699 16.334 9 35.001 19c16 8 28 13 36 15c36.667 8.66699 73.5 13.5 110.5 14.5s76.167 -4.83301 117.5 -17.5
c40.667 -13.333 74 -34.666 100 -63.999c17.333 -19.333 27.5 -41.166 30.5 -65.499s0.833008 -46.666 -6.5 -66.999s-18.333 -40.166 -33 -59.499c-20 -27.333 -44.5 -51.5 -73.5 -72.5s-57.167 -34.833 -84.5 -41.5c-17.333 -4.66699 -35 -7.33398 -53 -8.00098
s-35.5 0.5 -52.5 3.5s-33.167 6.66699 -48.5 11s-31.333 10.166 -48 17.499l-44 20l-44 22c-16.667 8 -30.334 14.333 -41.001 19c-7.33301 2.66699 -12.333 7.83398 -15 15.501s-2.5 15.167 0.5 22.5s8.33301 12.333 16 15s15.167 2.33398 22.5 -0.999023l44 -21l44 -20
c11.333 -6 24.666 -12.167 39.999 -18.5s29.166 -11.333 41.499 -15s25.5 -6.83398 39.5 -9.50098s28 -3.66699 42 -3s28 2.66699 42 6c20 5.33301 41.667 16.666 65 33.999c24 16.667 44 36 60 58c36 48.667 40 88.667 12 120c-18.667 21.333 -43.834 37 -75.501 47
s-63.834 14.833 -96.501 14.5s-65.334 -4.5 -98.001 -12.5c-4 -0.666992 -11.667 -4.33398 -23 -11.001c-19.333 -10 -32 -16.333 -38 -19c-17.333 -8 -32.666 -12.667 -45.999 -14c-21.333 -2 -39 4 -53 18c-4 4.66699 -6.66699 10.334 -8 17.001
c-0.666992 2 -1 4.66699 -1 8c0 4 0.333008 9.33301 1 16c0.666992 8.66699 2 20.667 4 36l11 55c0.666992 7.33301 1.66699 17 3 29c0 0.666992 0.333008 5.5 1 14.5s1.33398 15.833 2.00098 20.5c2.66699 32 9.33398 57 20.001 75c12.667 21.333 39 35 79 41
c26.667 4 61.667 5.33301 105 4c24 -1.33301 59 -4 105 -8c38.667 -3.33301 61.667 -5 69 -5c8 0 15 -2.66699 21 -8s9 -12 9 -20s-2.66699 -15 -8 -21s-12 -9 -20 -9z" />
    <glyph glyph-name="six" unicode="6" horiz-adv-x="526" 
d="M148 291c-0.666992 -6.66699 -1 -13.6699 -1 -21.0029c0 -6 -0.5 -13.833 -1.5 -23.5s-1.5 -15.5 -1.5 -17.5s0.666992 -7 2 -15c11.333 -43.333 35.666 -81.666 72.999 -114.999c38.667 -34.667 76.334 -47.667 113.001 -39c14.667 4 30.334 12.833 47.001 26.5
s30.667 28.834 42 45.501c24.667 35.333 39.667 70.5 45 105.5s3 65.167 -7 90.5s-25.333 46.333 -46 63c-20 16.667 -42.667 27.167 -68 31.5s-53 0 -83 -13s-57.333 -35.167 -82 -66.5c-12.667 -15.333 -23.334 -32.666 -32.001 -51.999zM92 305.997
c8.66699 79.333 33.499 154.169 74.499 224.502s94.167 123.166 159.5 158.499c7.33301 3.33301 14.833 3.83301 22.5 1.5s13.334 -7 17.001 -14s4.33398 -14.333 2.00098 -22s-6.83301 -13.5 -13.5 -17.5c-38.667 -20.667 -72.834 -49.334 -102.501 -86.001
s-53.5 -78.334 -71.5 -125.001c29.333 24.667 60.5 41 93.5 49s64.5 8.5 94.5 1.5s57.333 -20.5 82 -40.5c28.667 -24 49.834 -53.5 63.501 -88.5s17.167 -74.5 10.5 -118.5s-25 -87.667 -55 -131c-14.667 -20 -33 -39.333 -55 -58s-44.667 -30.667 -68 -36
c-56.667 -14 -112 3.33301 -166 52c-21.333 19.333 -40 41.833 -56 67.5s-27.333 51.167 -34 76.5c-2.66699 8.66699 -4 19.334 -4 32.001c-10.667 8 -14 18.667 -10 32c5.33301 15.333 10.666 29.333 15.999 42z" />
    <glyph glyph-name="seven" unicode="7" horiz-adv-x="492" 
d="M29 675c35.333 10 79.667 14.667 133 14c72.667 0 113.667 0.333008 123 1c12.667 0.666992 23.667 1.66699 33 3c2 1.33301 4 2.33301 6 3s4.33301 1.33398 7 2.00098c0.666992 0 1.66699 0.333008 3 1c4.66699 0 23 0.666992 55 2
c14.667 0.666992 28.334 0.666992 41.001 0c10.667 -0.666992 19.334 -1.66699 26.001 -3c5.33301 -0.666992 10 -1.66699 14 -3c8 -3.33301 14.333 -8.33301 19 -15c3.33301 -6 4.66602 -12.667 3.99902 -20c-0.666992 -2 -1.33398 -4.16699 -2.00098 -6.5
s-1.66699 -4.83301 -3 -7.5c-2 -4.66699 -5 -10.667 -9 -18c-6.66699 -12.667 -16 -29.334 -28 -50.001l-50 -86l-57 -91l-62 -101c-15.333 -26 -32.333 -56.833 -51 -92.5s-33.667 -70.167 -45 -103.5s-19 -65.666 -23 -96.999c-1.33301 -8 -5.16602 -14.333 -11.499 -19
s-13.5 -6.5 -21.5 -5.5s-14.333 4.66699 -19 11s-6.66699 13.5 -6 21.5c4.66699 34 13.167 69.167 25.5 105.5s28.5 73.666 48.5 111.999s38.333 71.5 55 99.5l62 102l55 88l50 85l20 36c-10.667 0.666992 -20.667 0.666992 -30 0l-26 -1l-11 -4
c-8 -1.33301 -29.667 -3.33301 -65 -6c-10.667 -0.666992 -53.334 -1 -128.001 -1c-47.333 0.666992 -86 -3.33301 -116 -12c-8 -2 -15.5 -1.16699 -22.5 2.5s-11.5 9.5 -13.5 17.5s-1.16699 15.5 2.5 22.5s9.5 11.5 17.5 13.5z" />
    <glyph glyph-name="eight" unicode="8" horiz-adv-x="476" 
d="M263 361c30 -9.33301 54.332 -12.6641 72.999 -9.99707c14.667 2 29 14.667 43 38c12.667 21.333 21.667 45 27 71c2.66699 14 4 29 4 45c0 18 -1.66699 30.333 -5 37c-10 18.667 -24.667 36 -44 52s-41 28.333 -65 37c-52 20 -97.667 20 -137 0
c-18 -9.33301 -32 -23.833 -42 -43.5s-18.667 -44.834 -26 -75.501c0 -6.66699 0.666992 -13.334 2 -20.001c4 -16 14.833 -33 32.5 -51s39.834 -34.667 66.501 -50c12.667 -6.66699 25.667 -13 39 -19h12c8 -0.666992 14.667 -4.33398 20 -11.001zM148.999 350.002
c-64.667 39.333 -102.002 82.668 -112.002 130.001c-0.666992 2.66699 -1.33398 5 -2.00098 7c-4.66699 7.33301 -6 15 -4 23l1 8c0 10 0.833008 21.167 2.5 33.5s3.16699 22 4.5 29s3.83301 17.5 7.5 31.5s5.83398 22.667 6.50098 26c1.33301 8 5.5 14.167 12.5 18.5
s14.167 5.5 21.5 3.5c3.33301 -0.666992 6.66602 -2 9.99902 -4c10.667 11.333 22.667 20.333 36 27c54 27.333 115.333 28.333 184 3c30 -11.333 57.333 -27.333 82 -48s44 -44 58 -70c8 -14.667 11.667 -36 11 -64c0 -19.333 -2 -38 -6 -56
c-6 -31.333 -17 -60.666 -33 -87.999c-13.333 -22.667 -28.333 -39.667 -45 -51c37.333 -22.667 64.333 -52.334 81 -89.001c10 -20.667 14 -42.834 12 -66.501s-7.5 -46.167 -16.5 -67.5s-21.167 -41.333 -36.5 -60c-23.333 -29.333 -51.333 -52 -84 -68
s-65.667 -20 -99 -12c-8 2 -15.333 4.16699 -22 6.5s-13 5.5 -19 9.5l-16 8c-3.33301 2 -8.16602 5.66699 -14.499 11s-10.166 9 -11.499 11l-14 13l-12 13c-2.66699 2.66699 -9 8.5 -19 17.5s-19.167 18 -27.5 27s-15.166 17.5 -20.499 25.5
c-13.333 20.667 -21.166 42.667 -23.499 66s-0.333008 45.5 6 66.5s15.833 41.167 28.5 60.5c19.333 29.333 43.666 52.333 72.999 69zM174.997 298.004c-20 -12 -36.999 -28.333 -50.999 -49c-14.667 -22 -23 -44.333 -25 -67s2.66699 -43.334 14 -62.001
c4.66699 -7.33301 9.83398 -13.833 15.501 -19.5s13 -12.5 22 -20.5s16.833 -15.333 23.5 -22l11 -11c5.33301 -5.33301 8.66602 -8.83301 9.99902 -10.5s4 -4.33398 8 -8.00098s7 -6.16699 9 -7.5l8 -5c4 -2.66699 7.5 -4.66699 10.5 -6s6.5 -2.66602 10.5 -3.99902
s8.66699 -2.66602 14 -3.99902c19.333 -4.66699 40.333 -1.5 63 9.5s43.167 27.833 61.5 50.5s30.5 46.334 36.5 71.001s5 45.667 -3 63c-16.667 36 -47.334 62.667 -92.001 80s-91.667 24.666 -141 21.999h-5z" />
    <glyph glyph-name="nine" unicode="9" horiz-adv-x="501" 
d="M385 376c3.33301 52.667 -2.16797 102.001 -16.501 148.001s-36.833 82.333 -67.5 109c-36.667 32 -77 44.667 -121 38c-46.667 -6.66699 -79.667 -37.667 -99 -93c-9.33301 -25.333 -14.166 -52.333 -14.499 -81s3.5 -54.334 11.5 -77.001c4 -12.667 14.333 -26 31 -40
c16.667 -13.333 38 -25.333 64 -36c24 -10 48 -16.667 72 -20c24 -4 43.333 -4.66699 58 -2c24 5.33301 51.333 23.333 82 54zM90.999 110.001c59.333 -36.667 113.332 -41.0029 161.999 -13.0029c45.333 26.667 80.666 75.667 105.999 147c5.33301 15.333 10 31 14 47
c-20.667 -12.667 -40 -21 -58 -25c-44.667 -10 -99.667 -1.66699 -165 25c-70.667 29.333 -113.334 66.333 -128.001 111c-9.33301 28.667 -13.666 60.667 -12.999 96s6.33398 68.666 17.001 99.999c12 34 30.333 63 55 87s55 38.667 91 44
c62 8.66699 117.667 -8.66602 167 -51.999c54.667 -48 88 -116.667 100 -206l6 19c2.66699 8 7.5 13.833 14.5 17.5s14.333 4.33398 22 2.00098s13.334 -7 17.001 -14s4.5 -14.167 2.5 -21.5c-6 -19.333 -10.833 -34 -14.5 -44s-9.5 -22.667 -17.5 -38s-17.333 -29 -28 -41
c-4 -44.667 -13.333 -87 -28 -127c-29.333 -84 -73 -143 -131 -177c-68.667 -39.333 -142.334 -35 -221.001 13c-6.66699 4.66699 -11 10.834 -13 18.501s-0.833008 14.834 3.5 21.501s10.333 11 18 13s14.834 1 21.501 -3z" />
    <glyph glyph-name="colon" unicode=":" horiz-adv-x="186" 
d="M89 442c2 28.667 10.332 49 24.999 61c10 7.33301 20.167 10.5 30.5 9.5s19.5 -4.83301 27.5 -11.5c7.33301 -6.66699 11.833 -15 13.5 -25s-0.166016 -20.333 -5.49902 -31c-9.33301 -17.333 -28 -28.333 -56 -33c-0.666992 0 -1 -0.333008 -1 -1h-3h-4
c-6.66699 0.666992 -12.5 3.16699 -17.5 7.5s-8.16699 9.83301 -9.5 16.5v7zM84.999 63c-4 3.33301 -6.66895 7.00098 -8.00195 11.001c-3.33301 7.33301 -3.66602 14.666 -0.999023 21.999s7.66699 12.666 15 15.999l5 3l2 4c2.66699 7.33301 7.66699 12.5 15 15.5
s15 3.16699 23 0.5c4 -2 7.66699 -4.66699 11 -8h5c12.667 -2 22 -7.66699 28 -17c6 -8 8.33301 -17.667 7 -29s-6.66602 -23 -15.999 -35c-4 -5.33301 -8.33301 -9.66602 -13 -12.999c-8.66699 -6 -17.334 -8.66699 -26.001 -8c-18.667 1.33301 -32 8.33301 -40 21
c-3.33301 5.33301 -5.66602 11 -6.99902 17z" />
    <glyph glyph-name="semicolon" unicode=";" horiz-adv-x="179" 
d="M121 21l-3.00098 2.00098c-6 2.66699 -11 5.66699 -15 9c-9.33301 7.33301 -14 16.666 -14 27.999c-0.666992 18.667 9 31.334 29 38.001c2.66699 1.33301 5 2.16602 7 2.49902s3.16699 0.5 3.5 0.5s0.833008 0.333008 1.5 1c7.33301 4 14.833 5 22.5 3
s13.5 -6.33301 17.5 -13c6.66699 -12 5.66699 -23.333 -3 -34c2 -2.66699 3.66699 -5.33398 5 -8.00098c17.333 -38 7.33301 -83.667 -30 -137c-4.66699 -6.66699 -11 -10.667 -19 -12s-15.333 0.333984 -22 5.00098s-10.667 11 -12 19s0.333984 15.333 5.00098 22
c22.667 32 31.667 56.667 27 74zM121.999 410.001c-20.667 9.33301 -34.6689 21.332 -42.002 35.999c-4 6 -5.66699 14.333 -5 25s5.33398 19.667 14.001 27c11.333 6.66699 21.5 9 30.5 7s16.833 -6.33301 23.5 -13c10.667 -11.333 18.334 -28.666 23.001 -51.999
c1.33301 -8 -0.333984 -15.167 -5.00098 -21.5s-11 -10.5 -19 -12.5c-5.33301 -0.666992 -10.666 0 -15.999 2z" />
    <glyph glyph-name="less" unicode="&#x3c;" horiz-adv-x="526" 
d="M505 407c-34.667 -9.33301 -99.335 -43.332 -194.002 -101.999l-97 -64l-17 -12c3.33301 -2.66699 7 -5.33398 11 -8.00098c17.333 -12 40.333 -25.333 69 -40c44.667 -24 86.334 -44.333 125.001 -61c7.33301 -3.33301 12.333 -8.83301 15 -16.5s2.5 -15.167 -0.5 -22.5
s-8.33301 -12.333 -16 -15s-15.167 -2.66699 -22.5 0c-40 18 -82.667 39.333 -128 64c-30.667 16 -55.334 30.333 -74.001 43c-11.333 7.33301 -20.666 14 -27.999 20c-10.667 10 -17 19.667 -19 29c-2 7.33301 -1.33301 14.666 2 21.999
c1.33301 2.66699 3.33301 5.33398 6 8.00098c2.66699 3.33301 6.33398 7 11.001 11c7.33301 6.66699 18 15 32 25c27.333 20 61 42.333 101 67c98.667 60.667 168.667 96.667 210 108c7.33301 2 14.5 1 21.5 -3s11.5 -9.83301 13.5 -17.5s1 -15 -3 -22s-10 -11.5 -18 -13.5z
" />
    <glyph glyph-name="equal" unicode="=" horiz-adv-x="518" 
d="M82 369c26.667 1.33301 47.001 1.66602 61.001 0.999023s33.667 -2 59 -4s43.666 -3.33301 54.999 -4c9.33301 -1.33301 27.666 -1.5 54.999 -0.5s45.333 1.83301 54 2.5l56 4l57 4c8 0.666992 15 -1.66602 21 -6.99902s9.33301 -12 10 -20s-1.66602 -15 -6.99902 -21
s-12 -9.33301 -20 -10c-8.66699 -0.666992 -27.334 -2 -56.001 -4l-57 -4c-9.33301 -0.666992 -28.333 -1.5 -57 -2.5s-48 -0.833008 -58 0.5c-8.66699 0 -33 1.66699 -73 5c-39.333 3.33301 -70.666 4 -93.999 2c-8 -0.666992 -15.167 1.5 -21.5 6.5
s-9.83301 11.5 -10.5 19.5s1.5 15.167 6.5 21.5s11.5 9.83301 19.5 10.5zM69.001 143c20.667 -4 47.668 -4.66797 81.001 -2.00098c54 4 84 6 90 6c29.333 0 72.166 -0.5 128.499 -1.5s96.833 -1.5 121.5 -1.5c8 0 14.833 -2.83301 20.5 -8.5s8.5 -12.5 8.5 -20.5
s-2.83301 -14.833 -8.5 -20.5s-12.5 -8.5 -20.5 -8.5c-24.667 0 -65 0.5 -121 1.5s-99 1.5 -129 1.5c-2 0 -30.667 -2 -86 -6c-36.667 -2.66699 -68.334 -1.33398 -95.001 3.99902c-8 1.33301 -14.333 5.33301 -19 12s-6.16699 13.834 -4.5 21.501
s5.83398 13.834 12.501 18.501s13.667 6 21 4z" />
    <glyph glyph-name="greater" unicode="&#x3e;" horiz-adv-x="474" 
d="M130 401c12.667 -0.666992 38.998 -5.33301 78.998 -14s78.333 -18.667 115 -30c48 -15.333 84 -31 108 -47c17.333 -10.667 29.333 -22 36 -34c10.667 -19.333 10 -38 -2 -56c-6 -9.33301 -15.667 -16.333 -29 -21c-4 -1.33301 -7.16699 -2.33301 -9.5 -3
s-4.16602 -1 -5.49902 -1l-50 -23c-98 -42.667 -168.333 -77.334 -211 -104.001c-6.66699 -4 -13.834 -5.16699 -21.501 -3.5s-13.667 6 -18 13s-5.66602 14.333 -3.99902 22s6.16699 13.834 13.5 18.501c44 28 116.333 64 217 108l50 21c3.33301 2 8 3.66699 14 5
c-3.33301 4 -7 7.33301 -11 10c-20 12.667 -51.667 26 -95 40c-34.667 10.667 -70.667 20.167 -108 28.5s-60.666 12.5 -69.999 12.5c-8 0 -14.667 3 -20 9s-8 13 -8 21s3 14.667 9 20s13 8 21 8z" />
    <glyph glyph-name="question" unicode="?" horiz-adv-x="457" 
d="M47 522l2.99805 14.9961c2 10 3.66699 17.167 5 21.5s3.5 10.5 6.5 18.5s6.16699 15 9.5 21c18.667 32 46.667 59.167 84 81.5s75.666 35.833 114.999 40.5c44.667 5.33301 83 -1.66699 115 -21c36.667 -22.667 59.667 -58.667 69 -108
c6.66699 -40 5.83398 -74 -2.49902 -102s-23.166 -53.667 -44.499 -77c-4 -4.66699 -22.667 -22.667 -56 -54c-22 -20.667 -39 -40 -51 -58c-4.66699 -8 -8.5 -17.167 -11.5 -27.5s-4.83301 -18 -5.5 -23s-2 -17.167 -4 -36.5c-0.666992 -8 -4.16699 -14.5 -10.5 -19.5
s-13.5 -7.16699 -21.5 -6.5s-14.5 4.16699 -19.5 10.5s-7.16699 13.5 -6.5 21.5c0 0.666992 0.5 5.5 1.5 14.5s1.66699 14.5 2 16.5s1 7 2 15s2.16699 13.833 3.5 17.5s3 8.83398 5 15.501s4.33301 12.667 7 18s6 10.666 10 15.999c13.333 20.667 33 43.334 59 68.001l53 51
c15.333 16.667 26 34.834 32 54.501s6 44.834 0 75.501c-5.33301 32 -19 54.667 -41 68c-20.667 12.667 -46.667 17.167 -78 13.5s-61.666 -14.334 -90.999 -32.001s-51 -38.5 -65 -62.5c-4 -7.33301 -10 -27.333 -18 -60c-1.33301 -7.33301 -5.5 -13.166 -12.5 -17.499
s-14.333 -5.66602 -22 -3.99902s-13.667 6 -18 13s-5.5 14.5 -3.5 22.5zM243.998 11.9961c0 1.33301 -0.165039 2.5 -0.498047 3.5s-0.833008 2.66699 -1.5 5s-1.33398 4.83301 -2.00098 7.5c-3.33301 13.333 -3 25 1 35c4.66699 14.667 15.667 25.667 33 33
c13.333 6 26 8 38 6c11.333 -1.33301 20 -6 26 -14c8.66699 -11.333 10 -23.666 4 -36.999c-6 -12 -19.333 -24.667 -40 -38c-0.666992 -6.66699 -3.33398 -12.334 -8.00098 -17.001s-10.334 -7.66699 -17.001 -9c-8 -0.666992 -15.167 1.33301 -21.5 6
s-10.166 11 -11.499 19z" />
    <glyph glyph-name="at" unicode="@" horiz-adv-x="834" 
d="M549 408c2 11.333 4.66504 21.667 7.99805 31c-17.333 10.667 -33.333 18.667 -48 24c-36.667 14.667 -68 14.667 -94 0c-10.667 -6 -22 -18.333 -34 -37s-21 -39 -27 -61c-12 -46 -6 -74 18 -84c24.667 -11.333 51.334 -6.66602 80.001 14.001
c21.333 16 45.333 42.667 72 80c4.66699 5.33301 9.33398 11.666 14.001 18.999zM610.998 402.001c-2 -4 -3.65723 -7.66992 -4.99023 -11.0029c-0.666992 -7.33301 -1.33398 -18.666 -2.00098 -33.999c-0.666992 -25.333 7.66602 -43.666 24.999 -54.999
c18 -10.667 39.333 -12.334 64 -5.00098c27.333 8 49.666 27 66.999 57c17.333 29.333 22 69 14 119c-4.66699 30.667 -22.334 64.334 -53.001 101.001c-28 33.333 -63.667 54 -107 62c-42.667 8.66699 -86.334 5.66699 -131.001 -9c-45.333 -14.667 -87 -37 -125 -67
c-38.667 -30.667 -66.667 -64.334 -84 -101.001c-24.667 -56 -33.5 -110 -26.5 -162s28.667 -99.167 65 -141.5s82.833 -74.166 139.5 -95.499c21.333 -8 47.5 -12.333 78.5 -13s62.833 2.66602 95.5 9.99902s60.167 18.333 82.5 33s36.833 31.667 43.5 51
c2 8 6.66699 13.667 14 17s14.833 3.83301 22.5 1.5s13.167 -7.16602 16.5 -14.499s3.66602 -14.666 0.999023 -21.999c-10.667 -32.667 -31.334 -59 -62.001 -79s-65.667 -34.667 -105 -44c-36 -8 -72.667 -11.5 -110 -10.5s-69.666 6.5 -96.999 16.5
c-66 24.667 -120.667 62 -164 112s-69.5 106.5 -78.5 169.5s1.83301 128.5 32.5 196.5c21.333 44.667 54.166 84.834 98.499 120.501s92.833 61.5 145.5 77.5c36 10 71.5 15.5 106.5 16.5s69.667 -5.83301 104 -20.5s63.833 -36.667 88.5 -66c38 -46 60.333 -89.667 67 -131
c9.33301 -62.667 1.83301 -115.167 -22.5 -157.5s-57.833 -69.833 -100.5 -82.5c-41.333 -12 -78.333 -8 -111 12c-22.667 14.667 -38 35 -46 61c-22.667 -28 -44.667 -49.667 -66 -65c-46 -34 -92 -41.333 -138 -22c-20 9.33301 -34.833 23.166 -44.5 41.499
s-14 36.833 -13 55.5s3.5 37.334 7.5 56.001c7.33301 27.333 19.166 53.666 35.499 78.999s34.166 43.333 53.499 54c41.333 24 89 25.333 143 4c20 -7.33301 41.333 -18.333 64 -33c1.33301 0.666992 2.66602 0.666992 3.99902 0c14.667 0 24 -7 28 -21v-1l17 -12
c6 -4.66699 9.5 -11 10.5 -19s-0.833008 -15.333 -5.5 -22c-4 -5.33301 -9.66699 -8.83301 -17 -10.5s-14 -0.5 -20 3.5z" />
    <glyph glyph-name="A" unicode="A" horiz-adv-x="553" 
d="M329 317l-5 13.999c-8 20.667 -20 56.667 -36 108c-14.667 45.333 -27 80.333 -37 105l-13 31c-39.333 -159.333 -62.333 -250.666 -69 -273.999c18 2 44.667 4.66699 80 8s62 6 80 8zM189 824.999c10 -26 28.9971 -68.667 56.9971 -128c27.333 -58 47 -101.667 59 -131
c10.667 -25.333 23.334 -61.666 38.001 -108.999c16 -50.667 27.667 -86 35 -106l10 -27c48.667 6.66699 92 15 130 25c7.33301 2 14.5 1 21.5 -3s11.5 -9.83301 13.5 -17.5s1 -15 -3 -22s-10 -11.5 -18 -13.5c-35.333 -9.33301 -76 -17.333 -122 -24
c62.667 -158.667 99.334 -254.667 110.001 -288c2.66699 -7.33301 2.33398 -14.666 -0.999023 -21.999s-8.83301 -12.166 -16.5 -14.499s-15.167 -1.83301 -22.5 1.5s-12 9 -14 17l-34 93l-45 114c-18 44 -30 74.333 -36 91c-23.333 -2.66699 -57.333 -6.33398 -102 -11.001
l-97 -9c-4 -12.667 -11 -33.334 -21 -62.001s-17.833 -53.167 -23.5 -73.5s-10.167 -40.5 -13.5 -60.5c-1.33301 -8 -5.33301 -14.333 -12 -19s-14 -6.33398 -22 -5.00098s-14.333 5.33301 -19 12s-6.33398 14 -5.00098 22c6 31.333 23.333 90.333 52 177
c-8 -0.666992 -15.167 1.33301 -21.5 6s-10 11 -11 19s0.833008 15.167 5.5 21.5s11 10.166 19 11.499l27 4c13.333 46 30.333 111.667 51 197s34 139.333 40 162l2 6l-6 13c-27.333 57.333 -47 101 -59 131c-2.66699 7.33301 -2.5 14.833 0.5 22.5
s8.16699 12.834 15.5 15.501s14.833 2.5 22.5 -0.5s12.834 -8.16699 15.501 -15.5z" />
    <glyph glyph-name="B" unicode="B" horiz-adv-x="582" 
d="M160 378c2 2 4 3.66504 6 4.99805l14 8c12.667 5.33301 19.334 8.33301 20.001 9c16 10 33 23.333 51 40l35 34c8.66699 8.66699 18.167 18.834 28.5 30.501s18.166 22.5 23.499 32.5s9.83301 20.833 13.5 32.5s5.16699 23.5 4.5 35.5s-3.33398 24.333 -8.00098 37
c-10 25.333 -40.667 35.666 -92 30.999c-48.667 -5.33301 -92.667 -18.666 -132 -39.999c-6.66699 -4 -13.667 -9 -21 -15c4.66699 -16 9.33398 -38.5 14.001 -67.5s7.66699 -47.167 9 -54.5c4 -15.333 10.333 -37.666 19 -66.999c7.33301 -23.333 12.333 -40.333 15 -51z
M171 331.998c3.33301 -14.667 7.66895 -37.335 13.002 -68.002s10.666 -56.667 15.999 -78s11.333 -41.666 18 -60.999l1 1c43.333 6.66699 76.666 12.667 99.999 18c74.667 18 129.334 45 164.001 81c14 14.667 24.833 31.834 32.5 51.501s10.834 38.5 9.50098 56.5
c-2 39.333 -22.333 65 -61 77c-46.667 14.667 -112.334 0.666992 -197.001 -42c-0.666992 0 -2.66699 -1 -6 -3l-13 -7c-4.66699 -3.33301 -9.33398 -6 -14.001 -8l-23 -13c-4 -2 -7.33301 -3.33301 -10 -4c-6 -2.66699 -11.333 -4 -16 -4c-2.66699 0 -5 0.333008 -7 1
c-2.66699 0 -5 0.666992 -7 2zM357.003 464.997c46.667 11.333 88.332 11.666 124.999 0.999023c32 -10 56.5 -26.667 73.5 -50s26.167 -50 27.5 -80c1.33301 -26.667 -3 -53.334 -13 -80.001c-10.667 -27.333 -25.667 -51 -45 -71
c-42.667 -45.333 -106.667 -77.666 -192 -96.999c-24 -5.33301 -55.333 -11.333 -94 -18c-1.33301 -10 -6.33301 -17.333 -15 -22c-7.33301 -3.33301 -14.833 -3.83301 -22.5 -1.5s-13.5 6.83301 -17.5 13.5v1c-19.333 -3.33301 -36.333 -6.66602 -51 -9.99902
c-8 -2 -15.5 -0.833008 -22.5 3.5s-11.333 10.333 -13 18s-0.333984 15 3.99902 22s10.166 11.167 17.499 12.5l41 9c-10 30 -20.5 73.667 -31.5 131s-17.5 90 -19.5 98c-3.33301 14 -9.66602 36.333 -18.999 67c-9.33301 30 -16 54 -20 72
c-3.33301 14.667 -6.66602 32.667 -9.99902 54c-3.33301 22.667 -6 38.667 -8 48c-9.33301 0.666992 -16.666 4.66699 -21.999 12c-4.66699 6 -6.5 13 -5.5 21s4.83301 14.333 11.5 19l5 4c2.66699 8 8 13.667 16 17l6 2c12.667 10 23.667 17.333 33 22
c46.667 26 98 41.667 154 47c81.333 8.66699 132 -14 152 -68c25.333 -66 10.333 -131.667 -45 -197z" />
    <glyph glyph-name="C" unicode="C" horiz-adv-x="635" 
d="M604 583c-0.666992 -1.33301 -0.998047 -2.33301 -0.998047 -3v-4v-10c-2.66699 -22 -13 -35 -31 -39c-7.33301 -2 -14.333 -1.33301 -21 2c-2.66699 1.33301 -5 3 -7 5c-2.66699 2 -5.66699 4.66699 -9 8c-4.66699 4 -10.667 10 -18 18l-16 19l-5 7
c-14 11.333 -41 22.333 -81 33c-66.667 18 -117.667 25 -153 21c-45.333 -5.33301 -83 -29 -113 -71c-28.667 -40 -44.334 -75.333 -47.001 -106c-9.33301 -97.333 4.66699 -174.666 42 -231.999c17.333 -26 41.5 -49.833 72.5 -71.5s64.833 -37.834 101.5 -48.501
c36 -11.333 71.5 -15 106.5 -11s64.833 16 89.5 36c15.333 12.667 27.5 27.167 36.5 43.5s18.833 39.166 29.5 68.499c2.66699 7.33301 7.5 12.666 14.5 15.999s14.333 3.66602 22 0.999023s13.167 -7.5 16.5 -14.5s3.66602 -14.5 0.999023 -22.5
c-7.33301 -20.667 -13.5 -37.167 -18.5 -49.5s-13.333 -27 -25 -44s-25.167 -31.833 -40.5 -44.5c-22.667 -18 -48.5 -31.167 -77.5 -39.5s-57.5 -11.666 -85.5 -9.99902s-56.667 6.5 -86 14.5c-42 12.667 -81.333 31.834 -118 57.501s-65.667 54.5 -87 86.5
c-45.333 68.667 -62.666 158.667 -51.999 270c4 41.333 23 86 57 134c40 56 91.667 87.333 155 94c43.333 5.33301 101.666 -2 174.999 -22c47.333 -13.333 81 -28.333 101 -45c2 -1.33301 6.33301 -5.66602 13 -12.999l8 -9c8 11.333 18.333 15 31 11
c8 -2.66699 13.833 -7.5 17.5 -14.5s4.5 -14.167 2.5 -21.5z" />
    <glyph glyph-name="D" unicode="D" horiz-adv-x="696" 
d="M237 36l6.99805 1.00391h13c8 -0.666992 16 -0.5 24 0.5s15.167 1.83301 21.5 2.5s14 2.83398 23 6.50098s15.833 6.16699 20.5 7.5s12 4.66602 22 9.99902l20 10c3.33301 2 10.5 6.66699 21.5 14s17.667 11.666 20 12.999s9.83301 6.33301 22.5 15l22 15
c64 43.333 109.833 96.666 137.5 159.999s34.834 124.666 21.501 183.999c-12.667 60 -45 109.333 -97 148c-52.667 38.667 -122.667 57.334 -210 56.001c-67.333 -0.666992 -143.666 -11.334 -228.999 -32.001c44 -182.667 78.667 -337.334 104 -464.001l19 -87
c5.33301 -21.333 10 -38 14 -50c0.666992 -4 1.66699 -7.33301 3 -10zM37.998 665.004c-0.666992 7.33301 1 13.999 5 19.999s9.66699 10 17 12c98.667 26 187.334 39.333 266.001 40c100 1.33301 181.667 -21.334 245 -68.001s103 -107.334 119 -182.001
c15.333 -71.333 7 -144 -25 -218s-85 -136 -159 -186c-0.666992 -0.666992 -9 -6.5 -25 -17.5s-25.667 -17.5 -29 -19.5l-28 -17c-14.667 -9.33301 -25.167 -15.166 -31.5 -17.499s-16.5 -6.66602 -30.5 -12.999s-25.833 -10.5 -35.5 -12.5s-21 -3.83301 -34 -5.5
s-25.5 -2.16699 -37.5 -1.5h-7c-5.33301 -0.666992 -9 -1 -11 -1c-13.333 0 -24.666 2.66699 -33.999 8c-6.66699 4 -12.334 11.333 -17.001 22c-2.66699 5.33301 -5.33398 12.333 -8.00098 21l-14 53c-6 25.333 -12.333 55 -19 89
c-26.667 128.667 -62.667 287.334 -108 476.001c-1.33301 6 -1 12 1 18z" />
    <glyph glyph-name="E" unicode="E" horiz-adv-x="540" 
d="M432 346c-9.33301 0 -28.8252 -0.50293 -58.4922 -1.50293s-51.334 -1.66699 -65.001 -2s-32.334 -0.666016 -56.001 -0.999023s-45.334 -0.166016 -65.001 0.500977s-38.834 1.66699 -57.501 3c-0.666992 -15.333 -1 -29.666 -1 -42.999v-151
c0.666992 -21.333 1 -38 1 -50c0.666992 -4 1 -7 1 -9c1.33301 -0.666992 3 -1 5 -1c8.66699 -3.33301 21 -6.33301 37 -9c30 -4 70 -6.66699 120 -8c70 -1.33301 139.667 0 209 4c8 0.666992 15 -1.66602 21 -6.99902s9.33301 -12 10 -20s-1.66602 -15 -6.99902 -21
s-12 -9.33301 -20 -10c-71.333 -4 -143 -5.33301 -215 -4c-50.667 1.33301 -92.667 4.33301 -126 9c-20 2.66699 -36 6.33398 -48 11.001c-18.667 6 -31.334 14.667 -38.001 26c-2 3.33301 -3.33301 7.33301 -4 12c-0.666992 2 -1 4.33301 -1 7
c-0.666992 4.66699 -1 10.334 -1 17.001c-0.666992 12.667 -1.33398 30 -2.00098 52v152c0.666992 32 1.16699 67.167 1.5 105.5s0.666016 70.166 0.999023 95.499s0.5 40.666 0.5 45.999c0 2 -0.666992 11.333 -2 28s-2 30.334 -2 41.001
c1.33301 42.667 15.666 70.334 42.999 83.001c3.33301 2 7.66602 3.33301 12.999 4h11c6 0.666992 14 1 24 1h12h11h8h3c20 0 53.5 -1.33301 100.5 -4s86.333 -3.16699 118 -1.5s61.834 6.83398 90.501 15.501c7.33301 2 14.5 1.16699 21.5 -2.5s11.667 -9.33398 14 -17.001
s1.66602 -15 -2.00098 -22s-9.5 -11.833 -17.5 -14.5c-31.333 -9.33301 -65 -15 -101 -17s-78.833 -1.66699 -128.5 1s-81.5 4 -95.5 4h-3h-8h-10h-13h-22c-2 -0.666992 -3.33301 -1 -4 -1c-4 -4 -6.33301 -14 -7 -30c0 -8.66699 0.666992 -20.334 2 -35.001
c1.33301 -16.667 2 -27.667 2 -33v-27c0 -12.667 -0.166992 -31 -0.5 -55s-0.833008 -45.333 -1.5 -64c19.333 -1.33301 38.833 -2.33301 58.5 -3s41 -0.833984 64 -0.500977s41.667 0.666016 56 0.999023s35.5 1 63.5 2s47.333 1.5 58 1.5c8 0 15 -2.66699 21 -8
s9 -12 9 -20s-2.66699 -15 -8 -21s-12 -9 -20 -9z" />
    <glyph glyph-name="F" unicode="F" horiz-adv-x="487" 
d="M79 559c-0.666992 0.666992 -1.1709 0.99707 -1.50391 0.99707s-0.666016 0.166992 -0.999023 0.5s-1.16602 1 -2.49902 2s-3 2.5 -5 4.5c-14.667 10.667 -21 23.667 -19 39c1.33301 11.333 8.66602 21.333 21.999 30c3.33301 2.66699 7 5.33398 11 8.00098
c-1.33301 10.667 2.33398 19.334 11.001 26.001c6 4.66699 12.833 6.66699 20.5 6s13.834 -3.66699 18.501 -9l41 15c63.333 22.667 108.333 36.334 135 41.001c34.667 5.33301 84.667 8 150 8c8 0 14.833 -2.83301 20.5 -8.5s8.5 -12.5 8.5 -20.5
s-2.83301 -14.833 -8.5 -20.5s-12.5 -8.5 -20.5 -8.5c-62 0 -108.667 -2.66699 -140 -8c-24 -3.33301 -66 -15.666 -126 -36.999l-29 -11c24 -50.667 40.333 -116.667 49 -198l121 30c52 13.333 89.333 22.666 112 27.999c8 2 15.333 0.833008 22 -3.5s11 -10.333 13 -18
s0.833008 -14.834 -3.5 -21.501s-10.166 -11 -17.499 -13l-116 -29c-54.667 -14 -97 -24.333 -127 -31c5.33301 -92 2.33301 -195 -9 -309c-0.666992 -8 -4.16699 -14.5 -10.5 -19.5s-13.5 -7.16699 -21.5 -6.5s-14.5 4.16699 -19.5 10.5s-7.16699 13.5 -6.5 21.5
c10.667 107.333 14 204.333 10 291l-20 -4c-8 -1.33301 -15.333 0.333984 -22 5.00098s-10.667 11 -12 19s0.333984 15.333 5.00098 22s11 10.667 19 12l26 4c-6.66699 62 -17.334 113.667 -32.001 155l-4 -4c-6 -6 -13 -8.66699 -21 -8s-14.667 3.66699 -20 9z" />
    <glyph glyph-name="G" unicode="G" horiz-adv-x="686" 
d="M402 354c39.333 6 83.6611 10.667 132.994 14c32.667 2 59 2.66699 79 2c12.667 -0.666992 23.334 -1.66699 32.001 -3c14 -3.33301 24 -9 30 -17c11.333 -13.333 14.333 -31.333 9 -54c-1.33301 -8 -4.66602 -17.333 -9.99902 -28
c-5.33301 -9.33301 -8.33301 -15 -9 -17c-19.333 -52 -31.333 -112.333 -36 -181c-0.666992 -8 -4 -14.667 -10 -20s-13 -7.66602 -21 -6.99902s-14.667 4 -20 10s-7.66602 13 -6.99902 21v4c-10 -7.33301 -20 -13 -30 -17c-35.333 -15.333 -72 -20.833 -110 -16.5
s-73.667 14.666 -107 30.999s-64.333 37.833 -93 64.5c-44 41.333 -77.333 89 -100 143s-28.334 106.667 -17.001 158c18.667 84.667 45.334 146.334 80.001 185.001c44 48 107.333 72 190 72c1.33301 0 6.33301 0.166992 15 0.5s14.834 0.333008 18.501 0
s9.16699 -1 16.5 -2s14.333 -2.66699 21 -5s13.334 -5.5 20.001 -9.5c11.333 -6 23 -17.667 35 -35c8 -12 16.333 -26.667 25 -44l2 -2c10 22.667 16.333 36 19 40c3.33301 7.33301 9 12 17 14s15.5 1.16699 22.5 -2.5s11.5 -9.5 13.5 -17.5s1 -15.333 -3 -22
c-1.33301 -3.33301 -8.66602 -19.333 -21.999 -48l-13 -30l-5 -9c-0.666992 -2 -1.33398 -3.5 -2.00098 -4.5s-1.33398 -1.83301 -2.00098 -2.5c-0.666992 -1.33301 -1.66699 -2.66602 -3 -3.99902c-0.666992 -0.666992 -1.66699 -1.5 -3 -2.5s-4 -2.33301 -8 -4
s-8 -2.5 -12 -2.5c-7.33301 0.666992 -13.666 3.66699 -18.999 9c-1.33301 1.33301 -2.66602 3 -3.99902 5c-1.33301 1.33301 -2.66602 3.33301 -3.99902 6s-3.33301 7 -6 13l-19 37c-8 16 -15.333 28.667 -22 38c-6.66699 10 -11.667 16 -15 18c-4 2 -7.5 3.5 -10.5 4.5
s-6.83301 1.83301 -11.5 2.5s-8 1 -10 1h-14h-17c-65.333 0 -114.333 -18 -147 -54c-28.667 -30.667 -51 -83 -67 -157c-8 -39.333 -2.83301 -81.333 15.5 -126s46.5 -84.667 84.5 -120c38.667 -36 79.667 -60.333 123 -73s85.333 -11 126 5
c3.33301 1.33301 6.66602 3 9.99902 5l10 6c2.66699 2 6.33398 5 11.001 9l10 9c2 1.33301 5.83301 4.66602 11.5 9.99902s9.16699 9 10.5 11c7.33301 38 17 73.333 29 106c1.33301 4.66699 5 12.667 11 24c3.33301 6 5.33301 10.333 6 13v3
c-4.66699 0.666992 -10.334 1 -17.001 1c-18 0.666992 -42.333 0 -73 -2c-48 -3.33301 -91 -8 -129 -14c-8 -0.666992 -15.167 1.33301 -21.5 6s-10 11 -11 19s0.833008 15.167 5.5 21.5s11 10.166 19 11.499z" />
    <glyph glyph-name="H" unicode="H" horiz-adv-x="582" 
d="M554 664c4 -44 0.331055 -116.003 -11.002 -216.003c-2.66699 -24 -4.66699 -43.333 -6 -58h1c8 -1.33301 14.333 -5.16602 19 -11.499s6.66699 -13.5 6 -21.5c-1.33301 -7.33301 -4.83301 -13.333 -10.5 -18s-12.167 -7 -19.5 -7c-1.33301 -32 -0.333008 -61 3 -87
c2.66699 -25.333 10.667 -66.333 24 -123c12 -54.667 19.667 -97.667 23 -129c0.666992 -8 -1.5 -15.167 -6.5 -21.5s-11.5 -9.83301 -19.5 -10.5s-15.167 1.5 -21.5 6.5s-9.83301 11.5 -10.5 19.5c-2.66699 28 -10 68.667 -22 122
c-13.333 58.667 -21.666 101.334 -24.999 128.001c-3.33301 31.333 -4.33301 65.333 -3 102c-41.333 4.66699 -78 6.66699 -110 6c-11.333 0 -23.333 -0.666992 -36 -2l-42 -5c-15.333 -1.33301 -27.333 -2.33301 -36 -3c-28.667 -2.66699 -53.667 -3.33398 -75 -2.00098
c14.667 -106.667 11 -198.667 -11 -276c-2 -8 -6.5 -13.833 -13.5 -17.5s-14.5 -4.5 -22.5 -2.5s-13.833 6.5 -17.5 13.5s-4.5 14.5 -2.5 22.5c20.667 72.667 23 163.667 7 273c-9.33301 7.33301 -12.666 16.666 -9.99902 27.999c0.666992 3.33301 1.66699 6.33301 3 9
c-0.666992 8 -3.5 25.333 -8.5 52s-8.5 46.334 -10.5 59.001l-6 51c-3.33301 22 -5.66602 42.167 -6.99902 60.5s-2 36.5 -2 54.5c0 8 2.83301 14.833 8.5 20.5s12.5 8.5 20.5 8.5s14.833 -2.83301 20.5 -8.5s8.5 -12.5 8.5 -20.5c0 -17.333 0.666992 -34.666 2 -51.999
s3.33301 -36.166 6 -56.499s5 -37 7 -50s5.16699 -32 9.5 -57s7.5 -42.5 9.5 -52.5c20.667 -2 47 -1.66699 79 1c10 0.666992 22.333 1.66699 37 3l43 5c13.333 1.33301 25.666 2 36.999 2c34.667 0.666992 73.334 -1.33301 116.001 -6
c1.33301 14 3.66602 33.333 6.99902 58c10.667 93.333 14 161 10 203c-0.666992 8 1.5 15.167 6.5 21.5s11.5 9.83301 19.5 10.5s15.167 -1.5 21.5 -6.5s9.83301 -11.5 10.5 -19.5z" />
    <glyph glyph-name="I" unicode="I" horiz-adv-x="506" 
d="M480 57c-31.333 -2.66699 -85.0029 -10.333 -161.003 -23c-73.333 -12 -128.666 -19.667 -165.999 -23c-8 -0.666992 -15.167 1.66602 -21.5 6.99902s-9.83301 11.833 -10.5 19.5s1.66602 14.667 6.99902 21s11.666 9.83301 18.999 10.5c27.333 2.66699 53 5.66699 77 9
c-5.33301 14 -8.66602 34 -9.99902 60c-1.33301 32.667 -2.66602 50.667 -3.99902 54c-10 57.333 -19.667 140.333 -29 249c-8 96 -14.333 162.667 -19 200c-36 -6 -72.667 -9.33301 -110 -10c-8 0 -15 2.66699 -21 8s-9 12 -9 20s2.66699 15 8 21s12 9 20 9
c36.667 0.666992 72.334 3.66699 107.001 9c4 12 12 19 24 21c10.667 1.33301 19.667 -2.33398 27 -11.001c56 12.667 103 30.334 141 53.001c6.66699 4 14 5 22 3s14 -6.33301 18 -13s5 -14 3 -22s-6.33301 -14 -13 -18c-43.333 -26 -96.333 -46 -159 -60
c4.66699 -38 11 -106.333 19 -205c8.66699 -104.667 18.334 -186 29.001 -244c0.666992 -6 2 -26 4 -60c1.33301 -22 3.66602 -37 6.99902 -45l4 -4l5 -5l21 4c72.667 12 128.334 19.667 167.001 23c7.33301 0.666992 14.166 -1.66602 20.499 -6.99902
s9.83301 -11.833 10.5 -19.5s-1.66602 -14.667 -6.99902 -21s-12 -9.83301 -20 -10.5z" />
    <glyph glyph-name="J" unicode="J" horiz-adv-x="456" 
d="M61 672c24 2 54.0039 8.66406 90.0039 19.9971c51.333 15.333 83.666 24.333 96.999 27c17.333 4 36.166 7 56.499 9s42.833 3.66699 67.5 5s42.334 2.66602 53.001 3.99902c8 0.666992 15.167 -1.5 21.5 -6.5s9.83301 -11.5 10.5 -19.5s-1.5 -15.167 -6.5 -21.5
s-11.5 -9.83301 -19.5 -10.5c-14 -1.33301 -34.333 -2.66602 -61 -3.99902s-46.667 -2.66602 -60 -3.99902c14 -34.667 28.833 -82.5 44.5 -143.5s28.5 -122.167 38.5 -183.5c12.667 -81.333 17.334 -149.333 14.001 -204c-5.33301 -72 -25.666 -118 -60.999 -138
c-34.667 -16.667 -73.334 -21 -116.001 -13s-81 24.667 -115 50c-39.333 28.667 -63.333 61.334 -72 98.001c-10 44.667 4 87 42 127c5.33301 6 12 9 20 9s15 -2.66699 21 -8s9 -12 9 -20s-2.66699 -15 -8 -21c-24 -24.667 -33 -49.334 -27 -74.001
c4.66699 -22.667 21 -44 49 -64c27.333 -20.667 58 -34.167 92 -40.5s59.667 -4.16602 77 6.50098c17.333 10 27.666 40.667 30.999 92c3.33301 48.667 -1.33398 112.334 -14.001 191.001c-10.667 67.333 -24.334 131 -41.001 191c-16.667 63.333 -31 108 -43 134
c-8.66699 -2 -36.334 -10 -83.001 -24c-40 -12 -73.667 -19.333 -101 -22c-8 -0.666992 -15.167 1.5 -21.5 6.5s-9.83301 11.5 -10.5 19.5s1.5 15.167 6.5 21.5s11.5 9.83301 19.5 10.5z" />
    <glyph glyph-name="K" unicode="K" horiz-adv-x="615" 
d="M262 458c-5.33301 -4.66699 -13.332 -12.332 -23.999 -22.999l-31 -29c-9.33301 -8.66699 -18.666 -16.667 -27.999 -24l2 -32c2 -50 4 -88.667 6 -116s6.83301 -60.5 14.5 -99.5s18.5 -73.5 32.5 -103.5c2.66699 -7.33301 2.66699 -14.833 0 -22.5s-7.66699 -13 -15 -16
s-14.833 -3.16699 -22.5 -0.5s-13.167 7.66699 -16.5 15c-14.667 34 -26.334 72.5 -35.001 115.5s-14 78.333 -16 106s-4 66.834 -6 117.501c-16 -7.33301 -32.333 -12.666 -49 -15.999c-8 -2 -15.333 -0.833008 -22 3.5s-10.834 10.5 -12.501 18.5
s-0.333984 15.333 3.99902 22s10.5 10.667 18.5 12c20.667 4.66699 40 12.667 58 24c-6 109.333 -22.667 194.333 -50 255c-3.33301 7.33301 -3.66602 14.666 -0.999023 21.999s7.66699 12.666 15 15.999s14.666 3.66602 21.999 0.999023s12.666 -7.66699 15.999 -15
c28 -61.333 45.667 -139.333 53 -234l53 51l5 5c-1.33301 12 3 21.333 13 28c7.33301 5.33301 15.666 6.66602 24.999 3.99902c1.33301 1.33301 13.5 11.333 36.5 30s40.167 33 51.5 43c6 5.33301 16.833 15.833 32.5 31.5s30.834 29.5 45.501 41.5s29.667 22 45 30
c7.33301 3.33301 14.833 3.83301 22.5 1.5s13.167 -7.16602 16.5 -14.499s3.83301 -14.833 1.5 -22.5s-7.16602 -13.167 -14.499 -16.5c-13.333 -6.66699 -25.333 -14.5 -36 -23.5s-23.334 -20.833 -38.001 -35.5c-14 -14.667 -26.333 -26.667 -37 -36l-51 -42
c-22 -18.667 -35 -29.334 -39 -32.001c8.66699 -16 18.334 -36.333 29.001 -61c20.667 -44.667 35 -74.667 43 -90c16.667 -28.667 42.167 -69.5 76.5 -122.5s65 -102.667 92 -149s49.167 -91.166 66.5 -134.499c2.66699 -7.33301 2.5 -14.666 -0.5 -21.999
s-8.16699 -12.5 -15.5 -15.5s-14.666 -3 -21.999 0s-12.666 8.16699 -15.999 15.5c-16.667 42 -37.834 85 -63.501 129s-55.167 92 -88.5 144c-32 49.333 -58.333 91.666 -79 126.999c-10 16.667 -25.333 48 -46 94c-8 18.667 -15 33.667 -21 45z" />
    <glyph glyph-name="L" unicode="L" horiz-adv-x="499" 
d="M118 680c4.66699 -30 7.66699 -63 9 -99s1.5 -66.667 0.5 -92s-2.66699 -58.833 -5 -100.5s-3.83301 -71.834 -4.5 -90.501c0 -8.66699 -0.666992 -24 -2 -46s-2.16602 -38.5 -2.49902 -49.5s0 -24.667 1 -41s3.16699 -30.833 6.5 -43.5c4 -15.333 12 -27.666 24 -36.999
c34 -24.667 83.667 -36 149 -34c13.333 0.666992 28.333 1.83398 45 3.50098s30.834 3.33398 42.501 5.00098l44.5 6.5l41 7c8 0.666992 15.167 -1.33301 21.5 -6s10 -11 11 -19s-0.833008 -15.167 -5.5 -21.5s-11 -10.166 -19 -11.499
c-7.33301 -0.666992 -20.333 -2.33398 -39 -5.00098l-46 -8c-12.667 -2 -27.834 -3.83301 -45.501 -5.5s-33.834 -2.83398 -48.501 -3.50098c-78.667 -2.66699 -140.334 12.666 -185.001 45.999c-23.333 17.333 -38.666 40.333 -45.999 69
c-4 14.667 -6.66699 31.834 -8 51.501s-1.83301 35.667 -1.5 48s1.16602 30 2.49902 53s2 37.5 2 43.5c0.666992 20.667 2.16699 51.667 4.5 93s4 74 5 98s0.833008 52.833 -0.5 86.5s-4.33301 64.5 -9 92.5c-1.33301 8 0.333984 15.333 5.00098 22s11 10.667 19 12
s15.333 -0.333984 22 -5.00098s10.667 -11 12 -19z" />
    <glyph glyph-name="M" unicode="M" horiz-adv-x="884" 
d="M47 65c2.66699 14.667 4.33789 35.9922 5.00488 63.9922c0.666992 34 2 58 4 72c17.333 122.667 28.333 220.667 33 294c1.33301 22 2 76 2 162c0 2 -0.333008 4.66699 -1 8s-1.66699 7.83301 -3 13.5s-2.33301 11.167 -3 16.5c-2.66699 12 -3 21.667 -1 29
c2.66699 10.667 8.33398 18.334 17.001 23.001s18 5.66699 28 3c8 -2.66699 15.333 -7.66699 22 -15c4 -4.66699 8.33301 -10.667 13 -18c7.33301 -12 16 -28.667 26 -50c15.333 -33.333 35 -81.333 59 -144c25.333 -66.667 55 -149.667 89 -249l31 -83l15 -35
c8 18 14 34.667 18 50l32 119c15.333 56 28.166 104.667 38.499 146s18.833 81.333 25.5 120c9.33301 48.667 19.666 90.334 30.999 125.001c6 18 11.333 32 16 42c4 6.66699 8 12 12 16c14 12.667 28 14 42 4c6 -4.66699 11 -11.667 15 -21
c2.66699 -5.33301 5.33398 -12 8.00098 -20c4.66699 -12.667 9.66699 -30 15 -52c2.66699 -9.33301 5.33398 -20.5 8.00098 -33.5s5 -23.833 7 -32.5s3.66699 -14.667 5 -18c14 -48.667 28.333 -110.334 43 -185.001c23.333 -121.333 35 -182.333 35 -183
c1.33301 -4 3.33301 -15 6 -33c3.33301 -22 5.66602 -37 6.99902 -45c3.33301 -17.333 6.66602 -30.666 9.99902 -39.999c0.666992 -2.66699 1.33398 -5 2.00098 -7h6c8 -0.666992 19 -1 33 -1c6.66699 0 14.667 -0.166992 24 -0.5s17 -0.5 23 -0.5h13
c8 -0.666992 14.667 -4 20 -10s7.66602 -13 6.99902 -21s-4 -14.667 -10 -20s-13 -7.66602 -21 -6.99902h-12c-6 0 -13.333 0.166992 -22 0.5s-16.334 0.5 -23.001 0.5c-15.333 0 -27.333 0.333008 -36 1c-6 0.666992 -11 1.33398 -15 2.00098
c-6.66699 0.666992 -12 2 -16 4c-8 4 -14.667 10.667 -20 20l-9 21c-4 12 -7.66699 27.667 -11 47l-8 48c-2 16.667 -3.33301 26.334 -4 29.001c-0.666992 1.33301 -12.667 62.666 -36 183.999c-14 72.667 -28 132.667 -42 180c-0.666992 3.33301 -2.16699 9.5 -4.5 18.5
s-4.83301 20.167 -7.5 33.5l-8 34l-3 9c-8 -29.333 -15.333 -62.333 -22 -99c-7.33301 -39.333 -16.166 -79.833 -26.499 -121.5l-38.5 -148.5l-33 -119c-4.66699 -19.333 -12 -39.666 -22 -60.999c-6 -14.667 -12.333 -26 -19 -34
c-4.66699 -6.66699 -9.66699 -11.667 -15 -15c-10.667 -6.66699 -21.334 -8 -32.001 -4c-6 2 -11.333 5.66699 -16 11c-2 2 -4 4.66699 -6 8c-3.33301 5.33301 -6.66602 12 -9.99902 20c-6.66699 12.667 -14.334 30.334 -23.001 53.001c-12.667 31.333 -23 60 -31 86
c-36.667 106 -66.334 188 -89.001 246c-16.667 44.667 -31.667 82 -45 112c0.666992 -52.667 0 -93.667 -2 -123c-4.66699 -73.333 -15.667 -172.666 -33 -297.999c-2 -13.333 -3.33301 -35 -4 -65c-0.666992 -31.333 -2.33398 -55.666 -5.00098 -72.999
c-1.33301 -7.33301 -5.33301 -13.5 -12 -18.5s-13.834 -6.83301 -21.501 -5.5s-14 5.33301 -19 12s-6.83301 14 -5.5 22z" />
    <glyph glyph-name="N" unicode="N" horiz-adv-x="778" 
d="M67 108c23.333 36.667 39.3281 90.334 47.9951 161.001c2.66699 22 5.66699 53 9 93c3.33301 42 6.33301 72.667 9 92c12 85.333 18.333 129.333 19 132c3.33301 22.667 6.66602 40 9.99902 52c2.66699 8 5.33398 14.5 8.00098 19.5s6 8.83301 10 11.5
c8.66699 6.66699 18 8.66699 28 6c12 -3.33301 23 -12.666 33 -27.999c6.66699 -9.33301 13.334 -21.333 20.001 -36c4.66699 -9.33301 9.83398 -21 15.501 -35s8.83398 -22 9.50098 -24c15.333 -33.333 34.333 -69.5 57 -108.5s41.667 -70.5 57 -94.5l69 -104
c12 -18 30.667 -43.667 56 -77l16 -21c1.33301 7.33301 2.33301 15.333 3 24c3.33301 35.333 5.33301 83.333 6 144c0.666992 39.333 -0.333008 121.666 -3 246.999c-0.666992 32.667 -0.666992 56.667 0 72c0.666992 18 2.33398 32.667 5.00098 44
c4.66699 20 13.334 33.667 26.001 41c7.33301 3.33301 16 4.66602 26 3.99902c6 -0.666992 13.333 -1.66699 22 -3c12 -2.66699 28.333 -7 49 -13c52.667 -15.333 79.334 -23 80.001 -23c8 -1.33301 14.333 -5.33301 19 -12s6.33398 -14 5.00098 -22
s-5.33301 -14.333 -12 -19s-14 -6.33398 -22 -5.00098c-3.33301 0.666992 -32 9 -86 25c-19.333 6 -34.333 10 -45 12c-2 0.666992 -4 1 -6 1c-1.33301 -7.33301 -2.33301 -18.333 -3 -33c-0.666992 -12.667 -0.666992 -35 0 -67c2.66699 -122.667 3.66699 -206 3 -250
c-0.666992 -62 -2.66699 -111.667 -6 -149c-2.66699 -22.667 -5.66699 -41 -9 -55c-4.66699 -20.667 -12 -35 -22 -43c-8 -6 -17 -7.66699 -27 -5c-3.33301 1.33301 -6.33301 3 -9 5c-2.66699 1.33301 -5.33398 3.33301 -8.00098 6c-3.33301 3.33301 -8 8.33301 -14 15
c-8.66699 10.667 -20 25.667 -34 45c-26.667 35.333 -46 62 -58 80l-69 105c-16 24 -35.667 56.333 -59 97s-43 78.334 -59 113.001c-1.33301 2 -4.66602 9.5 -9.99902 22.5s-10 23.833 -14 32.5l-1 -6c-0.666992 -2.66699 -6.66699 -46.334 -18 -131.001
c-2.66699 -20.667 -5.66699 -51 -9 -91c-3.33301 -40.667 -6.33301 -71.667 -9 -93c-10 -78.667 -28.667 -140 -56 -184c-4.66699 -6.66699 -10.834 -11 -18.501 -13s-14.834 -0.833008 -21.501 3.5s-11 10.333 -13 18s-1 14.834 3 21.501z" />
    <glyph glyph-name="O" unicode="O" horiz-adv-x="680" 
d="M436 662c-2 -2 -3.66602 -3.33105 -4.99902 -3.99805c-0.666992 -0.666992 -1.66699 -1.5 -3 -2.5s-3.83301 -2.16699 -7.5 -3.5s-7.5 -2 -11.5 -2c-14 0.666992 -22.667 7.66699 -26 21c-0.666992 2 -1 4 -1 6c-58.667 -4.66699 -109.667 -30.834 -153 -78.501
s-71.333 -104.834 -84 -171.501c-14 -78.667 -3 -147.334 33 -206.001c41.333 -65.333 109.333 -105.666 204 -120.999c45.333 -7.33301 90 5.66699 134 39c43.333 33.333 74 74.333 92 123c19.333 53.333 20.333 126 3 218c-13.333 70.667 -47 122.667 -101 156
c-32.667 20 -57.334 28.667 -74.001 26zM572.001 662.002c50.667 -42.667 83.0029 -100.001 97.0029 -172.001c18.667 -102 16.334 -184.667 -6.99902 -248c-10 -27.333 -24.5 -53.666 -43.5 -78.999s-40.833 -48 -65.5 -68s-52.834 -35 -84.501 -45
s-63.167 -12.667 -94.5 -8c-112.667 17.333 -194.334 67 -245.001 149c-44 71.333 -57.667 153.666 -41 246.999c8 41.333 22.167 81 42.5 119s45.333 71.5 75 100.5s65.167 50.5 106.5 64.5s84.333 17.667 129 11c6 -1.33301 11.333 -4 16 -8c11.333 0 25 -0.333008 41 -1
c43.333 -2 71.666 -3.33301 84.999 -4c8 -0.666992 14.667 -4 20 -10s7.66602 -13 6.99902 -21s-4 -14.667 -10 -20s-13 -7.66602 -21 -6.99902h-7z" />
    <glyph glyph-name="P" unicode="P" horiz-adv-x="615" 
d="M150 324c-2.66699 -153.333 -5.6709 -244.667 -9.00391 -274c-1.33301 -8 -5.16602 -14.333 -11.499 -19s-13.5 -6.5 -21.5 -5.5s-14.333 4.66699 -19 11s-6.66699 13.5 -6 21.5c1.33301 10.667 2.5 23.334 3.5 38.001s1.83301 32.167 2.5 52.5s1.16699 38.5 1.5 54.5
s0.666016 38 0.999023 66s0.5 50 0.5 66l-30 6c-8 1.33301 -14.167 5.33301 -18.5 12s-5.66602 14 -3.99902 22s5.83398 14.167 12.501 18.5s14 5.5 22 3.5l19 -4c2 75.333 5.66699 135.333 11 180c6.66699 62.667 18 106.334 34 131.001c14.667 23.333 34 39.666 58 48.999
s51.333 16 82 20c84.667 10 158.334 -3.33301 221.001 -40c38 -22.667 69.333 -62 94 -118c24.667 -58.667 30.334 -109.334 17.001 -152.001c-12 -35.333 -32.667 -65.5 -62 -90.5s-62.333 -41.833 -99 -50.5c-14 -3.33301 -29.833 -5.83301 -47.5 -7.5
s-31.167 -2.66699 -40.5 -3s-25.833 -0.333008 -49.5 0s-36.5 0.5 -38.5 0.5c-36 0 -77 4 -123 12zM150.996 381.999c46.667 -8 87.3369 -11.9971 122.004 -11.9971c6.66699 0 17.667 -0.166992 33 -0.5s27.166 -0.333008 35.499 0s18.666 0.666016 30.999 0.999023
s23.5 1.16602 33.5 2.49902s19.667 3 29 5c28 6.66699 52.833 19.167 74.5 37.5s36.5 40.166 44.5 65.499c10 28.667 5 65.667 -15 111c-18.667 44.667 -42 75 -70 91c-50.667 30 -112.334 40.667 -185.001 32c-50.667 -6 -83.334 -20.333 -98.001 -43
c-10.667 -16.667 -19 -51.667 -25 -105c-4.66699 -44.667 -8 -104.667 -10 -180v-5z" />
    <glyph glyph-name="Q" unicode="Q" horiz-adv-x="732" 
d="M500 116c44 36 74.668 88.332 92.001 156.999c19.333 75.333 17.666 150.333 -5.00098 225s-62.667 128.667 -120 162c-6.66699 3.33301 -11 8.33301 -13 15c-39.333 18.667 -82.166 23.334 -128.499 14.001s-86.833 -30.333 -121.5 -63
c-38 -36 -65.833 -80.5 -83.5 -133.5s-23.167 -106.5 -16.5 -160.5c6 -56 24.167 -105.333 54.5 -148s71.166 -73.334 122.499 -92.001c63.333 -22.667 119.666 -24.334 168.999 -5.00098c-20 24.667 -45.333 66 -76 124c-3.33301 7.33301 -3.83301 14.833 -1.5 22.5
s7 13.334 14 17.001s14.333 4.33398 22 2.00098s13.5 -6.83301 17.5 -13.5c30.667 -58.667 55.334 -99.667 74.001 -123zM492.001 41.999c-67.333 -34 -144.334 -35.3291 -231.001 -3.99609c-62.667 22.667 -112.334 60 -149.001 112
c-36.667 51.333 -58.667 109.666 -66 174.999c-7.33301 62.667 -0.666016 125 20.001 187c20.667 61.333 53.334 113.333 98.001 156c28 26.667 60.667 47.167 98 61.5s75 21.666 113 21.999s75 -8.66699 111 -27s65.667 -45.5 89 -81.5l1 -1
c27.333 -32.667 48.5 -71.334 63.5 -116.001s22.667 -89.334 23 -134.001s-4.16699 -89 -13.5 -133c-20 -78 -55.333 -138.667 -106 -182c38.667 -24.667 88.667 -25 150 -1c8 2.66699 15.667 2.5 23 -0.5s12.333 -8.33301 15 -16s2.5 -15.167 -0.5 -22.5
s-8.16699 -12.333 -15.5 -15c-87.333 -34 -160 -28.333 -218 17z" />
    <glyph glyph-name="R" unicode="R" horiz-adv-x="817" 
d="M406 334c-43.333 -22.667 -78.999 -36.999 -106.999 -42.999c-41.333 -9.33301 -93.666 -14.333 -156.999 -15c0 -1.33301 2.66699 -44 8 -128c3.33301 -56.667 7.66602 -102.334 12.999 -137.001c0.666992 -8 -1.33301 -15.167 -6 -21.5s-11 -10 -19 -11
s-15.167 0.833008 -21.5 5.5s-10.166 11 -11.499 19c-4.66699 33.333 -9 80.666 -13 141.999c-5.33301 84 -8 127.667 -8 131c-7.33301 0.666992 -13.5 3.83398 -18.5 9.50098s-7.5 12.167 -7.5 19.5c0 14.667 7 24 21 28l-26 315h-3
c-8 0.666992 -14.833 3.83398 -20.5 9.50098s-8.16699 12.5 -7.5 20.5s3.83398 14.833 9.50098 20.5s12.5 8.16699 20.5 7.5h2c5.33301 8.66699 13 13.334 23 14.001s18 -2.66602 24 -9.99902c8 1.33301 17.667 3.33301 29 6c51.333 12.667 80 19.667 86 21
c47.333 9.33301 98.333 9.33301 153 0s102.667 -28.666 144 -57.999c22 -16 43 -36.167 63 -60.5s31.667 -48.833 35 -73.5c3.33301 -29.333 -9.33398 -60.333 -38.001 -93c-21.333 -24 -51 -48.333 -89 -73l-27 -17c14 -17.333 28 -37.5 42 -60.5s25 -41.833 33 -56.5
l34 -68c14.667 -30.667 24.334 -50.334 29.001 -59.001c30.667 -60.667 61.5 -110.834 92.5 -150.501s69.5 -71.5 115.5 -95.5c6.66699 -4 11.167 -9.83301 13.5 -17.5s1.66602 -15 -2.00098 -22s-9.33398 -11.667 -17.001 -14s-15.167 -1.83301 -22.5 1.5
c-27.333 15.333 -52.833 33.166 -76.5 53.499s-45 43.166 -64 68.499s-35.167 49 -48.5 71s-27.666 48 -42.999 78l-31 64l-36 69c-6.66699 13.333 -16.834 31 -30.501 53s-26.834 41 -39.501 57zM367.001 379.001c-3.33301 11.333 -1.00195 21.001 6.99805 29.001
c5.33301 6 12 9 20 9s15 -2.66699 21 -8l3 -3c12 6.66699 23.667 13.667 35 21c33.333 22 59 43.333 77 64c16.667 19.333 24.334 34.666 23.001 45.999c-1.33301 14 -9.5 30 -24.5 48s-31.5 33.333 -49.5 46c-34 24.667 -74 41 -120 49s-90.333 7.66699 -133 -1
c-5.33301 -0.666992 -32.666 -7.33398 -81.999 -20.001c-12 -2.66699 -23 -5 -33 -7l26 -318c62.667 0.666992 112.667 5 150 13c19.333 4.66699 46 15.334 80 32.001z" />
    <glyph glyph-name="S" unicode="S" horiz-adv-x="597" 
d="M441 586c-5.33301 13.333 -12.6611 22.333 -21.9941 27c-8 4.66699 -23.333 8.66699 -46 12c-65.333 10.667 -117 5.66699 -155 -15c-40 -22 -61 -63.667 -63 -125c0 -5.33301 -0.333008 -11.833 -1 -19.5s-1 -12.334 -1 -14.001s0.333008 -5.5 1 -11.5
c6.66699 -28 23.667 -47 51 -57c18.667 -6.66699 56.667 -12.334 114 -17.001c19.333 -1.33301 34.666 -2.66602 45.999 -3.99902s26.666 -3.83301 45.999 -7.5s35.833 -8.33398 49.5 -14.001s28.334 -13 44.001 -22s29.667 -20.5 42 -34.5s23.5 -30.333 33.5 -49
c7.33301 -14 12.666 -30.333 15.999 -49s3 -37.334 -1 -56.001c-11.333 -37.333 -41 -77.333 -89 -120c-28.667 -25.333 -59.667 -43.833 -93 -55.5s-65.666 -16.5 -96.999 -14.5c-32 1.33301 -63.667 8.33301 -95 21c-45.333 18 -86.333 45.333 -123 82
c-36 36.667 -63.333 78.334 -82 125.001c-2.66699 7.33301 -2.5 14.666 0.5 21.999s8.16699 12.5 15.5 15.5s14.666 3 21.999 0s12.666 -8.16699 15.999 -15.5c16 -39.333 39.333 -74.666 70 -105.999s64.667 -54.333 102 -69c35.333 -16 73.333 -21.167 114 -15.5
s78 23.834 112 54.501c39.333 35.333 63 66 71 92c2 6.66699 1.83301 16.5 -0.5 29.5s-5.83301 24.167 -10.5 33.5c-10 19.333 -22.333 35.5 -37 48.5s-32.334 22.833 -53.001 29.5s-39.334 11.334 -56.001 14.001c-16 2.66699 -38.667 5 -68 7
c-62 4.66699 -105 11.667 -129 21c-46.667 16.667 -75.667 49 -87 97c-2 6.66699 -3 13.834 -3 21.501s0.333008 16.167 1 25.5l1 14c2.66699 82.667 33.667 140.667 93 174c49.333 27.333 113.666 34.666 192.999 21.999c28.667 -4.66699 50 -11 64 -19
c22 -11.333 38 -30 48 -56c2.66699 -8 2.5 -15.667 -0.5 -23s-8.33301 -12.333 -16 -15s-15.167 -2.5 -22.5 0.5s-12.333 8.16699 -15 15.5z" />
    <glyph glyph-name="T" unicode="T" horiz-adv-x="476" 
d="M260 653c-86 -9.33301 -159.67 -26.0049 -221.003 -50.0049c-8 -2.66699 -15.667 -2.5 -23 0.5s-12.333 8.33301 -15 16s-2.5 15.167 0.5 22.5s8.16699 12.333 15.5 15c33.333 12.667 67.333 23.334 102 32.001s73.334 15.334 116.001 20.001s76 7.83398 100 9.50098
s61 3.83398 111 6.50098c8 0.666992 15 -1.66602 21 -6.99902s9.33301 -12 10 -20s-1.66602 -15 -6.99902 -21s-12 -9.33301 -20 -10c-60.667 -3.33301 -104.667 -6 -132 -8c5.33301 -43.333 6.33301 -99.666 3 -168.999
c-5.33301 -104.667 -7.66602 -163.334 -6.99902 -176.001c0.666992 -28 4.33398 -69.667 11.001 -125c7.33301 -56 11 -99.667 11 -131c0 -8 -2.83301 -14.833 -8.5 -20.5s-12.5 -8.5 -20.5 -8.5s-14.833 2.83301 -20.5 8.5s-8.5 12.5 -8.5 20.5
c0 28.667 -3.33301 70 -10 124c-7.33301 58.667 -11.333 102 -12 130c-0.666992 18 1.66602 78.333 6.99902 181c3.33301 66.667 2.33301 120 -3 160z" />
    <glyph glyph-name="U" unicode="U" horiz-adv-x="734" 
d="M155 686c4 -40 3 -91.9971 -3 -155.997c-8 -86.667 -12.333 -136.334 -13 -149.001c-2.66699 -80 7 -146 29 -198c27.333 -64 72.333 -98.667 135 -104c49.333 -4 88 13.667 116 53c16.667 22.667 31.167 48.167 43.5 76.5s21.833 53.5 28.5 75.5s12.667 51.833 18 89.5
s9 65.5 11 83.5s4.66699 48.667 8 92c0 2.66699 -0.666992 18 -2 46s1 48 7 60c8 18.667 23 30.667 45 36c14 4 31.333 5 52 3c11.333 -1.33301 27 -4 47 -8c16.667 -3.33301 27 -5 31 -5c8 -0.666992 14.667 -4 20 -10s7.66602 -13 6.99902 -21s-4 -14.667 -10 -20
s-13 -7.66602 -21 -6.99902c-6.66699 0.666992 -19.334 2.66699 -38.001 6c-18 4 -32 6.33301 -42 7c-13.333 1.33301 -23.666 1 -30.999 -1c-4 -0.666992 -6.66699 -2 -8 -4c-1.33301 -3.33301 -1.66602 -14.333 -0.999023 -33c2 -30.667 2.66699 -48.334 2 -53.001
c-0.666992 -4 -1.33398 -9.66699 -2.00098 -17c-2.66699 -38.667 -5.16699 -68.334 -7.5 -89.001s-6.33301 -49.167 -12 -85.5s-12.334 -66.833 -20.001 -91.5s-18.167 -52 -31.5 -82s-28.666 -57.333 -45.999 -82c-41.333 -57.333 -97.333 -83 -168 -77
c-86.667 7.33301 -148 53.666 -184 138.999c-25.333 60 -36.666 134.333 -33.999 223c0.666992 16.667 5 67.667 13 153c6 62 7 110 3 144c-0.666992 8 1.5 15.167 6.5 21.5s11.5 9.83301 19.5 10.5s15.167 -1.5 21.5 -6.5s9.83301 -11.5 10.5 -19.5z" />
    <glyph glyph-name="V" unicode="V" horiz-adv-x="504" 
d="M52 739c37.333 -53.333 76.0049 -139.665 116.005 -258.998c4.66699 -12.667 14 -41.334 28 -86.001s25.667 -80.167 35 -106.5s19.333 -50.833 30 -73.5c6.66699 -16 22.334 -47 47.001 -93c12 -22 21 -38 27 -48c4.66699 8.66699 9 20 13 34
c5.33301 17.333 10.666 44.666 15.999 81.999c2 12.667 5 47.667 9 105c6 100.667 9.33301 157.334 10 170.001c5.33301 70 10.333 124 15 162c2.66699 23.333 5.66699 42.333 9 57c2 8.66699 4 15.667 6 21c4 10 9.33301 17.333 16 22c8.66699 6 19.667 8.66699 33 8
c2 0 3.83301 -0.166992 5.5 -0.5l2.5 -0.5h2h2c8 0.666992 15 -1.66602 21 -6.99902s9.33301 -12 10 -20s-1.66602 -15 -6.99902 -21s-12 -9.33301 -20 -10h-13l-2 -4c-2.66699 -11.333 -5.33398 -28.666 -8.00098 -51.999c-4.66699 -40 -9.33398 -93 -14.001 -159
c-0.666992 -12.667 -4.33398 -69.334 -11.001 -170.001c-4.66699 -66 -7.33398 -102.333 -8.00098 -109c-6 -40 -12 -70 -18 -90c-6 -22 -13.333 -39.333 -22 -52c-13.333 -20.667 -30 -32.334 -50 -35.001c-6.66699 -0.666992 -13 0.666016 -19 3.99902
c-2 1.33301 -4.16699 3.16602 -6.5 5.49902s-4.5 4.83301 -6.5 7.5l-13 19c-8 13.333 -18 31.333 -30 54c-24.667 45.333 -41.334 77.333 -50.001 96c-7.33301 18 -15.5 39.167 -24.5 63.5s-16.5 45.833 -22.5 64.5l-24 74l-23 70c-38 114 -74.333 195 -109 243
c-4.66699 6.66699 -6.33398 14 -5.00098 22s5.33301 14.333 12 19s14 6.33398 22 5.00098s14.333 -5.33301 19 -12z" />
    <glyph glyph-name="W" unicode="W" horiz-adv-x="973" 
d="M74 681c29.333 -64.667 56.666 -149.992 81.999 -255.992l14 -61l16 -68l15.5 -59c6.33301 -24 12.833 -45.667 19.5 -65c14.667 -45.333 25.667 -76.333 33 -93c8.66699 -18.667 16.667 -31.667 24 -39h1c9.33301 9.33301 19 30 29 62c10.667 33.333 21 78 31 134
c7.33301 42 15 92 23 150c8.66699 60 13 91.333 13 94c6.66699 37.333 12.667 68.333 18 93c5.33301 22.667 10.666 41 15.999 55c3.33301 9.33301 7 17 11 23c7.33301 10.667 16 17.334 26 20.001c12.667 3.33301 24.334 0.666016 35.001 -8.00098
c6.66699 -4.66699 12.667 -11.334 18 -20.001c8 -11.333 15.333 -27.333 22 -48c7.33301 -20.667 14.333 -47 21 -79l46 -213c12.667 -54 23 -96.333 31 -127l4 -14c4.66699 10.667 9.66699 24 15 40c10 27.333 22.667 69.333 38 126c14 53.333 26.667 108.333 38 165
c0.666992 7.33301 3 26.666 7 57.999c3.33301 30.667 7.33301 55.334 12 74.001c16 68.667 46.333 109.334 91 122.001c18 4.66699 41 5 69 1c8 -1.33301 18.5 -3.33301 31.5 -6s21.5 -4.33398 25.5 -5.00098c8 -2 14.333 -6.16699 19 -12.5s6.16699 -13.5 4.5 -21.5
s-5.66699 -14.333 -12 -19s-13.5 -6.33398 -21.5 -5.00098c-4 0.666992 -12.333 2.5 -25 5.5s-23 4.83301 -31 5.5c-20 3.33301 -34.667 3.66602 -44 0.999023c-23.333 -6.66699 -40.333 -33 -51 -79c-3.33301 -16.667 -6.66602 -39 -9.99902 -67c-4 -33.333 -7 -54 -9 -62
c-11.333 -60 -24 -116.333 -38 -169c-15.333 -57.333 -28.333 -101 -39 -131c-10 -30 -19.667 -53 -29 -69c-6.66699 -11.333 -13.667 -19.666 -21 -24.999c-13.333 -11.333 -27.666 -14 -42.999 -8c-5.33301 2.66699 -9.66602 6.66699 -12.999 12
c-2 2 -3.66699 4.66699 -5 8c-2 4 -4 9 -6 15c-4 10.667 -8.33301 25.667 -13 45c-8.66699 31.333 -19 74.666 -31 129.999l-46 213c-6.66699 28.667 -13.334 52.667 -20.001 72c-2 7.33301 -4.33301 13.666 -7 18.999c-3.33301 -10 -6.33301 -21.667 -9 -35
c-5.33301 -23.333 -11 -53.333 -17 -90c-0.666992 -2 -5 -33.333 -13 -94c-8.66699 -58.667 -16.667 -108.667 -24 -150c-10.667 -60 -21.667 -107.333 -33 -142c-16 -49.333 -34.333 -81 -55 -95c-12.667 -8.66699 -26 -11.334 -40 -8.00098
c-10.667 2.66699 -20.667 8.66699 -30 18c-12.667 12 -24.667 30.667 -36 56c-8.66699 18 -21 51 -37 99c-6 19.333 -12.333 41.333 -19 66l-16 60l-16 70c-7.33301 31.333 -12 52 -14 62c-24.667 103.333 -50.667 185 -78 245
c-3.33301 7.33301 -3.66602 14.666 -0.999023 21.999s7.66699 12.666 15 15.999s14.666 3.66602 21.999 0.999023s12.666 -7.66699 15.999 -15z" />
    <glyph glyph-name="X" unicode="X" horiz-adv-x="582" 
d="M553 727c-24.667 -37.333 -52.0068 -90.335 -82.0068 -159.002c-37.333 -86 -63.666 -143 -78.999 -171c-6 -11.333 -13.333 -23.666 -22 -36.999l36 -54l83 -135c32 -52 61.333 -95 88 -129c4.66699 -6.66699 6.5 -14 5.5 -22s-4.66699 -14.333 -11 -19
s-13.5 -6.5 -21.5 -5.5s-14.333 4.5 -19 10.5c-27.333 36 -57.666 80.667 -90.999 134l-84 136l-21 32c-10.667 -14.667 -19 -27.334 -25 -38.001l-39 -66c-18.667 -32 -34.334 -57.833 -47.001 -77.5s-28.667 -43 -48 -70s-39.5 -50.5 -60.5 -70.5s-42.833 -37 -65.5 -51
c-6.66699 -4 -14 -5 -22 -3s-14 6.33301 -18 13s-5 14 -3 22s6.33301 14 13 18c20 12 39 26.667 57 44s35.833 38.333 53.5 63s32.334 46.167 44.001 64.5s26.834 43.5 45.501 75.5l40 68l40 60l-71 107c-5.33301 8.66699 -15 25.334 -29 50.001
c-12.667 22.667 -22.667 40 -30 52c-24 36.667 -47.333 59.667 -70 69c-11.333 5.33301 -36.666 4 -75.999 -4c-4 -0.666992 -6.66699 -1 -8 -1c-8 -2 -15.333 -0.666992 -22 4s-10.834 10.834 -12.501 18.501s-0.166992 14.834 4.5 21.501s10.667 10.667 18 12
c1.33301 0.666992 5.33301 1.66699 12 3s12 2.33301 16 3s9.5 1.66699 16.5 3s13.333 2 19 2s12 -0.166992 19 -0.5s13.5 -1.16602 19.5 -2.49902s12 -3 18 -5c32.667 -14.667 64 -45.334 94 -92.001c8.66699 -12.667 19.334 -31 32.001 -55l27 -46l58 -86l7 12
c14 26 39.333 81.333 76 166c31.333 72 60.333 128 87 168c4.66699 6.66699 10.834 10.834 18.501 12.501s14.834 0.166992 21.501 -4.5s10.834 -10.834 12.501 -18.501s0.166992 -14.834 -4.5 -21.501z" />
    <glyph glyph-name="Y" unicode="Y" horiz-adv-x="662" 
d="M349 307l144 -257.001c4 -6.66699 5 -14 3 -22s-6.5 -13.833 -13.5 -17.5s-14.5 -4.5 -22.5 -2.5s-13.667 6.66699 -17 14l-97 174l-91 155c-39.333 66.667 -76.5 125.834 -111.5 177.501s-70.833 100.5 -107.5 146.5c-4.66699 6.66699 -6.5 13.834 -5.5 21.501
s4.66699 14 11 19s13.333 7 21 6s14.167 -4.5 19.5 -10.5c73.333 -93.333 151.666 -210.333 234.999 -351l73 82l69 77c17.333 19.333 42.5 51 75.5 95s58.833 76.667 77.5 98c5.33301 6 12 9.33301 20 10s15 -1.66602 21 -6.99902s9.33301 -12 10 -20
s-1.66602 -15 -6.99902 -21c-18 -20.667 -43.333 -52.334 -76 -95.001c-33.333 -44.667 -59 -77.334 -77 -98.001l-73 -81c-35.333 -39.333 -62.333 -70.333 -81 -93z" />
    <glyph glyph-name="Z" unicode="Z" horiz-adv-x="581" 
d="M109 678c20.667 2 52.0049 1.99609 94.0049 -0.00390625c38 -1.33301 66.667 -1 86 1c8.66699 0.666992 24.667 3.33398 48 8.00098c26.667 5.33301 47 9 61 11c56.667 6.66699 98.667 -1 126 -23c18.667 -15.333 27 -33 25 -53c-0.666992 -10 -6.33398 -23 -17.001 -39
c-7.33301 -11.333 -18 -25.666 -32 -42.999c-22.667 -28.667 -54 -65.334 -94 -110.001l-164 -179c-1.33301 -2 -6 -7 -14 -15l-24 -26l-26 -27c-14 -16.667 -24.667 -30.334 -32 -41.001c-1.33301 -2.66699 -2.66602 -5 -3.99902 -7c8 -3.33301 20 -6.33301 36 -9
c32 -5.33301 77 -8.66602 135 -9.99902c38 -0.666992 87.333 -0.666992 148 0c54 1.33301 85.333 1.66602 94 0.999023c8 -0.666992 14.667 -4 20 -10s7.66602 -13 6.99902 -21s-4 -14.667 -10 -20s-13 -7.66602 -21 -6.99902
c-6.66699 0.666992 -36.334 0.333984 -89.001 -0.999023c-61.333 -0.666992 -111.333 -0.666992 -150 0c-60.667 1.33301 -108.334 4.66602 -143.001 9.99902c-22 4 -39.667 8.66699 -53 14c-21.333 10 -33.333 23.667 -36 41c-0.666992 8.66699 1 18.334 5 29.001
c3.33301 6.66699 7.66602 14.334 12.999 23.001c8.66699 12.667 21 28 37 46c7.33301 8.66699 15.666 17.667 24.999 27l25 28l15 15l163 177c38.667 43.333 69.334 79.333 92.001 108l29 39c3.33301 6 5.33301 10 6 12l-2 2c-15.333 12 -43 15.667 -83 11
c-12.667 -1.33301 -31.334 -4.66602 -56.001 -9.99902c-26 -4.66699 -44 -7.66699 -54 -9c-22 -2 -53.667 -2.33301 -95 -1c-38.667 2 -67 2 -85 0c-8 -0.666992 -15.167 1.5 -21.5 6.5s-9.83301 11.5 -10.5 19.5s1.5 15.167 6.5 21.5s11.5 9.83301 19.5 10.5z" />
    <glyph glyph-name="bracketleft" unicode="[" horiz-adv-x="201" 
d="M146 637c-16 0 -28 -4.00195 -36 -12.002s-14 -20.333 -18 -37c-1.33301 -8.66699 -2.5 -18.5 -3.5 -29.5s-1.5 -20.667 -1.5 -29s0.166992 -19.333 0.5 -33s0.5 -23.834 0.5 -30.501c0 -28.667 2 -68.334 6 -119.001c4.66699 -60 7.33398 -100.667 8.00098 -122v-40
c0 -19.333 -0.333008 -43.666 -1 -72.999s-1 -54.666 -1 -75.999c-0.666992 -45.333 -0.333984 -81.333 0.999023 -108c0 -15.333 0.666992 -27.333 2 -36l1 -11c2.66699 -3.33301 9.66699 -5.66602 21 -6.99902c6.66699 -0.666992 15 -1 25 -1
c14 -0.666992 22.333 -1 25 -1c8 -0.666992 14.667 -4 20 -10s7.66602 -13 6.99902 -21s-4 -14.667 -10 -20s-13 -7.66602 -21 -6.99902c-2 0 -9.16699 0.166992 -21.5 0.5s-22.833 0.833008 -31.5 1.5c-32.667 4.66699 -54.667 17.667 -66 39
c-3.33301 6 -5.66602 16.333 -6.99902 31c-1.33301 10 -2 23.667 -2 41c-1.33301 26.667 -1.66602 63.334 -0.999023 110.001c0 20.667 0.333008 45.667 1 75s1 53.333 1 72v39c-0.666992 16.667 -3.33398 56.667 -8.00098 120c-4 52 -6 93 -6 123
c0 4.66699 -0.166992 14.167 -0.5 28.5s-0.5 26.166 -0.5 35.499s0.5 20.833 1.5 34.5s2.83301 25.5 5.5 35.5c6 28 17 50 33 66c19.333 19.333 45 29 77 29c8 0 14.833 -2.83301 20.5 -8.5s8.5 -12.5 8.5 -20.5s-2.83301 -14.833 -8.5 -20.5s-12.5 -8.5 -20.5 -8.5z" />
    <glyph glyph-name="backslash" unicode="\" horiz-adv-x="304" 
d="M34 673c16.667 -28 32.498 -57.6689 47.498 -89.002s26.167 -56.333 33.5 -75l33 -87l32 -82l66 -160c30 -68.667 49 -113 57 -133c2.66699 -7.33301 2.5 -14.666 -0.5 -21.999s-8.16699 -12.5 -15.5 -15.5s-14.666 -3 -21.999 0s-12.666 8.16699 -15.999 15.5l-57 133
c-29.333 68.667 -51.333 122 -66 160l-32 84l-33 85c-7.33301 18 -18 41.833 -32 71.5s-29 57.834 -45 84.501c-4 6.66699 -5 14 -3 22s6.33301 14 13 18s14 5 22 3s14 -6.33301 18 -13z" />
    <glyph glyph-name="bracketright" unicode="]" horiz-adv-x="183" 
d="M16 692l57.999 8.00293c14.667 0.666992 27.334 0.333984 38.001 -0.999023c18 -3.33301 31.333 -10.333 40 -21s14.334 -29 17.001 -55c2.66699 -18 4 -40.667 4 -68c0 -18 -0.333008 -41 -1 -69s-1 -44 -1 -48c0 -52 1.83301 -129.667 5.5 -233s5.5 -181 5.5 -233
c0 -2.66699 0.5 -13 1.5 -31s1.5 -33 1.5 -45c-0.666992 -19.333 -2.66699 -35.333 -6 -48c-6 -20.667 -16 -35.334 -30 -44.001c-12 -7.33301 -28 -11.333 -48 -12c-17.333 0 -27.333 -0.333008 -30 -1c-7.33301 -2 -14.5 -0.833008 -21.5 3.5s-11.333 10.333 -13 18
s-0.333984 15 3.99902 22s10.5 11.167 18.5 12.5c6 1.33301 19.667 2.33301 41 3c9.33301 0.666992 15.666 2 18.999 4c2 4.66699 3.33301 7.66699 4 9c2 8.66699 3.33301 20 4 34c0 10.667 -0.333008 24.334 -1 41.001c-1.33301 19.333 -2 30.666 -2 33.999
c0 52 -1.83301 129.667 -5.5 233s-5.5 181 -5.5 233c0 4 0.333008 20 1 48s1 51 1 69c0 25.333 -1 45.666 -3 60.999c-1.33301 11.333 -3 19.666 -5 24.999c-1.33301 0 -2.66602 0.333008 -3.99902 1c-6.66699 0.666992 -15 0.666992 -25 0
c-3.33301 0 -21.333 -2.66699 -54 -8c-8 -0.666992 -15.167 1.33301 -21.5 6s-10 11 -11 19s0.833008 15.167 5.5 21.5s11 10.166 19 11.499z" />
    <glyph glyph-name="asciicircum" unicode="^" horiz-adv-x="406" 
d="M48 369c3.33301 5.33301 9.33203 16.3301 17.999 32.9971l31 62l34 66c21.333 40.667 39.333 72 54 94c8.66699 14 16.334 25 23.001 33c4.66699 5.33301 9 9.33301 13 12c8 6 16 9 24 9c22.667 0 41.667 -10.667 57 -32c10.667 -14 20 -36.333 28 -67l8 -33
c2.66699 -12 5 -20.667 7 -26c26 -72 45.667 -123 59 -153c3.33301 -7.33301 3.66602 -14.666 0.999023 -21.999s-7.66699 -12.666 -15 -15.999s-14.666 -3.66602 -21.999 -0.999023s-12.666 7.66699 -15.999 15c-14.667 32.667 -35 85 -61 157
c-2.66699 8 -5.66699 18.667 -9 32l-8 32c-6.66699 24 -12.667 40 -18 48c-2 2 -4 3.66699 -6 5c-4.66699 -5.33301 -10.334 -13.333 -17.001 -24c-13.333 -20.667 -30.333 -50.667 -51 -90l-34 -67l-32 -63l-18 -34c-4 -6.66699 -9.83301 -11 -17.5 -13s-15 -1 -22 3
s-11.5 9.83301 -13.5 17.5s-1 15.167 3 22.5z" />
    <glyph glyph-name="underscore" unicode="_" horiz-adv-x="546" 
d="M-28 -75c56 10 118.833 15.666 188.5 16.999s127.667 0.333008 174 -3s108.5 -8.66602 186.5 -15.999c8 -0.666992 14.5 -4.16699 19.5 -10.5s7.16699 -13.5 6.5 -21.5s-4.16699 -14.5 -10.5 -19.5s-13.5 -7.16699 -21.5 -6.5c-76.667 7.33301 -138 12.666 -184 15.999
s-102.167 4.33301 -168.5 3s-126.5 -7 -180.5 -17c-8 -1.33301 -15.167 0.333984 -21.5 5.00098s-10.333 11 -12 19s-0.166992 15.167 4.5 21.5s11 10.5 19 12.5z" />
    <glyph glyph-name="grave" unicode="`" horiz-adv-x="190" 
d="M74 736c46.667 -58.667 84.333 -114.331 113 -166.998c4 -7.33301 4.83301 -14.833 2.5 -22.5s-7 -13.334 -14 -17.001s-14.333 -4.33398 -22 -2.00098s-13.167 6.83301 -16.5 13.5c-28 50 -64.333 103 -109 159c-4.66699 6 -6.5 13 -5.5 21s4.5 14.5 10.5 19.5
s13 7 21 6s14.667 -4.5 20 -10.5z" />
    <glyph glyph-name="a" unicode="a" horiz-adv-x="484" 
d="M421 64l-2.00098 5.99805c-2 13.333 -3.66699 27.333 -5 42s-2.5 31.834 -3.5 51.501s-1.83301 32.834 -2.5 39.501c-0.666992 12.667 -1.66699 24.667 -3 36l-1 1c-18 30 -47.667 48.667 -89 56c-43.333 8 -81 0.5 -113 -22.5s-51 -52.167 -57 -87.5
c-6 -34.667 2.66699 -63.667 26 -87c30.667 -30 79.334 -45.333 146.001 -46c14.667 0 37.667 2 69 6zM66.999 413.998c28 38.667 51.667 64.6631 71 77.9961c28.667 20.667 64.667 30.667 108 30c78.667 -0.666992 136.667 -39 174 -115c24.667 -49.333 40 -116 46 -200
c0.666992 -10 1.33398 -23.667 2.00098 -41l3.5 -47.5c1 -13 2.83301 -25.833 5.5 -38.5c0.666992 -0.666992 2 -3.66699 4 -9c6.66699 -17.333 5 -32 -5 -44c-4.66699 -5.33301 -11.334 -9.66602 -20.001 -12.999c-4.66699 -2 -10.667 -3.66699 -18 -5
c-12 -2.66699 -27 -5.33398 -45 -8.00098c-34 -4 -59.333 -6 -76 -6c-83.333 1.33301 -145.333 22.333 -186 63c-38 38 -52.333 84 -43 138c8.66699 50 35.334 91.5 80.001 124.5s97 44.167 157 33.5c22.667 -4.66699 43.334 -11.667 62.001 -21
c-5.33301 18 -11.666 34 -18.999 48c-26.667 54.667 -67.334 82.334 -122.001 83.001c-31.333 0.666992 -56.333 -5.66602 -75 -18.999c-14 -10 -33.333 -31.667 -58 -65c-4.66699 -6.66699 -10.834 -10.5 -18.501 -11.5s-14.834 0.833008 -21.501 5.5
s-10.5 10.834 -11.5 18.501s0.833008 14.834 5.5 21.501z" />
    <glyph glyph-name="b" unicode="b" horiz-adv-x="479" 
d="M134 202l-1.00098 -8c-2 -20.667 -3 -36.334 -3 -47.001c-1.33301 -32.667 3.33398 -55.334 14.001 -68.001c6 -7.33301 18.333 -13.333 37 -18c20.667 -5.33301 45 -7.66602 73 -6.99902c26 0 50.5 2.5 73.5 7.5s38.833 10.833 47.5 17.5c20.667 14 35 35.667 43 65
c6.66699 19.333 7 48 1 86s-17 73.333 -33 106c-17.333 34.667 -37 59.334 -59 74.001s-45 17.667 -69 9c-33.333 -12 -61.333 -41.667 -84 -89c-16 -33.333 -29.333 -76 -40 -128zM120.999 678c2 -23.333 3.00195 -51.667 3.00195 -85c0.666992 -46 1 -73 1 -81
c0.666992 -15.333 3 -61 7 -137c28 50 63.333 82.667 106 98c24.667 7.33301 46.834 9.83301 66.501 7.5s38.167 -10 55.5 -23s32.166 -27.333 44.499 -43s23.5 -33.5 33.5 -53.5c18.667 -38 31.334 -78.667 38.001 -122s6 -80.333 -2 -111c-12 -42 -33.667 -74.333 -65 -97
c-15.333 -10.667 -37.333 -19.167 -66 -25.5s-58.334 -9.5 -89.001 -9.5c-32.667 -0.666992 -61.667 2 -87 8c-31.333 8 -54.333 21 -69 39c-18.667 24 -27.334 59.333 -26.001 106c0 11.333 1 28 3 50c0 2.66699 0.333008 5.66699 1 9v3c1.33301 12 2 21.667 2 29
c0.666992 35.333 -0.833008 85.166 -4.5 149.499s-5.83398 104.5 -6.50098 120.5c0 8.66699 -0.333008 36.334 -1 83.001c0 32 -1 58.333 -3 79c-0.666992 8 1.5 15.167 6.5 21.5s11.5 9.83301 19.5 10.5s15.167 -1.5 21.5 -6.5s9.83301 -11.5 10.5 -19.5z" />
    <glyph glyph-name="c" unicode="c" horiz-adv-x="437" 
d="M378 397c-34.667 32.667 -70.6621 51.6709 -107.995 57.0039c-54.667 9.33301 -95 -4.33398 -121 -41.001c-22.667 -32.667 -35.334 -81.334 -38.001 -146.001c-1.33301 -18 -1.66602 -34.333 -0.999023 -49s3.33398 -27 8.00098 -37c16.667 -34 37.5 -61.5 62.5 -82.5
s50.167 -33.5 75.5 -37.5s49 1.5 71 16.5s40.333 41.5 55 79.5c2.66699 7.33301 7.66699 12.666 15 15.999s14.666 3.66602 21.999 0.999023s12.666 -7.66699 15.999 -15s3.66602 -14.666 0.999023 -21.999c-18.667 -49.333 -44.667 -85.5 -78 -108.5
s-70 -31.167 -110 -24.5c-36.667 5.33301 -71.334 21.666 -104.001 48.999c-32 27.333 -58 61.333 -78 102c-8.66699 17.333 -13.334 37.666 -14.001 60.999c-1.33301 22.667 -1 40.334 1 53.001c2.66699 76 19 135.333 49 178c39.333 56 98.666 77.667 177.999 65
c48 -8 94 -32.333 138 -73c6 -5.33301 9 -12 9 -20s-2.66699 -15 -8 -21s-12 -9 -20 -9s-15 2.66699 -21 8z" />
    <glyph glyph-name="d" unicode="d" horiz-adv-x="470" 
d="M367 332c-2 7.33301 -4.66504 9.66895 -7.99805 7.00195c1.33301 0 2.33301 -1.33301 3 -4c-1.33301 1.33301 -3 2.66602 -5 3.99902l-16 11l-28 18c-32.667 20.667 -65.5 32.167 -98.5 34.5s-62.5 -6.83398 -88.5 -27.501c-24.667 -22 -37.334 -58.333 -38.001 -109
c-0.666992 -48.667 22.666 -84.667 69.999 -108c40 -20 92 -30 156 -30c6.66699 0 15.667 -0.166992 27 -0.5s19.333 -0.5 24 -0.5c0 8 0.333008 17.667 1 29v15v106c0 20 0.333008 38.333 1 55zM448.002 653.003c8.66699 -34.667 8.99902 -76.333 0.999023 -125
c-1.33301 -6.66699 -5 -26 -11 -58c-4 -21.333 -6.66699 -39.333 -8 -54c-2.66699 -27.333 -4.33398 -57.333 -5.00098 -90c4 -22.667 5.33301 -54 4 -94c-0.666992 -10.667 -1.5 -25.167 -2.5 -43.5s-1.83301 -29.5 -2.5 -33.5v-16l4 2
c7.33301 3.33301 14.833 3.83301 22.5 1.5s13.334 -7 17.001 -14s4.33398 -14.333 2.00098 -22s-6.83301 -13.5 -13.5 -17.5c-15.333 -8 -31.666 -13.333 -48.999 -16l-6 -2c-2.66699 -0.666992 -5.33398 -0.666992 -8.00098 0c-4.66699 -0.666992 -31 -1 -79 -1
c-73.333 0 -134 12 -182 36c-68.667 34 -102.667 87.333 -102 160c0.666992 68.667 20 119.667 58 153c24 21.333 52.333 34.333 85 39s63 3 91 -5s54.333 -19.667 79 -35l27 -18l2 22c2 15.333 5 35 9 59c6 31.333 9.66699 50 11 56c6.66699 41.333 6.66699 75.333 0 102
c-2 8 -1 15.333 3 22s10 11 18 13s15.333 1 22 -3s11 -10 13 -18z" />
    <glyph glyph-name="e" unicode="e" horiz-adv-x="512" 
d="M175 288c38.667 1.33301 76.999 4.33008 114.999 8.99707c38.667 5.33301 70.334 12 95.001 20s39.334 15.667 44.001 23c16.667 26.667 4 54.334 -38 83.001c-20 14.667 -42 25.334 -66 32.001s-42.667 8.33398 -56 5.00098c-12 -2.66699 -24.667 -12.667 -38 -30
s-25.333 -40 -36 -68c-8.66699 -24 -15.334 -48.667 -20.001 -74zM111.999 231.997l-2.99609 0.000976562c-8 1.33301 -14.5 5.16602 -19.5 11.499s-7 13.333 -6 21s4.66699 14 11 19s13.166 7.16699 20.499 6.5h1c5.33301 31.333 13.666 62 24.999 92
c30 78.667 68 123.334 114 134.001c23.333 5.33301 51 3.66602 83 -5.00098s60.667 -22 86 -40c13.333 -8.66699 25 -18.667 35 -30s18.667 -24 26 -38s10.5 -29.167 9.5 -45.5s-6.83301 -32.833 -17.5 -49.5c-12 -18.667 -36.667 -34 -74 -46
c-28.667 -9.33301 -63.667 -16.666 -105 -21.999c-42.667 -6 -85 -9.33301 -127 -10c0 -2.66699 0.333008 -5 1 -7c3.33301 -22.667 13 -45.334 29 -68.001s35 -42 57 -58c50 -33.333 96 -38.666 138 -15.999c7.33301 3.33301 14 7.5 20 12.5s10.167 8.66699 12.5 11
s7.5 8.5 15.5 18.5l18 21c5.33301 6 12 9.33301 20 10s15 -1.66602 21 -6.99902s9.33301 -12 10 -20s-1.66602 -15 -6.99902 -21l-13 -16c-6 -7.33301 -10.833 -13 -14.5 -17s-8.33398 -8.83301 -14.001 -14.5s-11.834 -10.834 -18.501 -15.501s-14 -9.33398 -22 -14.001
c-22 -11.333 -45.167 -17.5 -69.5 -18.5s-47 1.83301 -68 8.5s-41.167 17 -60.5 31c-28.667 19.333 -53 43.5 -73 72.5s-33 59.167 -39 90.5c-0.666992 6 -1.33398 12.333 -2.00098 19z" />
    <glyph glyph-name="f" unicode="f" horiz-adv-x="453" 
d="M411 390c-46 2 -89.3281 2.66895 -129.995 2.00195c0 -15.333 0.666992 -31.666 2 -48.999c2 -40 7 -106.333 15 -199c6.66699 -76.667 10 -128.667 10 -156c0 -28.667 -5.33301 -57.667 -16 -87s-25.667 -53.333 -45 -72c-22.667 -23.333 -48.334 -35.333 -77.001 -36
c-31.333 -0.666992 -62 13 -92 41c-6 5.33301 -9 12 -9 20s2.66699 15 8 21s12 9 20 9s15 -2.66699 21 -8c18 -16.667 35 -25 51 -25c12.667 0 25 6 37 18c13.333 13.333 24 31 32 53s12 44 12 66c0 24 -3.33301 74.333 -10 151c-8 92 -13 159 -15 201
c-1.33301 18 -2 35 -2 51c-22.667 -0.666992 -46.334 -2 -71.001 -4c-8 -0.666992 -15 1.66602 -21 6.99902s-9.33301 12 -10 20s1.66602 15 6.99902 21s12 9.33301 20 10c24 2 48.667 3.33301 74 4c0 32.667 1.33301 61.667 4 87c6 67.333 21 115 45 143
c20 23.333 48.333 35 85 35c20 0.666992 45.333 -3.33301 76 -12c8 -2 14 -6.5 18 -13.5s5 -14.333 3 -22s-6.5 -13.5 -13.5 -17.5s-14.167 -5 -21.5 -3c-26.667 7.33301 -47.334 10.666 -62.001 9.99902c-18.667 0 -32.334 -5 -41.001 -15
c-16 -18.667 -26.667 -55.667 -32 -111c-2 -23.333 -3 -50 -3 -80c42 0.666992 86.333 0 133 -2c8 -0.666992 14.667 -3.83398 20 -9.50098s7.83301 -12.5 7.5 -20.5s-3.33301 -14.667 -9 -20s-12.5 -8 -20.5 -8z" />
    <glyph glyph-name="g" unicode="g" horiz-adv-x="491" 
d="M410 413c-21.333 22 -45.001 37.834 -71.001 47.501s-51 13.167 -75 10.5s-47 -10.334 -69 -23.001c-36 -21.333 -62.333 -52.166 -79 -92.499s-18 -84.5 -4 -132.5c14.667 -50.667 36 -85.667 64 -105c52 -34.667 97 -36.334 135 -5.00098c36 29.333 62 78 78 146
c8 34 14.333 76 19 126c0.666992 6 1.33398 15.333 2.00098 28zM431.999 198.001c-20.667 -57.333 -48.6709 -100.667 -84.0039 -130c-28 -23.333 -58.833 -35.333 -92.5 -36s-70.834 12 -111.501 38c-40 26.667 -69.333 72.334 -88 137.001
c-17.333 61.333 -15.166 118.333 6.50098 171s56.167 92.667 103.5 120c36 22.667 77.5 33 124.5 31s90.167 -18 129.5 -48l5 5c10 6.66699 20 7.33398 30 2.00098c3.33301 -2 6.33301 -4.33301 9 -7s4.33398 -5 5.00098 -7l1 -2c0.666992 -2 1 -4 1 -6
c4 -15.333 5 -38 3 -68c-1.33301 -28 -1.33301 -46.667 0 -56l3 -23c4 -32 7 -57.167 9 -75.5s3.83301 -44.666 5.5 -78.999s1.16699 -63.5 -1.5 -87.5s-8 -50 -16 -78c-7.33301 -28 -18 -52.667 -32 -74c-27.333 -41.333 -61.333 -75 -102 -101c-42 -26 -85 -40 -129 -42
c-48 -2.66699 -91.167 9.16602 -129.5 35.499s-66.5 67.166 -84.5 122.499c-2 8 -1.16699 15.5 2.5 22.5s9.33398 11.667 17.001 14s15 1.66602 22 -2.00098s11.833 -9.16699 14.5 -16.5c13.333 -42.667 33.833 -73.5 61.5 -92.5s58.5 -27.5 92.5 -25.5
c34.667 2 68.834 13.333 102.501 34s61.834 48.334 84.501 83.001c33.333 51.333 46 131.666 38 240.999z" />
    <glyph glyph-name="h" unicode="h" horiz-adv-x="498" 
d="M101 656c3.33301 -12.667 5.66797 -26.0029 7.00098 -40.0029s2.33301 -29.333 3 -46s1.33398 -28.667 2.00098 -36c1.33301 -18 4.33301 -44 9 -78s7.33398 -56 8.00098 -66c2.66699 0.666992 13.667 5.33398 33 14.001s33 14.667 41 18l36 12
c14.667 4.66699 28 8 40 10c52.667 8.66699 95.667 -5.66602 129 -42.999c25.333 -28 44.666 -69.667 57.999 -125c8.66699 -36.667 15.667 -84.334 21 -143.001c6.66699 -70 10.334 -107.667 11.001 -113c1.33301 -8 -0.5 -15.333 -5.5 -22s-11.333 -10.667 -19 -12
s-14.834 0.5 -21.501 5.5s-10.667 11.167 -12 18.5c-1.33301 9.33301 -5 48.333 -11 117c-5.33301 56.667 -12 102 -20 136c-10.667 45.333 -25.334 78.333 -44.001 99c-19.333 21.333 -44.666 29.333 -75.999 24c-16 -2.66699 -32 -6.66699 -48 -12
c-16 -6 -34.667 -13.833 -56 -23.5s-38 -16.834 -50 -21.501c0 -6 0.833008 -23.667 2.5 -53s3.16699 -48.833 4.5 -58.5s3.33301 -25.167 6 -46.5s6.5 -39.666 11.5 -54.999s11.167 -30.333 18.5 -45c3.33301 -7.33301 3.66602 -14.833 0.999023 -22.5
s-7.5 -13.167 -14.5 -16.5s-14.333 -3.66602 -22 -0.999023s-13.167 7.33398 -16.5 14.001c-11.333 24 -20.5 51 -27.5 81s-11.5 55.5 -13.5 76.5s-4 49 -6 84s-3.66699 59.5 -5 73.5c-1.33301 18 -4.5 45.833 -9.5 83.5s-8.5 66.5 -10.5 86.5
c-0.666992 10 -1.33398 22.833 -2.00098 38.5s-1.5 29 -2.5 40s-2.83301 22.167 -5.5 33.5c-2 8 -1 15.333 3 22s10 11 18 13s15.333 1 22 -3s11 -10 13 -18z" />
    <glyph glyph-name="i" unicode="i" horiz-adv-x="321" 
d="M155 521c0 -21.333 0.332031 -34.3301 0.999023 -38.9971s0.166992 -18.834 -1.5 -42.501s-2.83398 -38.5 -3.50098 -44.5l-5 -45c-2.66699 -24 -4.33398 -38.667 -5.00098 -44c-9.33301 -92.667 -9 -158.334 1 -197.001c4.66699 -17.333 12.834 -31.333 24.501 -42
s24.5 -17 38.5 -19c30 -4.66699 50 9.66602 60 42.999c2.66699 8 7.5 13.833 14.5 17.5s14.333 4.33398 22 2.00098s13.334 -7 17.001 -14s4.5 -14.167 2.5 -21.5c-9.33301 -31.333 -25.5 -54.333 -48.5 -69s-48.167 -20 -75.5 -16c-26 4 -49.167 15.333 -69.5 34
s-34.166 42.334 -41.499 71.001c-11.333 45.333 -12 117.666 -2 216.999c0.666992 6 2.16699 21 4.5 45s3.83301 38.667 4.5 44s1.83398 19.166 3.50098 41.499s2.16699 35.166 1.5 38.499s-1 15.333 -1 36c-0.666992 8 1.66602 15 6.99902 21s12 9.33301 20 10
s15 -1.66602 21 -6.99902s9.33301 -12 10 -20zM98.999 658.003c15.333 12 29 19.3311 41 21.998c8.66699 2 17 1.66699 25 -1c10 -4 17 -11.333 21 -22c4.66699 -12 3 -25.333 -5 -40c-6 -11.333 -14.333 -21.666 -25 -30.999c-6 -5.33301 -13 -7.66602 -21 -6.99902
s-14.667 4 -20 10c-4.66699 5.33301 -7 11.333 -7 18c-6 2 -10.667 5.33301 -14 10c-4.66699 6.66699 -6.5 14 -5.5 22s4.5 14.333 10.5 19z" />
    <glyph glyph-name="j" unicode="j" horiz-adv-x="459" 
d="M202 62c-25.333 -19.333 -48.001 -40.665 -68.001 -63.998c-10 -12.667 -16.167 -30 -18.5 -52s0.166992 -42.333 7.5 -61c6 -16.667 13.667 -27.334 23 -32.001c8 -4 18.333 -2 31 6c14.667 10 24.334 32.333 29.001 67c3.33301 24.667 3.33301 56.667 0 96
c-0.666992 13.333 -2 26.666 -4 39.999zM173.999 586.001l5.00391 -65.998c2 -26 4.33301 -47 7 -63c2.66699 -19.333 17 -90 43 -212c7.33301 -34.667 13 -64.334 17 -89.001l1 1c2 0.666992 21 7.66699 57 21c20 6.66699 35 14 45 22c4.66699 3.33301 9 7.33301 13 12
s7.16699 8.66699 9.5 12s5.33301 8.83301 9 16.5s6.16699 13 7.5 16s4.16602 9.83301 8.49902 20.5s6.83301 17.334 7.5 20.001c3.33301 7.33301 8.66602 12.5 15.999 15.5s14.666 3 21.999 0s12.5 -8.16699 15.5 -15.5s3.16699 -14.666 0.5 -21.999
c-0.666992 -2 -3 -8 -7 -18l-9 -22c-2 -4.66699 -5.16699 -11.667 -9.5 -21s-8.5 -16.833 -12.5 -22.5s-9.16699 -12 -15.5 -19s-12.833 -13.167 -19.5 -18.5c-15.333 -11.333 -35.666 -21.666 -60.999 -30.999l-53 -20c-5.33301 -2 -10.333 -4 -15 -6
c3.33301 -24.667 6 -48.334 8 -71.001c3.33301 -42.667 3 -78.334 -1 -107.001c-6 -52.667 -24 -88.667 -54 -108c-31.333 -20.667 -61.333 -23.667 -90 -9c-22.667 11.333 -39.667 32.666 -51 63.999c-10 24 -13.333 52.667 -10 86s14 60.666 32 81.999
c28.667 36 63 67 103 93c-5.33301 28.667 -12.333 64 -21 106c-28.667 140 -43.334 211.333 -44.001 214c-2.66699 17.333 -5 40 -7 68c-2.66699 35.333 -4.33398 57 -5.00098 65s1.5 15.167 6.5 21.5s11.5 9.83301 19.5 10.5s15.167 -1.5 21.5 -6.5
s9.83301 -11.5 10.5 -19.5zM120.003 672.003c-22 29.333 -30 56.667 -24 82c3.33301 12.667 10.666 20.667 21.999 24c16 5.33301 28.667 0 38 -16c4.66699 -9.33301 7.33398 -23.333 8.00098 -42c0 -2.66699 -0.333008 -5.33398 -1 -8.00098
c1.33301 -1.33301 2.33301 -2.66602 3 -3.99902c4.66699 -6.66699 6.5 -14 5.5 -22s-4.66699 -14.333 -11 -19s-13.5 -6.5 -21.5 -5.5s-14.333 4.5 -19 10.5z" />
    <glyph glyph-name="k" unicode="k" horiz-adv-x="628" 
d="M192 300l-45.002 -58.002c1.33301 -9.33301 5.5 -36.333 12.5 -81s12.167 -79 15.5 -103c0.666992 -8 -1.33301 -15.167 -6 -21.5s-11 -10 -19 -11s-15.167 0.833008 -21.5 5.5s-10.166 11 -11.499 19c-0.666992 8.66699 -9 64.667 -25 168
c-0.666992 0 -1.33398 0.333008 -2.00098 1c-5.33301 4.66699 -8.5 10.834 -9.5 18.501s0.833008 14.5 5.5 20.5l-6 44c-2.66699 22 -6.16699 57.667 -10.5 107s-9 91.833 -14 127.5s-11.5 69.834 -19.5 102.501c-2 8 -1 15.333 3 22s10 11 18 13s15.333 1 22 -3
s11 -10 13 -18c8 -32.667 14.5 -66.167 19.5 -100.5s10 -78 15 -131s8.16699 -85.833 9.5 -98.5l35 45c1.33301 12.667 8 21 20 25h1c40.667 48 80.334 82.667 119.001 104c6.66699 4 13.834 5 21.501 3s13.5 -6.5 17.5 -13.5s5 -14.333 3 -22s-6.66699 -13.5 -14 -17.5
c-33.333 -19.333 -68 -50.333 -104 -93c22.667 -66.667 47 -131 73 -193c20 -46.667 38 -85.334 54 -116.001c18 -34 32.667 -55.667 44 -65c38.667 -32.667 102 -43.667 190 -33c8 0.666992 15.167 -1.5 21.5 -6.5s10 -11.333 11 -19s-1 -14.667 -6 -21
s-11.167 -10.166 -18.5 -11.499c-105.333 -12.667 -184 3 -236 47c-16.667 14 -35.667 41.333 -57 82c-17.333 32 -36 72.333 -56 121c-21.333 49.333 -42.333 103 -63 161z" />
    <glyph glyph-name="l" unicode="l" horiz-adv-x="238" 
d="M155 54c-2.66699 2 -5.33301 1.33301 -8 -2h1h2zM166.001 699c2 -31.333 3.50488 -77.5 4.50488 -138.5s1.5 -94.833 1.5 -101.5c0.666992 -18 2.33398 -47.667 5.00098 -89s4.16699 -72.5 4.5 -93.5s-0.5 -52.167 -2.5 -93.5
c-0.666992 -2.66699 -1.33398 -7.33398 -2.00098 -14.001l-4 -20c-4 -20.667 -7 -38 -9 -52c-2.66699 -16.667 -4 -30 -4 -40h1c22 12 35.333 19 40 21c8 2 15.5 1.16699 22.5 -2.5s11.667 -9.33398 14 -17.001s1.66602 -15 -2.00098 -22s-9.16699 -11.833 -16.5 -14.5
c-1.33301 0 -11.333 -5.33301 -30 -16c-20.667 -10.667 -39.334 -14 -56.001 -10c-13.333 3.33301 -22.333 12.333 -27 27c-2.66699 6.66699 -4 15.334 -4 26.001c-0.666992 14 0.666016 32.667 3.99902 56l10 55l4 20c0.666992 4.66699 1 7.66699 1 9
c2 39.333 2.83301 68.5 2.5 87.5s-1.83301 48.5 -4.5 88.5s-4.33398 70.667 -5.00098 92c0 8 -0.5 41.833 -1.5 101.5s-2.5 105.167 -4.5 136.5c-0.666992 8 1.66602 15 6.99902 21s12 9.33301 20 10s15 -1.66602 21 -6.99902s9.33301 -12 10 -20z" />
    <glyph glyph-name="m" unicode="m" horiz-adv-x="748" 
d="M58 86c3.33301 7.33301 9.00195 32.668 17.002 76.001c2.66699 12 11.334 58 26.001 138c12 66.667 20.667 111 26 133c4 19.333 8 34.666 12 45.999c2 6.66699 4.33301 12.334 7 17.001c5.33301 10 12.333 16.667 21 20c15.333 4.66699 29.666 1 42.999 -11
c6 -6 12 -14.667 18 -26c3.33301 -6 7.66602 -15 12.999 -27l10 -24c14.667 -30 28.667 -61 42 -93l50 -121l39 -93c8.66699 22 18 54 28 96c7.33301 29.333 15.333 65.666 24 108.999l13 71c3.33301 14.667 9 33.667 17 57c5.33301 14 10 25 14 33
c3.33301 6 6.33301 11 9 15c10 12 21.667 16 35 12c8.66699 -2.66699 16.334 -8.66699 23.001 -18c4 -5.33301 7.66699 -12 11 -20c5.33301 -11.333 11.333 -26.666 18 -45.999l13 -47c4.66699 -16 7.33398 -25 8.00098 -27c18 -48 35.333 -99.333 52 -154l55 -188
c20 -70 35.333 -122 46 -156c2 -7.33301 1.16699 -14.5 -2.5 -21.5s-9.33398 -11.667 -17.001 -14s-15 -1.66602 -22 2.00098s-11.833 9.5 -14.5 17.5l-45 156l-55 185c-16.667 54 -33.667 105 -51 153c-1.33301 3.33301 -4.33301 13.666 -9 30.999
c-5.33301 18.667 -10 33.667 -14 45l-3 11c-6 -17.333 -10 -30.666 -12 -39.999l-13 -71c-8.66699 -43.333 -16.334 -79.666 -23.001 -108.999c-10.667 -44 -21 -78.667 -31 -104c-6.66699 -16 -13.334 -28.667 -20.001 -38c-12 -16 -26 -23.333 -42 -22
c-18 1.33301 -30.333 12 -37 32l-3 12c-0.666992 3.33301 -1.33398 5.33301 -2.00098 6l-40 97l-50 120c-14 34 -28.333 66.667 -43 98c-2 3.33301 -5.66699 11.666 -11 24.999l-2 4l-3 -13c-4.66699 -21.333 -13 -64.666 -25 -129.999
c-14.667 -80 -23.334 -126.333 -26.001 -139c-9.33301 -48 -16.666 -77.667 -21.999 -89c-3.33301 -7.33301 -8.66602 -12.333 -15.999 -15s-14.666 -2.33398 -21.999 0.999023s-12.333 8.66602 -15 15.999s-2.33398 14.666 0.999023 21.999z" />
    <glyph glyph-name="n" unicode="n" horiz-adv-x="541" 
d="M42 54c-0.666992 14.667 -2.99902 41.3311 -6.99902 79.998c-4 37.333 -6.33301 65.333 -7 84c-1.33301 45.333 0 86 4 122c0.666992 6 1.33398 13.667 2.00098 23v13c0 6.66699 0.333008 11.667 1 15c0.666992 26.667 4.33398 47.667 11.001 63
c10 23.333 24.667 38.666 44 45.999c16.667 6.66699 35.667 6.33398 57 -0.999023c29.333 -10 63.666 -34.333 102.999 -73c50 -49.333 97 -106.666 141 -171.999c0.666992 -1.33301 3 -5 7 -11s7.33301 -11.333 10 -16c9.33301 -14.667 18 -27 26 -37
c10 -12.667 18.667 -21.334 26 -26.001c6 8.66699 11 24.334 15 47.001c5.33301 26.667 8.33301 63 9 109c0.666992 32.667 0.333984 72 -0.999023 118c-1.33301 48 -1.66602 76.667 -0.999023 86c0 8 3 14.667 9 20s13 8 21 8s14.667 -3 20 -9s8 -13 8 -21
c0 -8.66699 0.333008 -36.334 1 -83.001c1.33301 -49.333 1.66602 -89.333 0.999023 -120c-1.33301 -48.667 -4.66602 -88.334 -9.99902 -119.001c-8 -43.333 -21.667 -72 -41 -86c-18.667 -14 -39.334 -13.667 -62.001 1c-12.667 8 -26 21 -40 39
c-9.33301 11.333 -19.333 25.333 -30 42c-2.66699 4.66699 -5.83398 9.83398 -9.50098 15.501s-5.83398 9.16699 -6.50098 10.5c-42 62 -86.667 116.333 -134 163c-32.667 32 -59.667 51.667 -81 59c-7.33301 2.66699 -13 3.33398 -17 2.00098s-7.66699 -6 -11 -14
c-4 -9.33301 -6.66699 -23.666 -8 -42.999v-15v-12c-0.666992 -12 -1.33398 -22 -2.00098 -30c-4 -30.667 -5.33301 -68 -4 -112c0.666992 -16 3 -42.667 7 -80c4 -36.667 6.33301 -64.667 7 -84c0 -8 -2.66699 -15 -8 -21s-12 -9 -20 -9s-15 2.66699 -21 8s-9 12 -9 20z
" />
    <glyph glyph-name="o" unicode="o" horiz-adv-x="458" 
d="M193 464c-18 -7.33301 -33.332 -23 -45.999 -47c-17.333 -32.667 -26.666 -72 -27.999 -118c-0.666992 -47.333 8.16602 -89 26.499 -125s44.833 -59 79.5 -69c56.667 -17.333 101 -12 133 16c29.333 25.333 43.666 62.666 42.999 111.999c0 34 -7.16699 66.5 -21.5 97.5
s-37.333 59 -69 84s-69.167 40.833 -112.5 47.5c-2 0.666992 -3.66699 1.33398 -5 2.00098zM247.001 511c45.333 -13.333 84.333 -35.1699 117 -65.5029s56.667 -63.666 72 -99.999s23 -73.5 23 -111.5c0 -68 -21 -120.333 -63 -157
c-48 -41.333 -110.333 -50.666 -187 -27.999c-34.667 10.667 -63.667 30 -87 58s-39.5 58.333 -48.5 91s-13.167 67 -12.5 103c1.33301 54.667 13 102.334 35 143.001c25.333 48 59 75 101 81c10 1.33301 20.333 -0.666992 31 -6c3.33301 -1.33301 6 -2.5 8 -3.5
s3.66699 -1.5 5 -1.5c2 -0.666992 4 -1.66699 6 -3z" />
    <glyph glyph-name="p" unicode="p" horiz-adv-x="451" 
d="M126 244c2 0 28.0029 -7.66699 78.0029 -23c38 -10.667 69.667 -12.334 95 -5.00098c24 7.33301 46.667 23 68 47c21.333 26.667 30.166 53.334 26.499 80.001s-17.334 51.834 -41.001 75.501s-50.167 38.667 -79.5 45s-55.333 2.16602 -78 -12.501
c-26.667 -18 -45.334 -52 -56.001 -102c-6.66699 -28.667 -11 -63.667 -13 -105zM57.0029 -179c5.33301 18.667 8.99805 42.332 10.998 70.999s2.83301 55.334 2.5 80.001s-1 58 -2 100s-1.5 75 -1.5 99v29c-6.66699 6.66699 -9.66699 14.334 -9 23.001
c0.666992 8 4 14.667 10 20c2 46 6.66699 85.333 14 118c14.667 66 41.667 112 81 138c24 16 50.833 24.167 80.5 24.5s57.167 -5.33398 82.5 -17.001s48 -27.167 68 -46.5c20.667 -20.667 36.334 -43.5 47.001 -68.5s14 -52.667 10 -83s-17.333 -58.166 -40 -83.499
c-29.333 -32.667 -61.333 -54.334 -96 -65.001c-36 -10.667 -78.333 -8.66699 -127 6c-6 1.33301 -16.167 4.33301 -30.5 9s-25.166 8 -32.499 10v-14c0 -20.667 0.5 -52.5 1.5 -95.5s1.66699 -77.5 2 -103.5s-0.5 -55 -2.5 -87c-2.66699 -31.333 -7 -58 -13 -80
c-2 -7.33301 -6.5 -13 -13.5 -17s-14.333 -5 -22 -3s-13.5 6.5 -17.5 13.5s-5 14.5 -3 22.5z" />
    <glyph glyph-name="q" unicode="q" horiz-adv-x="584" 
d="M380 66c-34.667 50.667 -59.667 92.9961 -75 126.996c-2.66699 7.33301 -2.66699 14.833 0 22.5s7.66699 13 15 16s14.833 3.16699 22.5 0.5s13.167 -7.66699 16.5 -15c13.333 -31.333 35.333 -69.666 66 -114.999c7.33301 7.33301 14 15 20 23
c27.333 36.667 44 76.834 50 120.501s-0.666992 83.834 -20 120.501c-14 24.667 -42 52.667 -84 84c-48 14 -92.333 9.66699 -133 -13s-72.334 -57 -95.001 -103c-16 -33.333 -24.667 -66.666 -26 -99.999s6.33398 -65.333 23.001 -96c16.667 -30 41.667 -54 75 -72
c48.667 -26.667 97 -26.667 145 0zM412 17.9961c-66.667 -40 -134.998 -41.334 -204.998 -4.00098c-33.333 18.667 -60.5 42 -81.5 70s-34.333 57.667 -40 89s-6.5 62.833 -2.5 94.5s13 62.167 27 91.5c26 53.333 63.833 95.166 113.5 125.499s104.167 39.166 163.5 26.499
c9.33301 2.66699 17.666 1.33398 24.999 -3.99902l5 -4c8.66699 -3.33301 17.334 -7 26.001 -11c10 -4 15.667 -11.667 17 -23c29.333 -25.333 51 -50.333 65 -75c17.333 -30.667 27 -64.667 29 -102s-2.66699 -73 -14 -107s-27.333 -65.333 -48 -94
c-10 -14 -21.333 -26.667 -34 -38l26 -39c12.667 -20.667 29.334 -53.334 50.001 -98.001c19.333 -41.333 34.666 -71.333 45.999 -90c4.66699 -6.66699 6.16699 -14 4.5 -22s-5.83398 -14.167 -12.501 -18.5s-14 -5.66602 -22 -3.99902s-14 5.83398 -18 12.501
c-14 22 -31 54.667 -51 98c-20.667 44.667 -36.334 75.334 -47.001 92.001z" />
    <glyph glyph-name="r" unicode="r" horiz-adv-x="420" 
d="M92 552c12.667 -19.333 22.334 -50.6641 29.001 -93.9971c2.66699 -18 4.66699 -38.667 6 -62c20 45.333 44.667 81.333 74 108c31.333 29.333 64.666 43.333 99.999 42c40 -1.33301 77.667 -22 113 -62c5.33301 -6 7.66602 -13 6.99902 -21s-4 -14.667 -10 -20
s-13 -7.66602 -21 -6.99902s-14.667 4 -20 10c-24 27.333 -47.667 41.333 -71 42c-19.333 0.666992 -39 -8.16602 -59 -26.499s-37.333 -42.833 -52 -73.5c-15.333 -30.667 -25.333 -61 -30 -91c-7.33301 -45.333 -11 -99.333 -11 -162v-55
c0 -1.33301 0.333008 -4.33301 1 -9l1 -13c0.666992 -6.66699 0.666992 -11.834 0 -15.501s-1.66699 -6.83398 -3 -9.50098c-6.66699 -13.333 -17 -19 -31 -17c-8 1.33301 -14.333 5.33301 -19 12l-4 6c-6 11.333 -8.66699 26.333 -8 45c0 16 -0.333008 25.333 -1 28
c-2 15.333 -3.66699 34.666 -5 57.999s-2.66602 53.666 -3.99902 90.999c-0.666992 35.333 -1.33398 61.333 -2.00098 78c-2 48.667 -5 87.334 -9 116.001c-4.66699 34.667 -11 58 -19 70c-4.66699 6.66699 -6.16699 14 -4.5 22s5.83398 14.167 12.501 18.5
s14 5.66602 22 3.99902s14 -5.83398 18 -12.501z" />
    <glyph glyph-name="s" unicode="s" horiz-adv-x="504" 
d="M316 501c-16 -0.666992 -33.832 -8.33691 -53.499 -23.0039s-36.167 -33 -49.5 -55c-12.667 -23.333 -19 -42.833 -19 -58.5s5.66699 -27.5 17 -35.5c14 -9.33301 34 -15 60 -17c9.33301 -0.666992 22.666 -1 39.999 -1c20 -0.666992 34 -1 42 -1
c36 -2 64.667 -9.33301 86 -22c28.667 -18 47.667 -47.333 57 -88c9.33301 -40 11.666 -70.333 6.99902 -91c-10 -48 -43.667 -86.667 -101 -116c-52 -26.667 -101.333 -36 -148 -28c-22 4 -39.667 11 -53 21l-10 10l-13 12l-11 11c-6 5.33301 -9 12 -9 20s2.66699 15 8 21
s12 9 20 9s15 -2.66699 21 -8c5.33301 -4.66699 11 -10 17 -16c5.33301 -6 9.66602 -10 12.999 -12c5.33301 -4.66699 14.333 -8 27 -10c34 -6 71 1.33301 111 22c41.333 20.667 65.333 46 72 76c2.66699 12.667 0.333984 34.334 -6.99902 65.001
c-6 25.333 -16.667 42.666 -32 51.999c-12.667 8 -32 12.667 -58 14c-7.33301 0 -20.666 0.333008 -39.999 1c-18 0 -32.333 0.333008 -43 1c-36.667 2.66699 -66 11.667 -88 27c-20 13.333 -32.833 30.833 -38.5 52.5s-6 42.334 -1 62.001s13.167 38.834 24.5 57.501
c16.667 28.667 38.667 53.334 66 74.001s55.333 31.334 84 32.001c8 0 15 -2.66699 21 -8s9 -12 9 -20s-2.66699 -15 -8 -21s-12 -9 -20 -9z" />
    <glyph glyph-name="t" unicode="t" horiz-adv-x="395" 
d="M145 450c-28 -2 -55.6699 -4.33008 -83.0029 -6.99707c-8 -0.666992 -15.167 1.5 -21.5 6.5s-9.83301 11.5 -10.5 19.5s1.5 15.167 6.5 21.5s11.5 9.83301 19.5 10.5l73 6l-25 85c-2 7.33301 -1.16699 14.5 2.5 21.5s9.33398 11.667 17.001 14s15 1.66602 22 -2.00098
s11.833 -9.5 14.5 -17.5l28 -98c49.333 2.66699 99 4 149 4c8 0 14.833 -2.83301 20.5 -8.5s8.5 -12.5 8.5 -20.5s-2.83301 -14.833 -8.5 -20.5s-12.5 -8.5 -20.5 -8.5c-45.333 0 -89.666 -1 -132.999 -3l34 -116c6 -21.333 13.667 -54.666 23 -99.999
c8.66699 -42 16.334 -74 23.001 -96c2 -7.33301 4.83301 -18.333 8.5 -33s7 -26.667 10 -36s6.5 -17.333 10.5 -24c1.33301 -3.33301 2.66602 -5.83301 3.99902 -7.5s2.33301 -2.5 3 -2.5h1c5.33301 -0.666992 14.333 4.66602 27 15.999c6 5.33301 13 7.66602 21 6.99902
s14.667 -4 20 -10s7.66602 -13 6.99902 -21s-4 -14.667 -10 -20c-25.333 -22 -49 -32 -71 -30c-21.333 2.66699 -38.666 15.667 -51.999 39c-5.33301 8.66699 -10.166 19.5 -14.499 32.5s-8.5 27.833 -12.5 44.5l-8 29c-6.66699 23.333 -14.667 56.666 -24 99.999
c-10.667 49.333 -18 81.333 -22 96z" />
    <glyph glyph-name="u" unicode="u" horiz-adv-x="382" 
d="M154 519c-2.66699 -13.333 -11.667 -48.6621 -27 -105.995c-12.667 -46.667 -21.334 -83.334 -26.001 -110.001c-15.333 -82.667 -7.66602 -147.334 23.001 -194.001c10.667 -16.667 23.667 -30 39 -40c16 -10.667 30 -14.334 42 -11.001c54 14 89.667 64.667 107 152
c2 12.667 4 26.334 6 41.001s3.5 27.334 4.5 38.001s1.66699 25 2 43s0.5 30 0.5 36v38v32c0 8 2.83301 14.833 8.5 20.5s12.5 8.5 20.5 8.5s14.833 -2.83301 20.5 -8.5s8.5 -12.5 8.5 -20.5v-31v-39c0 -6.66699 -0.333008 -19.334 -1 -38.001s-1.5 -33.834 -2.5 -45.501
s-2.33301 -25.5 -4 -41.5s-3.83398 -31 -6.50098 -45c-22.667 -110.667 -72.667 -176 -150 -196c-28.667 -7.33301 -58 -1 -88 19c-22 14 -40.333 32.667 -55 56c-39.333 60 -50.333 138.667 -33 236c5.33301 28 14.666 66.333 27.999 115
c15.333 55.333 24.333 89.666 27 102.999c1.33301 7.33301 5.33301 13.333 12 18s13.834 6.16699 21.501 4.5s13.834 -5.83398 18.501 -12.501s6 -14 4 -22z" />
    <glyph glyph-name="v" unicode="v" horiz-adv-x="488" 
d="M79 516c26 -45.333 47.9961 -110.997 65.9961 -196.997c0.666992 -2.66699 2.33398 -10.834 5.00098 -24.501s4.5 -22.167 5.5 -25.5s2.66699 -10.833 5 -22.5s4.16602 -19.834 5.49902 -24.501l6 -22c2.66699 -9.33301 5.33398 -17.333 8.00098 -24l8 -21l8 -22
c10.667 -23.333 19.667 -40 27 -50c4.66699 -6 8.66699 -10.333 12 -13c11.333 11.333 20.333 24.333 27 39c10 21.333 19 49 27 83c7.33301 33.333 16.333 87.333 27 162c0.666992 1.33301 1.33398 8.66602 2.00098 21.999s2.16699 25.666 4.5 36.999
s5.83301 21.666 10.5 30.999c12 22 33 37.333 63 46c8.66699 2.66699 19.334 5 32.001 7c0.666992 0 4.5 0.5 11.5 1.5s12.167 1.83301 15.5 2.5c8 1.33301 15.167 -0.333984 21.5 -5.00098s10.333 -11 12 -19s0.166992 -15.167 -4.5 -21.5s-11 -10.5 -19 -12.5l-28 -4
c-10.667 -1.33301 -19 -3 -25 -5c-14 -4 -23 -10 -27 -18c-3.33301 -5.33301 -5.5 -11 -6.5 -17s-1.66699 -14.167 -2 -24.5s-1.16602 -19.833 -2.49902 -28.5c-10.667 -76.667 -20.334 -132.334 -29.001 -167.001c-8.66699 -38 -18.667 -69.333 -30 -94
c-14.667 -33.333 -32 -55.666 -52 -66.999c-18 -10.667 -36.667 -10.667 -56 0c-10.667 6.66699 -21.334 17.334 -32.001 32.001c-9.33301 12.667 -19.666 32.334 -30.999 59.001c-4.66699 9.33301 -8.66699 18.333 -12 27s-6.66602 18.834 -9.99902 30.501s-6 20.5 -8 26.5
s-4.5 16.167 -7.5 30.5s-5 23.166 -6 26.499s-3.16699 13.5 -6.5 30.5s-5 25.833 -5 26.5c-17.333 80 -37.333 140.333 -60 181c-4 6.66699 -5 13.834 -3 21.501s6.5 13.5 13.5 17.5s14.333 5 22 3s13.5 -6.66699 17.5 -14z" />
    <glyph glyph-name="w" unicode="w" horiz-adv-x="712" 
d="M65 531c17.333 -34 30.8398 -72.001 40.5068 -114.001s18 -88.5 25 -139.5s12.833 -87.833 17.5 -110.5c3.33301 -13.333 10 -29.666 20 -48.999c2 -4.66699 4 -8.66699 6 -12c3.33301 6 6.33301 13.333 9 22c7.33301 24 13.666 56.667 18.999 98
c3.33301 25.333 7.33301 61 12 107l7 73c4.66699 28 9 49.333 13 64c4 16.667 8.66699 30 14 40c11.333 20 25.666 29.667 42.999 29c16 -0.666992 31 -8.33398 45 -23.001c9.33301 -10.667 18.666 -25 27.999 -43c14 -28 28.333 -66.333 43 -115l21 -80l18 -78
c5.33301 -24 8.66602 -38.333 9.99902 -43c5.33301 -20.667 10.666 -39.667 15.999 -57c2 -7.33301 3.66699 -13 5 -17c5.33301 8 10.666 18.667 15.999 32c7.33301 18.667 15.666 46.334 24.999 83.001c10.667 41.333 25.334 94.666 44.001 159.999
c20.667 68.667 33.334 112 38.001 130l26 101c11.333 43.333 21.666 78 30.999 104c2.66699 7.33301 7.5 12.666 14.5 15.999s14.333 3.66602 22 0.999023s13.167 -7.5 16.5 -14.5s3.66602 -14.5 0.999023 -22.5c-9.33301 -28.667 -19 -61.334 -29 -98.001
c-16.667 -65.333 -25.334 -99.666 -26.001 -102.999l-38 -130c-18.667 -64 -33.334 -116.667 -44.001 -158c-10 -39.333 -19 -69.333 -27 -90c-8.66699 -21.333 -17.667 -38.666 -27 -51.999c-15.333 -20 -32.666 -30.333 -51.999 -31c-8.66699 0 -16.334 3 -23.001 9
c-2.66699 2 -5 5 -7 9c-2.66699 4 -5.33398 9.33301 -8.00098 16c-4 9.33301 -8.66699 22 -14 38c-5.33301 18 -10.666 38 -15.999 60c-1.33301 4.66699 -4.66602 19 -9.99902 43l-18 77c-6.66699 28 -13.667 54 -21 78c-13.333 46 -26.333 81.333 -39 106
c-6 11.333 -11.667 20.333 -17 27l-5 -19c-3.33301 -12.667 -7 -31.667 -11 -57c-1.33301 -6 -3.66602 -29.333 -6.99902 -70c-4.66699 -44.667 -8.66699 -81.334 -12 -110.001c-6.66699 -44.667 -14 -80 -22 -106c-4.66699 -17.333 -10 -31.333 -16 -42
c-9.33301 -15.333 -20.666 -25.333 -33.999 -30c-17.333 -5.33301 -33.666 0.333984 -48.999 17.001c-8 8.66699 -15.667 20.334 -23 35.001c-12 23.333 -20 44.333 -24 63c-6.66699 30 -13.334 69 -20.001 117c-6.66699 49.333 -14.167 92.5 -22.5 129.5
s-20.5 71.5 -36.5 103.5c-3.33301 7.33301 -3.83301 14.833 -1.5 22.5s7.16602 13.167 14.499 16.5s14.833 3.83301 22.5 1.5s13.167 -7.16602 16.5 -14.499z" />
    <glyph glyph-name="x" unicode="x" horiz-adv-x="392" 
d="M389 498l-14.001 -31.0059c-1.33301 -2.66699 -2.33301 -5 -3 -7c-2 -2.66699 -4.33301 -5 -7 -7c-0.666992 -1.33301 -1.66699 -2.33301 -3 -3c-4 -5.33301 -11 -15.666 -21 -30.999c-8.66699 -14 -20.667 -36 -36 -66c-18 -35.333 -31 -59.333 -39 -72l-23 -35
c50.667 -79.333 98.334 -144.333 143.001 -195c5.33301 -6 7.66602 -13 6.99902 -21s-4 -14.667 -10 -20s-13 -7.66602 -21 -6.99902s-14.667 4 -20 10c-42.667 48.667 -87.334 109.334 -134.001 182.001l-22 -32c-33.333 -48 -57.666 -87.333 -72.999 -118
c-4 -7.33301 -9.83301 -12.166 -17.5 -14.499s-15 -1.66602 -22 2.00098s-11.667 9.33398 -14 17.001s-1.83301 14.834 1.5 21.501c18.667 35.333 44.334 77 77.001 125l36 52l-12 19c-7.33301 12 -16.833 28.667 -28.5 50s-21.167 38.166 -28.5 50.499
s-16.833 25.5 -28.5 39.5s-23.5 25.333 -35.5 34c-6.66699 4.66699 -10.834 11 -12.501 19s-0.166992 15.167 4.5 21.5s11 10.333 19 12s15 0.166992 21 -4.5c15.333 -10.667 30.5 -24.834 45.5 -42.501s26.5 -33.167 34.5 -46.5l31 -54l26 -46l8 13
c8.66699 13.333 20.334 35.333 35.001 66c16 32 29.333 56 40 72c10.667 16.667 18.667 28.334 24 35.001c2 2.66699 4 4.66699 6 6l12 30c3.33301 7.33301 8.83301 12.333 16.5 15s15.167 2.5 22.5 -0.5s12.333 -8.33301 15 -16s2.66699 -15.167 0 -22.5z" />
    <glyph glyph-name="y" unicode="y" horiz-adv-x="438" 
d="M109 -78c48.667 -15.333 83.3359 -7.66699 104.003 23c11.333 16.667 20 40.667 26 72c-2 1.33301 -4 3 -6 5c-37.333 48 -70.666 114 -99.999 198c-4 10 -8.33301 24.333 -13 43l-12 43c-9.33301 31.333 -20.333 53.666 -33 66.999c-1.33301 1.33301 -4 3 -8 5l-18 10
c-7.33301 4.66699 -11.833 10.834 -13.5 18.501s-0.333984 15 3.99902 22s10.333 11.333 18 13s14.834 0.5 21.501 -3.5c2 -1.33301 3.83301 -2.33301 5.5 -3s3.5 -1.66699 5.5 -3l5 -2c9.33301 -5.33301 16.666 -11 21.999 -17c18.667 -20.667 34 -50.334 46 -89.001
c2.66699 -8.66699 7 -23.667 13 -45c4.66699 -17.333 8.33398 -30.333 11.001 -39c20.667 -57.333 41 -103.333 61 -138c1.33301 23.333 2.33301 57.333 3 102s1.66699 76.334 3 95.001c3.33301 79.333 16 133.333 38 162c16 20.667 39 30.667 69 30c10.667 0 29 -3 55 -9
c8 -1.33301 14.167 -5.5 18.5 -12.5s5.66602 -14.333 3.99902 -22s-6 -13.667 -13 -18s-14.167 -5.5 -21.5 -3.5c-22.667 4.66699 -37.334 7 -44.001 7c-10.667 0 -18 -2.66699 -22 -8c-14.667 -18.667 -23.334 -61.667 -26.001 -129c-1.33301 -18 -2.33301 -50.333 -3 -97
s-1.66699 -82 -3 -106c-5.33301 -82.667 -20.333 -142.667 -45 -180c-36 -54.667 -92 -70.334 -168 -47.001c-8 2.66699 -13.833 7.5 -17.5 14.5s-4.33398 14.333 -2.00098 22s7 13.334 14 17.001s14.167 4.5 21.5 2.5z" />
    <glyph glyph-name="z" unicode="z" horiz-adv-x="448" 
d="M63 435c0 0.666992 2.66797 3 8.00098 7l12 10c2.66699 2.66699 6.83398 5.83398 12.501 9.50098s11.167 6.66699 16.5 9s11 3.83301 17 4.5c10 2 27 2 51 0c20.667 -2 43 -5 67 -9c26 -4.66699 48 -9.66699 66 -15c10 -2.66699 18.333 -5.66699 25 -9
c11.333 -5.33301 19.333 -11.666 24 -18.999c8.66699 -14.667 9.66699 -34 3 -58c-2.66699 -12 -10 -25.667 -22 -41c-8 -10.667 -19.667 -24.334 -35 -41.001c-54.667 -59.333 -82.334 -89.333 -83.001 -90c-26.667 -31.333 -41 -54.666 -43 -69.999
c-0.666992 -3.33301 -0.666992 -6 0 -8c4 -4 12 -7.33301 24 -10c10.667 -2 22 -3.16699 34 -3.5s26.667 0 44 1s31 1.5 41 1.5c39.333 0 70.333 0.666992 93 2c8 0.666992 15 -1.66602 21 -6.99902s9.33301 -12 10 -20s-1.66602 -15 -6.99902 -21s-12 -9.33301 -20 -10
c-24 -1.33301 -56.333 -2 -97 -2c-5.33301 0 -17.5 -0.5 -36.5 -1.5s-36.333 -1.33301 -52 -1s-29.834 2.16602 -42.501 5.49902c-25.333 5.33301 -44 15 -56 29c-12.667 15.333 -17.334 33.666 -14.001 54.999c4.66699 25.333 23.667 58 57 98
c1.33301 1.33301 29.333 31.666 84 90.999c14 15.333 24.667 27.666 32 36.999c6.66699 9.33301 10.667 16 12 20c1.33301 4.66699 2 8.66699 2 12l-15 5c-14.667 4.66699 -34.334 9 -59.001 13c-24 4 -45 6.66699 -63 8c-18 2 -29 2.66699 -33 2
c-2.66699 -0.666992 -5 -1.5 -7 -2.5s-4.66699 -2.5 -8 -4.5s-5.66602 -3.66699 -6.99902 -5s-4.33301 -4 -9 -8s-8.33398 -6.66699 -11.001 -8c-6 -5.33301 -13 -7.66602 -21 -6.99902s-14.5 4.16699 -19.5 10.5s-7.16699 13.5 -6.5 21.5s4.33398 14.333 11.001 19z" />
    <glyph glyph-name="braceleft" unicode="{" horiz-adv-x="345" 
d="M255 651c-20.667 10 -36.333 9.99805 -47 -0.00195312c-12.667 -12 -22.667 -35.333 -30 -70c-4 -15.333 -7 -33.166 -9 -53.499s-3.33301 -37.166 -4 -50.499s-1.16699 -29.5 -1.5 -48.5s-0.5 -30.167 -0.5 -33.5c-3.33301 -78.667 -34.333 -132.667 -93 -162
c12.667 -18.667 25.667 -50.667 39 -96c5.33301 -20 9.66602 -48 12.999 -84c3.33301 -40.667 6.33301 -67 9 -79c4 -26 11.167 -47.167 21.5 -63.5s26.166 -28.833 47.499 -37.5s37.666 -10.667 48.999 -6c8 3.33301 23.667 17 47 41c6 6 13 9 21 9
s14.833 -2.83301 20.5 -8.5s8.5 -12.5 8.5 -20.5s-2.66699 -14.667 -8 -20c-29.333 -30 -51.333 -48 -66 -54c-26 -11.333 -57.333 -9.66602 -94 5.00098c-57.333 23.333 -92.333 71.666 -105 144.999c-2 13.333 -5 41.333 -9 84c-2.66699 32.667 -6.33398 57 -11.001 73
c-12.667 44.667 -24.334 73 -35.001 85c-3.33301 4 -7 6.66699 -11 8h-9h-3c-1.33301 0 -2.33301 -0.333008 -3 -1c-1.33301 0 -2.66602 -0.333008 -3.99902 -1h-12c-10 2 -17 8 -21 18c-3.33301 8.66699 -2.66602 17 2.00098 25l7 8l2 2
c0.666992 0.666992 1.33398 1 2.00098 1c2 1.33301 4.33301 2.33301 7 3c6.66699 2.66699 13.667 4 21 4c4.66699 0.666992 9.33398 0.666992 14.001 0c60.667 13.333 92.334 54.666 95.001 123.999c0 1.33301 0.166992 12 0.5 32s0.833008 37.167 1.5 51.5
s2.16699 32.5 4.5 54.5s5.5 41.667 9.5 59c10 46 25.667 79 47 99c30.667 28.667 68.334 32 113.001 10c7.33301 -3.33301 12.166 -8.83301 14.499 -16.5s1.83301 -15.167 -1.5 -22.5s-8.83301 -12.166 -16.5 -14.499s-15.167 -1.83301 -22.5 1.5z" />
    <glyph glyph-name="bar" unicode="|" horiz-adv-x="131" 
d="M116 692c9.33301 -64.667 14.667 -132.332 16 -202.999s0.5 -153.167 -2.5 -247.5s-4.5 -160.5 -4.5 -198.5c0 -8 -2.83301 -14.833 -8.5 -20.5s-12.5 -8.5 -20.5 -8.5s-14.833 2.83301 -20.5 8.5s-8.5 12.5 -8.5 20.5c0 41.333 1.5 108.5 4.5 201.5
s3.83301 173.667 2.5 242s-6.66602 134.166 -15.999 197.499c-0.666992 8 1.33301 15.167 6 21.5s11 10 19 11s15.167 -0.833008 21.5 -5.5s10.166 -11 11.499 -19z" />
    <glyph glyph-name="braceright" unicode="}" horiz-adv-x="278" 
d="M19 656c0.666992 0 1.1709 0.169922 1.50391 0.50293s1.16602 0.833008 2.49902 1.5l6 5c10.667 7.33301 21.334 10.666 32.001 9.99902c43.333 -3.33301 78.333 -36.333 105 -99c20.667 -48 30.667 -91.667 30 -131c0 -9.33301 -1 -20.666 -3 -33.999
c-2 -16.667 -3 -26.334 -3 -29.001c-1.33301 -20 0.333984 -35.667 5.00098 -47c3.33301 -8.66699 7.5 -15.167 12.5 -19.5s13.833 -9.83301 26.5 -16.5c-0.666992 0.666992 2.33301 0.333984 9 -0.999023c19.333 -2.66699 31 -12.334 35 -29.001
c0.666992 -3.33301 1 -6.33301 1 -9s-0.333008 -4.66699 -1 -6l-1 -2c0 -1.33301 -0.5 -2.83301 -1.5 -4.5s-2.16699 -3.83398 -3.5 -6.50098c-2 -3.33301 -5 -8 -9 -14l-27 -40c-25.333 -39.333 -39.666 -65.333 -42.999 -78c-6.66699 -25.333 -11.667 -58.333 -15 -99
c-3.33301 -42.667 -7.66602 -71.667 -12.999 -87c-10 -31.333 -29.667 -54.333 -59 -69c-28.667 -15.333 -71.334 -24 -128.001 -26c-8 0 -15 2.66699 -21 8s-9 12 -9 20s2.66699 15 8 21s12 9 20 9c47.333 2 81.666 8.33301 102.999 19c15.333 8 25.666 20 30.999 36
c3.33301 11.333 6.66602 36 9.99902 74c3.33301 44 9 80.667 17 110c4.66699 18 21.667 49 51 93l19 30c-16.667 8 -30 16.667 -40 26c-10 8.66699 -18.667 21.667 -26 39c-8.66699 20 -11.667 44.667 -9 74c0.666992 3.33301 2 13.666 4 30.999
c1.33301 11.333 2 20.333 2 27c0.666992 32 -7.66602 68 -24.999 108c-16.667 38 -34 59 -52 63c-6.66699 -4.66699 -12 -8 -16 -10c-6.66699 -3.33301 -13.834 -3.83301 -21.501 -1.5s-13.334 7 -17.001 14s-4.33398 14.333 -2.00098 22s7.16602 13.5 14.499 17.5z" />
    <glyph glyph-name="asciitilde" unicode="~" horiz-adv-x="574" 
d="M-5 173c6.66699 23.333 17.502 45.6699 32.502 67.0029s32.5 38.666 52.5 51.999c13.333 8.66699 26.833 15.167 40.5 19.5s26 7.16602 37 8.49902s23.333 0.166016 37 -3.50098s24.5 -7 32.5 -10s18.833 -8.66699 32.5 -17s22.834 -14.333 27.501 -18
s13.667 -10.167 27 -19.5c37.333 -27.333 64.666 -43.666 81.999 -48.999c25.333 -7.33301 49.666 -1.33301 72.999 18c27.333 23.333 43.333 63.666 48 120.999c0.666992 8 4 14.667 10 20s13 7.66602 21 6.99902s14.667 -4 20 -10s7.66602 -13 6.99902 -21
c-6 -74 -29.333 -127.667 -70 -161c-38.667 -32.667 -80.334 -42.334 -125.001 -29.001c-24 6.66699 -57.667 25.667 -101 57c-19.333 14.667 -34.666 25.5 -45.999 32.5s-24.333 13.333 -39 19s-28.5 7.33398 -41.5 5.00098s-26.5 -8.16602 -40.5 -17.499
c-30 -20 -50.333 -49 -61 -87c-2 -8 -6.5 -13.833 -13.5 -17.5s-14.5 -4.5 -22.5 -2.5s-13.833 6.5 -17.5 13.5s-4.5 14.5 -2.5 22.5z" />
    <glyph glyph-name="exclamdown" unicode="&#xa1;" horiz-adv-x="182" 
d="M155 429c-13.333 -4 -27.334 -1.33398 -42.001 7.99902l-3 2c-13.333 4.66699 -23.333 10 -30 16c-12 10 -16.333 22 -13 36c2.66699 10.667 9.33398 19 20.001 25c12 6.66699 26 9.33398 42 8.00098c22 -0.666992 37.333 -8 46 -22
c6.66699 -10.667 9.33398 -22.667 8.00098 -36c-0.666992 -6 -2.33398 -11.333 -5.00098 -16c-3.33301 -12 -11 -19 -23 -21zM168.999 335.999c0 -53.333 0.5 -133 1.5 -239s1.5 -185.667 1.5 -239c0 -8 -2.83301 -14.833 -8.5 -20.5s-12.5 -8.5 -20.5 -8.5
s-14.833 2.83301 -20.5 8.5s-8.5 12.5 -8.5 20.5c0 53.333 -0.5 133 -1.5 239s-1.5 185.667 -1.5 239c0 8 2.83301 14.833 8.5 20.5s12.5 8.5 20.5 8.5s14.833 -2.83301 20.5 -8.5s8.5 -12.5 8.5 -20.5z" />
    <glyph glyph-name="cent" unicode="&#xa2;" horiz-adv-x="495" 
d="M173 97l56.999 172.999c26 78 46 143 60 195c-38 8.66699 -68 3.33398 -90 -15.999c-4 -4 -7.66699 -7.83301 -11 -11.5s-5.5 -6.5 -6.5 -8.5s-3.66699 -6.83301 -8 -14.5s-7.16602 -13.5 -8.49902 -17.5c-18 -33.333 -31.333 -68.333 -40 -105
c-8.66699 -36 -10.667 -69.333 -6 -100c6 -41.333 23.667 -73 53 -95zM357.999 499.999c41.333 -21.333 69.335 -49.333 84.002 -84c2.66699 -7.33301 2.5 -14.666 -0.5 -21.999s-8.16699 -12.5 -15.5 -15.5s-14.666 -3 -21.999 0s-12.666 8.16699 -15.999 15.5
c-7.33301 18 -22.333 34 -45 48c-14 -52.667 -33.333 -116 -58 -190l-60 -180l21 -6c36 -7.33301 62.667 -9 80 -5c23.333 5.33301 45.666 15.666 66.999 30.999s37.666 32.666 48.999 51.999c4 7.33301 9.83301 12 17.5 14s15 1 22 -3s11.5 -9.83301 13.5 -17.5
s1 -14.834 -3 -21.501c-15.333 -27.333 -37 -51 -65 -71s-57.667 -33.333 -89 -40c-24.667 -6 -59.334 -4.33301 -104.001 5c-9.33301 1.33301 -18.333 3.33301 -27 6c-8.66699 -27.333 -16.334 -53.333 -23.001 -78c-2 -8 -6.5 -13.833 -13.5 -17.5s-14.5 -4.5 -22.5 -2.5
s-13.833 6.5 -17.5 13.5s-4.5 14.5 -2.5 22.5c7.33301 26.667 16 55.334 26 86.001c-52 31.333 -82.667 79.333 -92 144c-5.33301 38 -3 78.167 7 120.5s25 82.5 45 120.5c2 2.66699 4.5 7 7.5 13s5.5 10.667 7.5 14l7 12c3.33301 5.33301 7.16602 10.333 11.499 15
s9.16602 9.33398 14.499 14.001c36.667 32 84 41.333 142 28l14 64c1.33301 7.33301 5.33301 13.333 12 18s13.834 6.16699 21.501 4.5s13.834 -5.83398 18.501 -12.501s6 -14 4 -22c-4 -23.333 -9.33301 -47.666 -16 -72.999z" />
    <glyph glyph-name="sterling" unicode="&#xa3;" horiz-adv-x="571" 
d="M368 315c-34.667 3.33301 -78.9971 0.998047 -132.997 -7.00195l-17 -2c-6 -31.333 -10.667 -53.666 -14 -66.999c-8.66699 -30.667 -26 -81.334 -52 -152.001l-7 -18c34 8.66699 76.667 10.667 128 6c13.333 -1.33301 30.166 -3.66602 50.499 -6.99902
s38.5 -5.83301 54.5 -7.5s31 -2.16699 45 -1.5c22 1.33301 40.667 6.5 56 15.5s28 24.167 38 45.5c3.33301 7.33301 8.66602 12.333 15.999 15s14.666 2.33398 21.999 -0.999023s12.333 -8.66602 15 -15.999s2.33398 -14.666 -0.999023 -21.999
c-27.333 -60 -75.333 -91.667 -144 -95c-15.333 -0.666992 -32.5 0 -51.5 2s-39.167 4.66699 -60.5 8s-36.666 5.33301 -45.999 6c-56.667 6 -99.334 1.66699 -128.001 -13c-1.33301 -1.33301 -2.66602 -2.83301 -3.99902 -4.5s-2.33301 -3.16699 -3 -4.5
c-5.33301 -6 -10.666 -10.333 -15.999 -13c-12.667 -6.66699 -25 -6 -37 2c-8 5.33301 -12.333 13 -13 23v8c0.666992 2 1.33398 5 2.00098 9c1.33301 4.66699 3.66602 11.334 6.99902 20.001l23 63c25.333 69.333 42 118.666 50 147.999c2.66699 10 6 23.667 10 41
c-23.333 -3.33301 -44.666 -5.66602 -63.999 -6.99902c-8 -0.666992 -15 1.66602 -21 6.99902s-9.33301 12 -10 20s1.66602 15 6.99902 21s12 9.33301 20 10c21.333 1.33301 47.666 4.66602 78.999 9.99902c11.333 59.333 21.666 106 30.999 140c14 55.333 29.667 99 47 131
c24 44.667 53 70 87 76c26.667 4 50.334 0 71.001 -12c15.333 -9.33301 30.333 -24.666 45 -45.999c4.66699 -6.66699 6.16699 -13.834 4.5 -21.501s-5.83398 -13.834 -12.501 -18.501s-13.834 -6.16699 -21.501 -4.5s-13.834 5.83398 -18.501 12.501
c-9.33301 14 -18.333 23.333 -27 28c-8 5.33301 -18.333 6.66602 -31 3.99902c-15.333 -2.66699 -30.666 -18 -45.999 -46c-15.333 -27.333 -29.333 -66.333 -42 -117c-8 -30.667 -16.667 -69.667 -26 -117c56.667 8 104.667 10.333 144 7
c8 -0.666992 14.5 -4.16699 19.5 -10.5s7.16699 -13.5 6.5 -21.5s-4.16699 -14.5 -10.5 -19.5s-13.5 -7.16699 -21.5 -6.5z" />
    <glyph glyph-name="currency" unicode="&#xa4;" horiz-adv-x="512" 
d="M352 436c-8.66699 11.333 -17.002 18.9971 -25.002 22.9971c-7.33301 3.33301 -20.333 6.33301 -39 9c-21.333 4 -36.666 6 -45.999 6c-15.333 1.33301 -26.666 0 -33.999 -4c-12 -6 -22.667 -14.667 -32 -26c4 -6 5.16699 -12.833 3.5 -20.5
s-5.83398 -13.5 -12.501 -17.5c-4.66699 -3.33301 -10 -5 -16 -5c-4 -11.333 -7 -23.666 -9 -36.999c-4 -23.333 -3.5 -46.166 1.5 -68.499s13.833 -40.5 26.5 -54.5c17.333 -20 44.666 -36 81.999 -48c48.667 -16 87.334 -15 116.001 3c24.667 16 39.667 42.667 45 80
c6.66699 50.667 -5.66602 100.334 -36.999 149.001c-10 -0.666992 -18 3 -24 11zM453.998 188.997l52 -62.9971c5.33301 -6 7.66602 -13 6.99902 -21s-4 -14.667 -10 -20s-13 -7.66602 -21 -6.99902s-14.667 4 -20 10l-54 65c-2.66699 -2 -5.66699 -4 -9 -6
c-44 -28 -99 -31.333 -165 -10c-44.667 15.333 -79.334 35.666 -104.001 60.999l-55 -48c-34 -29.333 -55.333 -48 -64 -56c-5.33301 -5.33301 -12.166 -8 -20.499 -8s-15.166 2.83301 -20.499 8.5s-8 12.667 -8 21s3 15.166 9 20.499c13.333 12.667 35.666 32 66.999 58
c26.667 23.333 46.667 41.333 60 54c-16 38.667 -20.667 80.334 -14 125.001c4 24.667 11.333 47.667 22 69c-6 6.66699 -12.167 13.167 -18.5 19.5s-14.166 13.5 -23.499 21.5l-20 17l-26 22l-24 18c-6.66699 5.33301 -10.334 12 -11.001 20s1.5 15.167 6.5 21.5
s11.5 9.83301 19.5 10.5s15 -1.33301 21 -6c4 -3.33301 11.167 -9 21.5 -17s18.166 -14.333 23.499 -19l21 -18c8.66699 -7.33301 16.5 -14.333 23.5 -21s13.833 -13.667 20.5 -21c12 13.333 26 24 42 32s37 11.333 63 10c11.333 0 25 -1.33301 41 -4
c0.666992 4 2 7.66699 4 11c4 6.66699 10 11 18 13s15.333 1 22 -3c13.333 -8 26 -17 38 -27c15.333 10 39 26.667 71 50c6 4.66699 13 6.5 21 5.5s14.333 -4.66699 19 -11s6.5 -13.5 5.5 -21.5s-4.83301 -14.333 -11.5 -19c-27.333 -20.667 -49 -36.334 -65 -47.001
c24.667 -30.667 42.334 -64.834 53.001 -102.501s13.667 -73.834 9 -108.501c-3.33301 -27.333 -11.333 -51.333 -24 -72c2.66699 -2 5.33398 -4.33301 8.00098 -7z" />
    <glyph glyph-name="yen" unicode="&#xa5;" horiz-adv-x="504" 
d="M258 394l-39 -7l18 -34c6 13.333 13 27 21 41zM55 650c27.333 -26.667 63.9971 -80.665 109.997 -161.998l26 -48l99 18c4.66699 1.33301 9.66699 2.66602 15 3.99902l23 29c2 2 8.66699 10.167 20 24.5s18.333 23.333 21 27s8.66699 11.5 18 23.5s15.666 21 18.999 27
l16 24c6 10 11.333 19.333 16 28c4 8 7.66699 17 11 27c2.66699 7.33301 7.66699 12.5 15 15.5s14.833 3.16699 22.5 0.5s13 -7.66699 16 -15s3.16699 -15 0.5 -23c-17.333 -44.667 -53.666 -101.334 -108.999 -170.001c15.333 2.66699 29.666 4.66699 42.999 6
c8 0.666992 15 -1.66602 21 -6.99902s9.33301 -12 10 -20s-1.66602 -15 -6.99902 -21s-12 -9.33301 -20 -10c-20 -1.33301 -54 -7.33301 -102 -18c-25.333 -34.667 -44 -66.334 -56 -95.001c66.667 3.33301 118.334 9.33301 155.001 18c8 2 15.333 0.833008 22 -3.5
s11 -10.333 13 -18s0.833008 -14.834 -3.5 -21.501s-10.166 -11 -17.499 -13c-42 -10 -104 -17 -186 -21c-4 -27.333 -3 -64 3 -110c0.666992 -6 2.66699 -19.667 6 -41s5.83301 -39.333 7.5 -54s2.83398 -28.667 3.50098 -42c0 -8 -2.66699 -15 -8 -21s-12 -9 -20 -9
s-15 2.66699 -21 8s-9 12 -9 20c-0.666992 12 -1.66699 24.5 -3 37.5s-3.66602 29.667 -6.99902 50s-5.33301 34.833 -6 43.5c-6.66699 46 -8.33398 84.333 -5.00098 115c-64.667 -4 -116.667 -12.667 -156 -26c-8 -2 -15.5 -1.16699 -22.5 2.5s-11.667 9.33398 -14 17.001
s-1.66602 15 2.00098 22s9.16699 11.833 16.5 14.5c42.667 13.333 96 22.333 160 27l-34 66c-67.333 -12 -120.666 -22 -159.999 -30c-8 -2 -15.333 -0.833008 -22 3.5s-10.834 10.5 -12.501 18.5s-0.333984 15.333 3.99902 22s10.5 10.667 18.5 12
c37.333 8 85.333 17.333 144 28l-17 29c-42.667 77.333 -75.667 127 -99 149c-6 5.33301 -9 12 -9 20s2.66699 15 8 21s12 9 20 9s15 -2.66699 21 -8z" />
    <glyph glyph-name="brokenbar" unicode="&#xa6;" horiz-adv-x="124" 
d="M86 661c0 -20 2 -66.001 6 -138.001c3.33301 -60 4.66602 -107.333 3.99902 -142c0 -8 -3 -14.667 -9 -20s-13 -8 -21 -8s-14.667 3 -20 9s-8 13 -8 21c0.666992 32.667 -0.666016 78.334 -3.99902 137.001c-4 70.667 -6 117.667 -6 141c0 8 2.83301 14.833 8.5 20.5
s12.5 8.5 20.5 8.5s14.833 -2.83301 20.5 -8.5s8.5 -12.5 8.5 -20.5zM124 237.999c-4 -21.333 -6.5 -43.3301 -7.5 -65.9971s-1 -52.334 0 -89.001s1.5 -61 1.5 -73c0 -8 -2.83301 -14.833 -8.5 -20.5s-12.5 -8.5 -20.5 -8.5s-14.833 2.83301 -20.5 8.5s-8.5 12.5 -8.5 20.5
s-0.5 31.167 -1.5 69.5s-1 70.5 0 96.5s4.16699 50.667 9.5 74c1.33301 8 5.33301 14.167 12 18.5s14 5.66602 22 3.99902s14.167 -5.83398 18.5 -12.501s5.5 -14 3.5 -22z" />
    <glyph glyph-name="section" unicode="&#xa7;" horiz-adv-x="433" 
d="M148 396l-14 -12.999c-18 -17.333 -29 -32.333 -33 -45c-10.667 -30 -7.66699 -56.667 9 -80s48.334 -51.333 95.001 -84c49.333 -34.667 79.666 -56.667 90.999 -66c42.667 12 68 33.333 76 64c8 31.333 4 58.333 -12 81c-14 19.333 -40 39.666 -78 60.999l-52 30
c-22.667 12 -40.667 22.333 -54 31c-10.667 7.33301 -20 14.333 -28 21zM350 592.001c-16.667 16 -39.166 25.165 -67.499 27.498s-55.166 -2.16699 -80.499 -13.5c-25.333 -12 -43.166 -28.167 -53.499 -48.5s-10.5 -43.5 -0.5 -69.5
c0.666992 -2 1.33398 -3.66699 2.00098 -5c9.33301 4.66699 18.333 4.33398 27 -0.999023c6.66699 -4 11 -10 13 -18s1 -15.333 -3 -22l-1 -2c6.66699 -5.33301 14 -10.666 22 -15.999c12.667 -8 29.334 -18 50.001 -30l53 -29c45.333 -26 77.333 -52 96 -78
c27.333 -37.333 34.333 -80.333 21 -129c-11.333 -42.667 -39.333 -74 -84 -94c31.333 -34.667 50.666 -71.334 57.999 -110.001c5.33301 -30 2 -56.833 -10 -80.5s-29.667 -42.5 -53 -56.5c-22 -12.667 -46.333 -20.334 -73 -23.001s-52.334 0 -77.001 8
c-9.33301 3.33301 -18.333 7.16602 -27 11.499s-17 9.83301 -25 16.5l-21 19c-6 5.33301 -12.667 13 -20 23l-17 20c-3.33301 4 -8.83301 11.167 -16.5 21.5s-11.834 16.5 -12.501 18.5c-4.66699 6 -6.5 13 -5.5 21s4.66699 14.333 11 19s13.5 6.5 21.5 5.5
s14.333 -4.83301 19 -11.5c2 -2 6 -7 12 -15s10 -13.5 12 -16.5s5.66699 -7.83301 11 -14.5s9.33301 -11.334 12 -14.001l11 -13c4.66699 -5.33301 8.66699 -9.33301 12 -12l13 -9c4.66699 -3.33301 9.33398 -6.16602 14.001 -8.49902s9.33398 -4.16602 14.001 -5.49902
c37.333 -12 71.666 -9 102.999 9c29.333 17.333 40.666 43 33.999 77c-6 34.667 -27.333 68.334 -64 101.001c-8 -0.666992 -15.167 1.16602 -21.5 5.49902s-10.166 10.5 -11.499 18.5v4l-75 53l-33 24c-8.66699 6 -19 14.333 -31 25s-21.667 20.334 -29 29.001
s-14.833 19.167 -22.5 31.5s-12.834 24.333 -15.501 36s-3.83398 24.834 -3.50098 39.501s2.83301 29.667 7.5 45c7.33301 21.333 23.666 44.333 48.999 69l14 14c-5.33301 8.66699 -10 17.667 -14 27c-16.667 42.667 -16.167 81.167 1.5 115.5s45.167 59.833 82.5 76.5
c22.667 10.667 46.5 17.167 71.5 19.5s50.167 0 75.5 -7s47 -19.167 65 -36.5c6 -5.33301 9 -12 9 -20s-2.66699 -15 -8 -21s-12 -9 -20 -9s-15 2.66699 -21 8z" />
    <glyph glyph-name="dieresis" unicode="&#xa8;" horiz-adv-x="268" 
d="M42 611c-13.333 16 -21.332 30.668 -23.999 44.001c-2 9.33301 -1.33301 18.666 2 27.999s10.333 15.666 21 18.999c16 6 31.333 2.33301 46 -11c10.667 -10 19 -24 25 -42c2.66699 -7.33301 2.33398 -14.5 -0.999023 -21.5s-9 -11.833 -17 -14.5
c-2.66699 -1.33301 -5.33398 -2 -8.00098 -2l-3 -3c-6.66699 -5.33301 -13.834 -7.66602 -21.501 -6.99902s-14.167 4 -19.5 10zM181.001 615.001c-0.666992 22 1.33105 41.334 5.99805 58.001c4.66699 20 13 33.333 25 40c13.333 8 26.333 7 39 -3
c6.66699 -5.33301 11.334 -13 14.001 -23c4 -14 5.33301 -33 4 -57c0 -4 -1 -7.66699 -3 -11c0.666992 -8.66699 -1.66602 -16.334 -6.99902 -23.001c-4.66699 -5.33301 -10.5 -8.5 -17.5 -9.5s-13.167 0.166992 -18.5 3.5c-4 -2 -8 -3 -12 -3c-8 0 -15 2.66699 -21 8
s-9 12 -9 20z" />
    <glyph glyph-name="copyright" unicode="&#xa9;" horiz-adv-x="683" 
d="M544 582c-21.333 21.333 -51 38.6689 -89 52.002c-57.333 19.333 -114.333 26 -171 20c-36.667 -4 -78 -22.333 -124 -55c-50 -36.667 -77.333 -96.334 -82 -179.001c-1.33301 -37.333 2.16699 -74.333 10.5 -111s20.5 -68.334 36.5 -95.001
c26.667 -46 64.667 -83 114 -111s96.333 -36.667 141 -26c4.66699 1.33301 9.16699 2.83301 13.5 4.5s9.16602 3.83398 14.499 6.50098l13 8l16 10l16 10c54 33.333 91.667 63.333 113 90c24 30 41 72.667 51 128c8.66699 45.333 11.334 78 8.00098 98
c-2 15.333 -7.5 31.666 -16.5 48.999s-16.5 30.333 -22.5 39l-36 49c-3.33301 4 -5.33301 8.33301 -6 13zM627 563.003c31.333 -44.667 50.0049 -85.665 56.0049 -122.998c4 -26 1.33301 -64.667 -8 -116c-12 -64.667 -33.333 -116.334 -64 -155.001
c-25.333 -31.333 -68 -65.666 -128 -102.999c-2 -0.666992 -6.66699 -3.5 -14 -8.5l-17 -11.5l-18 -9c-6.66699 -4 -13.334 -7.33301 -20.001 -10s-13.334 -4.66699 -20.001 -6c-32.667 -7.33301 -64.834 -7.83301 -96.501 -1.5s-61.834 18 -90.501 35
s-54.167 36.667 -76.5 59s-40.833 45.833 -55.5 70.5c-18.667 32.667 -33 70 -43 112s-13.667 84.333 -11 127c2 45.333 11.5 87.666 28.5 126.999s42.5 71 76.5 95c54 39.333 104.667 61.666 152 66.999c65.333 6.66699 130.666 -1 195.999 -23
c78.667 -27.333 129.667 -69.333 153 -126zM431.005 423.005c-10.667 22.667 -22.668 39.4961 -36.001 50.4961s-30.333 17.167 -51 18.5c-36.667 2.66699 -66 -9.33301 -88 -36c-22.667 -26 -34 -59 -34 -99c0 -40.667 11.833 -75.5 35.5 -104.5s56.834 -44.5 99.501 -46.5
c15.333 -0.666992 29.166 1 41.499 5s27.833 11.333 46.5 22c7.33301 3.33301 14.833 3.83301 22.5 1.5s13.334 -7 17.001 -14s4.33398 -14.333 2.00098 -22s-6.83301 -13.5 -13.5 -17.5c-14.667 -7.33301 -26.834 -13.166 -36.501 -17.499
s-21.834 -8.16602 -36.501 -11.499s-29.667 -4.66602 -45 -3.99902c-41.333 2 -77 13.833 -107 35.5s-51.5 47.5 -64.5 77.5s-19.5 62 -19.5 96s6.5 65.667 19.5 95s34 53.666 63 72.999s62.833 27.666 101.5 24.999c60.667 -4 105.667 -38.333 135 -103
c3.33301 -7.33301 3.66602 -14.666 0.999023 -21.999s-7.66699 -12.666 -15 -15.999s-14.666 -3.66602 -21.999 -0.999023s-12.666 7.66699 -15.999 15z" />
    <glyph glyph-name="ordfeminine" unicode="&#xaa;" horiz-adv-x="345" 
d="M114 475c5.33301 -2.66699 10.666 -2 15.999 2c8.66699 6.66699 17.667 19.667 27 39c15.333 31.333 26 64.333 32 99c-16.667 3.33301 -27.667 3.66602 -33 0.999023c-4 -2.66699 -9.66699 -10.667 -17 -24c-8.66699 -15.333 -15.667 -32.666 -21 -51.999
c-5.33301 -20 -7.66602 -36.667 -6.99902 -50c0.666992 -8 1.66699 -13 3 -15zM214 501l-4 -9.99805c-13.333 -27.333 -28.333 -47.333 -45 -60c-25.333 -19.333 -51.666 -21.333 -78.999 -6c-20 10.667 -31 31 -33 61c-1.33301 20 1.66699 43 9 69
c6.66699 24 15.334 45.667 26.001 65c12.667 23.333 26 38.666 40 45.999c18.667 10.667 43.334 12.667 74.001 6c5.33301 4 11.666 6 18.999 6c6 0 11.167 -1.33301 15.5 -4s7.16602 -5.33398 8.49902 -8.00098l2 -4c1.33301 -2 2.33301 -4.33301 3 -7
c0 -1.33301 0.333008 -3.33301 1 -6c0 -2.66699 0.333008 -6.66699 1 -12c0.666992 -7.33301 1.33398 -18 2.00098 -32c1.33301 -31.333 2 -47.333 2 -48c8 -40 33 -71 75 -93c6.66699 -4 11.167 -9.83301 13.5 -17.5s1.66602 -15 -2.00098 -22
s-9.33398 -11.667 -17.001 -14s-15.167 -1.83301 -22.5 1.5c-41.333 22 -71 51.667 -89 89z" />
    <glyph glyph-name="guillemotleft" unicode="&#xab;" horiz-adv-x="453" 
d="M246 384c-24 -18 -52.333 -41.9951 -85 -71.9951c-19.333 -18 -34.333 -33 -45 -45c-3.33301 -3.33301 -6 -6.66602 -8 -9.99902l4 -3c7.33301 -7.33301 18.333 -16 33 -26c10 -6.66699 32.667 -20.667 68 -42c6.66699 -4.66699 11 -10.834 13 -18.501
s0.833008 -14.834 -3.5 -21.501s-10.333 -11 -18 -13s-14.834 -1 -21.501 3l-70 44c-16.667 11.333 -30 21.666 -40 30.999c-6.66699 5.33301 -12 10.666 -16 15.999c-6 8 -9.66699 16.333 -11 25c-1.33301 9.33301 1.66699 19.666 9 30.999c4 6.66699 9.66699 14 17 22
c12 14 28.333 30.333 49 49c34.667 31.333 64.334 56.666 89.001 75.999c6.66699 4.66699 14 6.5 22 5.5s14.333 -4.66699 19 -11s6.5 -13.5 5.5 -21.5s-4.5 -14.333 -10.5 -19zM436 333.005c-42.667 -17.333 -72.9971 -31.332 -90.9971 -41.999
c-15.333 -9.33301 -23.333 -16.666 -24 -21.999c-0.666992 -4.66699 4.33301 -12.334 15 -23.001c14.667 -16 40.667 -36.667 78 -62c6.66699 -4.66699 10.834 -10.834 12.501 -18.501s0.166992 -14.834 -4.5 -21.501s-10.834 -10.834 -18.501 -12.501
s-14.834 -0.166992 -21.501 4.5c-40.667 28 -70 51.333 -88 70c-24 25.333 -34 49.666 -30 72.999c4 22 20.667 42.333 50 61c21.333 12.667 54.666 28.334 99.999 47.001c7.33301 2.66699 14.666 2.5 21.999 -0.5s12.5 -8.16699 15.5 -15.5s3 -14.666 0 -21.999
s-8.16699 -12.666 -15.5 -15.999z" />
    <glyph glyph-name="logicalnot" unicode="&#xac;" horiz-adv-x="513" 
d="M35 342c0.666992 0 1.33496 0.333008 2.00195 1s1.5 1.66699 2.5 3s2.16699 3.33301 3.5 6c8 9.33301 17 15.666 27 18.999c13.333 4 35 5.66699 65 5c21.333 0 50 -1 86 -3c93.333 -6 144.666 -9 153.999 -9c2 0 8.66699 0.666992 20 2l37 3
c14.667 1.33301 26 2.33301 34 3c6 0.666992 10.667 1 14 1c2.66699 0 5 -0.333008 7 -1c2 0 4 -0.333008 6 -1c6 -2 10.667 -5.66699 14 -11c4 -4.66699 6.33301 -10.667 7 -18c0.666992 -3.33301 1 -7.33301 1 -12c0 -8 -0.333008 -18.333 -1 -31
c-1.33301 -19.333 -4 -46.666 -8 -81.999l-17 -133c-1.33301 -8 -5.16602 -14.333 -11.499 -19s-13.5 -6.5 -21.5 -5.5s-14.333 4.66699 -19 11s-6.66699 13.5 -6 21.5c7.33301 54 13 98 17 132c4 35.333 6.66699 61.666 8 78.999c0 4 0.333008 7.33301 1 10
c-5.33301 0 -12 -0.333008 -20 -1l-36 -4c-12.667 -1.33301 -21.334 -2 -26.001 -2c-10.667 0 -63.334 3 -158.001 9c-35.333 2 -63 3 -83 3c-21.333 0.666992 -36.333 0 -45 -2c-7.33301 -9.33301 -11.333 -14.666 -12 -15.999c-6 -5.33301 -13 -8 -21 -8
s-14.833 2.83301 -20.5 8.5s-8.5 12.5 -8.5 20.5s2.66699 15 8 21z" />
    <glyph glyph-name="registered" unicode="&#xae;" horiz-adv-x="722" 
d="M329 371l21.999 6.99902c42.667 13.333 67.334 30.666 74.001 51.999c1.33301 4 0.5 10.167 -2.5 18.5s-7.5 15.833 -13.5 22.5c-14.667 16 -37.334 25 -68.001 27c-10 0.666992 -25.667 0.333984 -47 -0.999023c-23.333 -1.33301 -38.333 -2 -45 -2
c4.66699 -38 7.33398 -85.333 8.00098 -142l12 4c21.333 6.66699 41.333 11.334 60 14.001zM453.999 612.999c-40.667 16.667 -79.333 24.668 -116 24.001c-78 -1.33301 -143.333 -41.333 -196 -120c-55.333 -83.333 -74.333 -163 -57 -239c18 -74 69.333 -138.333 154 -193
c68 -42.667 134.333 -57 199 -43c64 14 119.333 54.333 166 121c47.333 68 67.333 129 60 183c-6.66699 55.333 -29.167 105.666 -67.5 150.999s-85.833 84 -142.5 116zM610 568c64.667 -64.667 101.997 -136.001 111.997 -214.001c8.66699 -70 -14.666 -145 -69.999 -225
c-54.667 -78.667 -121.667 -126.667 -201 -144s-160.666 0 -243.999 52c-97.333 62.667 -156.666 138.667 -177.999 228c-22 91.333 -0.333008 186 65 284c63.333 95.333 144 144 242 146c36 0.666992 72.667 -5 110 -17c5.33301 0.666992 10.333 -0.333008 15 -3l19 -10
c40 -17.333 79.667 -41.666 119 -72.999c8 -6.66699 11.667 -14.667 11 -24zM241.997 552.999c7.33301 0 23.333 0.668945 48 2.00195c24 1.33301 42 1.66602 54 0.999023c46.667 -2.66699 83 -18.334 109 -47.001c10 -11.333 18.333 -26 25 -44s7.66699 -35.667 3 -53
c-6.66699 -20.667 -21 -39.334 -43 -56.001c44.667 -24.667 68 -73.667 70 -147c0 -8 -2.66699 -15 -8 -21s-12 -9 -20 -9s-15 2.66699 -21 8s-9 12 -9 20c-1.33301 52 -15.333 85 -42 99c-16 8.66699 -38 11.334 -66 8.00098l-84 -25c0 -44.667 0.666992 -78.667 2 -102
c0.666992 -8 -1.66602 -15 -6.99902 -21s-12 -9.33301 -20 -10s-15 1.66602 -21 6.99902s-9.33301 12 -10 20c-1.33301 24.667 -2 54 -2 88l-29 -9c-13.333 -4 -22 -6.33301 -26 -7c-2 -0.666992 -4 -1 -6 -1c-2 -0.666992 -4 -0.666992 -6 0c-4.66699 0.666992 -9 2 -13 4
c-11.333 7.33301 -15.333 18 -12 32c1.33301 5.33301 4 10 8 14c1.33301 1.33301 2.66602 2.33301 3.99902 3s2.33301 1.33398 3 2.00098c2 0.666992 5.33301 2 10 4l66 21c0 70.667 -3.66699 128 -11 172c-1.33301 8 0.5 15.333 5.5 22s11.167 10.667 18.5 12h6
c5.33301 8.66699 13.333 13 24 13z" />
    <glyph glyph-name="macron" unicode="&#xaf;" horiz-adv-x="346" 
d="M319 603c-10.667 -0.666992 -39.8359 -1.83105 -87.5029 -3.49805s-84.167 -3.33398 -109.5 -5.00098s-55.833 -4.83398 -91.5 -9.50098s-64.167 -10.667 -85.5 -18c-7.33301 -2.66699 -14.5 -2.33398 -21.5 0.999023s-11.833 8.83301 -14.5 16.5
s-2.33398 15 0.999023 22s9 11.833 17 14.5c23.333 8.66699 54.333 15.667 93 21s71.334 8.83301 98.001 10.5s64.334 3.33398 113.001 5.00098s77.334 2.83398 86.001 3.50098c8 0.666992 14.833 -1.83301 20.5 -7.5s8.83398 -12.5 9.50098 -20.5
s-1.83301 -14.833 -7.5 -20.5s-12.5 -8.83398 -20.5 -9.50098z" />
    <glyph glyph-name="degree" unicode="&#xb0;" horiz-adv-x="324" 
d="M107 706c4.66699 10.667 12.668 16.334 24.001 17.001c53.333 4 97 -6.66699 131 -32s54.333 -58.333 61 -99c6.66699 -38.667 -1 -74.667 -23 -108c-22 -32.667 -55.333 -52.334 -100 -59.001c-42 -6 -78.667 -0.333008 -110 17s-52.666 42.333 -63.999 75
c-12.667 30 -12.834 62.167 -0.500977 96.5s35.166 62.833 68.499 85.5c4 2.66699 8.33301 5 13 7zM170.001 663c-4.66699 -1.33301 -10 -2.66602 -16 -3.99902l-5 -1c-3.33301 -0.666992 -6 -1 -8 -1c-6.66699 -2 -11.667 -4 -15 -6
c-22.667 -15.333 -37.667 -33.5 -45 -54.5s-7.66602 -40.833 -0.999023 -59.5s19.667 -33.5 39 -44.5s43.666 -14.167 72.999 -9.5c27.333 3.33301 47.5 14.833 60.5 34.5s17.5 41.5 13.5 65.5c-3.33301 20 -12.833 37.667 -28.5 53s-37.167 24.666 -64.5 27.999
c-1.33301 0 -2.33301 -0.333008 -3 -1z" />
    <glyph glyph-name="plusminus" unicode="&#xb1;" horiz-adv-x="562" 
d="M463 398c-40 7.33301 -91.0029 9.33301 -153.003 6c2.66699 -46 4 -102 4 -168c0 -8 -2.83301 -14.833 -8.5 -20.5s-12.5 -8.5 -20.5 -8.5s-14.833 2.83301 -20.5 8.5s-8.5 12.5 -8.5 20.5c0 64 -1.33301 118.333 -4 163c-39.333 -4 -83 -9.66699 -131 -17
c-7.33301 -1.33301 -14.333 0.5 -21 5.5s-10.667 11.333 -12 19s0.5 14.834 5.5 21.501s11.5 10.667 19.5 12c48.667 7.33301 93.334 13 134.001 17c-5.33301 54 -13.666 103 -24.999 147c-2 7.33301 -1 14.5 3 21.5s9.83301 11.5 17.5 13.5s15 1 22 -3s11.5 -10 13.5 -18
c12 -48 21 -100.333 27 -157c67.333 4 123.333 2.33301 168 -5c8 -1.33301 14.333 -5.33301 19 -12s6.33398 -14 5.00098 -22s-5.33301 -14.333 -12 -19s-14 -6.33398 -22 -5.00098zM100.997 165c32 3.33301 63.1641 5 93.4971 5s60.333 -1.33301 90 -4
s56.167 -5.66699 79.5 -9l86 -13c34.667 -4.66699 63.667 -8.33398 87 -11.001c8 -1.33301 14.5 -5.16602 19.5 -11.499s7 -13.333 6 -21s-4.66699 -14 -11 -19s-13.166 -7.16699 -20.499 -6.5c-25.333 3.33301 -55.166 7.5 -89.499 12.5s-62.833 9 -85.5 12
s-48.167 5.83301 -76.5 8.5s-56.666 4 -84.999 4s-57.5 -1.66699 -87.5 -5c-8 -0.666992 -15.167 1.5 -21.5 6.5s-9.83301 11.5 -10.5 19.5s1.5 15.167 6.5 21.5s11.5 9.83301 19.5 10.5z" />
    <glyph glyph-name="uni00B2" unicode="&#xb2;" horiz-adv-x="362" 
d="M-13 549c8 26.667 12.3311 41.0029 12.998 43.0029c5.33301 14 15.333 28.333 30 43c14 14 31.833 25.833 53.5 35.5s43.167 14.834 64.5 15.501c26 1.33301 48 -3.66699 66 -15c22 -13.333 35.333 -34.333 40 -63c3.33301 -21.333 2.33301 -40.333 -3 -57
c-4 -11.333 -12.667 -24.666 -26 -39.999c-8.66699 -10 -21.667 -23 -39 -39c-44 -42.667 -71.333 -70.334 -82 -83.001s-18 -23 -22 -31c-1.33301 -3.33301 -2 -5.66602 -2 -6.99902c2.66699 -2 7.66699 -4 15 -6c16 -4 39.667 -5.66699 71 -5
c10 0 16.167 0.166992 18.5 0.5s5.5 0.666016 9.5 0.999023s6.5 0.666016 7.5 0.999023s4.5 1 10.5 2s12 2.16699 18 3.5l99 17c8 1.33301 15.167 -0.333984 21.5 -5.00098s10.333 -11 12 -19s0.166992 -15.167 -4.5 -21.5s-11 -10.5 -19 -12.5l-99 -17
c-6 -0.666992 -12 -1.66699 -18 -3s-9.83301 -2.16602 -11.5 -2.49902s-4.5 -0.5 -8.5 -0.5l-14 -2h-20c-36.667 -1.33301 -65.667 1 -87 7c-26 6 -43.333 17.667 -52 35c-9.33301 16.667 -9.33301 35.667 0 57c6 13.333 16 28.666 30 45.999
c11.333 13.333 40.333 42.333 87 87c16 15.333 27.667 27.333 35 36c8.66699 9.33301 13.334 15.666 14.001 18.999c2.66699 8 3 18.333 1 31c-1.33301 10.667 -5.66602 18 -12.999 22c-7.33301 4.66699 -18 6.66699 -32 6c-14.667 -0.666992 -29.5 -4.16699 -44.5 -10.5
s-26.5 -13.833 -34.5 -22.5c-9.33301 -10 -15.666 -18.333 -18.999 -25l-10 -37c-2 -8 -6.66699 -13.833 -14 -17.5s-14.833 -4.5 -22.5 -2.5s-13.334 6.66699 -17.001 14s-4.5 14.666 -2.5 21.999z" />
    <glyph glyph-name="uni00B3" unicode="&#xb3;" horiz-adv-x="255" 
d="M-39 603c1.33301 1.33301 2.66602 3.33496 3.99902 6.00195l4 10c5.33301 10 11.333 18 18 24c14.667 13.333 34.667 24.166 60 32.499s50 12.166 74 11.499c29.333 -0.666992 53.333 -7.66699 72 -21c23.333 -16.667 34.666 -41.334 33.999 -74.001
c-0.666992 -22.667 -3.66699 -41 -9 -55c-6 -14 -16.333 -29.333 -31 -46l-1 -1l4 -2c32.667 -18.667 52.334 -39 59.001 -61c16 -52.667 7.66699 -97 -25 -133c-30.667 -34.667 -72.667 -49.334 -126 -44.001c-13.333 1.33301 -27.833 5.5 -43.5 12.5
s-26.834 12.833 -33.501 17.5l-31 21c-6 4.66699 -9.83301 11 -11.5 19s-0.166992 15.167 4.5 21.5s11 10.333 19 12s15.333 0.166992 22 -4.5c36 -26 62.667 -39.667 80 -41c33.333 -3.33301 59 5 77 25s22 46 12 78c-2 6.66699 -12.333 15.334 -31 26.001l-27 14l-12 7
c-8 6.66699 -13 14.334 -15 23.001c-2.66699 18.667 5.66602 33.334 24.999 44.001l10 4c10.667 12 17.667 21.667 21 29c2.66699 8 4.33398 20 5.00098 36c0 12 -3.33301 20.333 -10 25c-8.66699 6.66699 -21.667 10 -39 10s-35.166 -3 -53.499 -9s-32.166 -13 -41.499 -21
c-0.666992 -0.666992 -2 -3 -4 -7l-4 -8c-2.66699 -4.66699 -4.66699 -8.33398 -6 -11.001c-4 -6.66699 -10 -11 -18 -13s-15.333 -1 -22 3s-11 10 -13 18s-1 15.333 3 22z" />
    <glyph glyph-name="acute" unicode="&#xb4;" horiz-adv-x="243" 
d="M238 690c-37.333 -46 -90.667 -97.001 -160 -153.001c-6 -4.66699 -13 -6.5 -21 -5.5s-14.5 4.5 -19.5 10.5s-7 13 -6 21s4.5 14.667 10.5 20c66 52.667 116 100.334 150 143.001c5.33301 6 12 9.5 20 10.5s15 -1 21 -6s9.5 -11.5 10.5 -19.5s-0.833008 -15 -5.5 -21z
" />
    <glyph glyph-name="uni00B5" unicode="&#xb5;" horiz-adv-x="459" 
d="M102 68c-25.333 -83.333 -53 -157.667 -83 -223c-3.33301 -7.33301 -8.66602 -12.333 -15.999 -15s-14.666 -2.33398 -21.999 0.999023s-12.333 8.66602 -15 15.999s-2.33398 14.666 0.999023 21.999c37.333 82.667 74.333 190.334 111 323.001
c3.33301 36.667 12 73 26 109v2c3.33301 16 6.33301 29.333 9 40c4.66699 22 9.33398 39.667 14.001 53c6 20.667 12.667 35 20 43c2.66699 2 5 3.66699 7 5c6.66699 4 14 5.33301 22 4c11.333 -2.66699 18.666 -9.66699 21.999 -21c1.33301 -4 1.83301 -7.83301 1.5 -11.5
s-1.5 -9.16699 -3.5 -16.5c-0.666992 -1.33301 -2.33398 -5.66602 -5.00098 -12.999c-1.33301 -4.66699 -2.33301 -7.66699 -3 -9c-11.333 -41.333 -20.666 -71.666 -27.999 -90.999c-4.66699 -24.667 -7.66699 -39 -9 -43l-16 -61c-0.666992 -10 -1 -19.667 -1 -29
c1.33301 -21.333 6 -37.666 14 -48.999s21 -18 39 -20c32.667 -3.33301 68 26 106 88c12 20 24 42.667 36 68c8.66699 54 26 107.667 52 161c1.33301 2 2.5 5.16699 3.5 9.5s2.5 8.83301 4.5 13.5c6.66699 18 17 30 31 36c8.66699 3.33301 17 2.66602 25 -2.00098
c6.66699 -3.33301 11.334 -8.66602 14.001 -15.999c1.33301 -4 1.66602 -8 0.999023 -12c0 -2 -0.333008 -4 -1 -6l-3 -9c-1.33301 -6.66699 -4.33301 -15.667 -9 -27l-27 -77c-11.333 -32 -23 -61.333 -35 -88c-6.66699 -40.667 -8.66699 -87 -6 -139
c0.666992 -8 -1.83301 -14.833 -7.5 -20.5s-12.5 -8.83398 -20.5 -9.50098s-14.833 1.83301 -20.5 7.5s-8.83398 12.5 -9.50098 20.5c-0.666992 8.66699 -1 17.667 -1 27c-44 -60 -90.333 -87.667 -139 -83c-34 3.33301 -60.333 17.333 -79 42z" />
    <glyph glyph-name="paragraph" unicode="&#xb6;" horiz-adv-x="504" 
d="M416 650c-3.33301 -18 -4.49707 -79.165 -3.49707 -183.498s1.5 -165.5 1.5 -183.5c0 -26 -0.666992 -62.667 -2 -110s-2.33301 -81.333 -3 -102c-1.33301 -82 0.333984 -151.667 5.00098 -209c0.666992 -8 -1.66602 -15 -6.99902 -21s-12 -9.33301 -20 -10
s-15 1.66602 -21 6.99902s-9.33301 12 -10 20c-4.66699 58.667 -6.33398 130 -5.00098 214c0.666992 20.667 1.66699 54.667 3 102s2 83.666 2 108.999c0 18 -0.5 79.833 -1.5 185.5s0.166992 167.5 3.5 185.5c0 3.33301 0.666992 6.33301 2 9
c-32.667 0 -63.334 -3 -92.001 -9c-4.66699 -20 -7.66699 -41.667 -9 -65s-2.33301 -50.833 -3 -82.5s-1.33398 -55.834 -2.00098 -72.501c-12 -218 -18 -390.667 -18 -518c0 -8 -2.83301 -14.833 -8.5 -20.5s-12.5 -8.5 -20.5 -8.5s-14.833 2.83301 -20.5 8.5
s-8.5 12.5 -8.5 20.5c0 98 3 211.333 9 340c-54.667 23.333 -97.167 54 -127.5 92s-45.833 79 -46.5 123c-0.666992 44.667 14.166 86.167 44.499 124.5s73.166 69.833 128.499 94.5c12 4.66699 24.667 9 38 13c8 8.66699 17.667 11.334 29 8.00098h1
c76.667 16 153 14 229 -6c8 -2 14 -6.5 18 -13.5s5 -14.333 3 -22s-6.5 -13.5 -13.5 -17.5s-14.167 -5 -21.5 -3c-17.333 4.66699 -35.333 8 -54 10c0.666992 -2.66699 1 -5.66699 1 -9z" />
    <glyph glyph-name="periodcentered" unicode="&#xb7;" horiz-adv-x="196" 
d="M31 316c-1.33301 6 -2.33301 12.3311 -3 18.998c-0.666992 17.333 3.33301 34 12 50s21.334 28.333 38.001 37c7.33301 8 16 13.667 26 17c25.333 8 46.833 1.16699 64.5 -20.5s26.834 -49.167 27.501 -82.5c0 -0.666992 0.333008 -2.66699 1 -6v-10
c0.666992 -16 -4 -28.333 -14 -37c-3.33301 -2.66699 -7.16602 -5.16699 -11.499 -7.5s-8.16602 -4 -11.499 -5s-7.33301 -2 -12 -3s-8.33398 -1.66699 -11.001 -2s-5.83398 -0.666016 -9.50098 -0.999023s-5.83398 -0.5 -6.50098 -0.5
c-24.667 -2.66699 -45.334 2 -62.001 14c-2.66699 0.666992 -5.66699 1.33398 -9 2.00098c-7.33301 2.66699 -12.833 7.5 -16.5 14.5s-4.5 14.167 -2.5 21.5z" />
    <glyph glyph-name="cedilla" unicode="&#xb8;" horiz-adv-x="238" 
d="M177 -92c-2 -0.666992 -5.33594 -1.66504 -10.0029 -2.99805c-11.333 -2.66699 -20.333 -4 -27 -4c-16 0 -28.667 5.66699 -38 17c-8.66699 11.333 -10 23.666 -4 36.999c2 5.33301 6 10.666 12 15.999c4.66699 4.66699 8 7.66699 10 9l1 1
c2.66699 4 14.334 23.667 35.001 59c4 6.66699 9.83301 11 17.5 13s15 1 22 -3s11.5 -9.83301 13.5 -17.5s1 -15.167 -3 -22.5l-26 -44c15.333 0.666992 27.666 -4 36.999 -14c10 -10.667 16.667 -28 20 -52c2.66699 -17.333 3.33398 -32.666 2.00098 -45.999
c-4 -32.667 -18 -56.334 -42 -71.001c-19.333 -12 -43.666 -17 -72.999 -15c-36 2 -78 13.333 -126 34c-7.33301 3.33301 -12.333 8.83301 -15 16.5s-2.5 15.167 0.5 22.5s8.33301 12.333 16 15s15.167 2.66699 22.5 0c40.667 -18.667 76 -28.667 106 -30
c16.667 -1.33301 29.334 0.666992 38.001 6s13.667 14.666 15 27.999c1.33301 8.66699 1 19.334 -1 32.001c-0.666992 6 -1.66699 11.333 -3 16z" />
    <glyph glyph-name="uni00B9" unicode="&#xb9;" horiz-adv-x="292" 
d="M122 637l-10.999 -16c-16.667 -22 -34.334 -33.333 -53.001 -34c-24 -1.33301 -45 14 -63 46c-3.33301 7.33301 -3.83301 14.833 -1.5 22.5s7 13.334 14 17.001s14.333 4.33398 22 2.00098s13.5 -6.83301 17.5 -13.5c3.33301 -6.66699 6.33301 -11.667 9 -15
c2.66699 2 5.66699 5.33301 9 10c3.33301 4 10.666 16 21.999 36l12 18c3.33301 4 7 7.33301 11 10c8.66699 5.33301 18 6.66602 28 3.99902c13.333 -4.66699 23.666 -16.334 30.999 -35.001c4 -10.667 7.33301 -25 10 -43c4.66699 -28 8.33398 -66 11.001 -114
c2 -38.667 3.33301 -88 4 -148c24 4.66699 46.333 8.33398 67 11.001c8 0.666992 15 -1.5 21 -6.5s9.5 -11.5 10.5 -19.5s-1 -15 -6 -21s-11.5 -9.66699 -19.5 -11c-22 -2.66699 -48.333 -7 -79 -13c-5.33301 -8 -12.666 -12 -21.999 -12c-5.33301 0 -10.333 1.33301 -15 4
c-53.333 -12 -91.333 -20 -114 -24c-8 -1.33301 -15.333 0.5 -22 5.5s-10.667 11.333 -12 19s0.5 14.834 5.5 21.501s11.167 10.667 18.5 12c22 3.33301 58.333 10.666 109 21.999c-0.666992 61.333 -2 113.666 -4 156.999c-2 47.333 -5.33301 83.333 -10 108z" />
    <glyph glyph-name="ordmasculine" unicode="&#xba;" horiz-adv-x="335" 
d="M176 667c-18.667 4 -33.333 4.33301 -44 1c-20 -6 -37 -19.167 -51 -39.5s-21.667 -42.833 -23 -67.5s4.5 -46.667 17.5 -66s33.833 -32.666 62.5 -39.999c10.667 -2.66699 23 -5.33398 37 -8.00098c17.333 -2.66699 28.333 -3.66699 33 -3c24 2.66699 43 21 57 55
c15.333 34 18.333 64 9 90c-14 38 -46.667 64 -98 78zM255.001 696c35.333 -21.333 59.667 -50.332 73 -86.999c14.667 -40 11.667 -84.333 -9 -133c-10 -23.333 -23.833 -43.333 -41.5 -60s-38.167 -26.667 -61.5 -30c-10.667 -1.33301 -27.667 0 -51 4
c-15.333 2.66699 -29 5.66699 -41 9c-43.333 10.667 -75.333 31.5 -96 62.5s-30 65.5 -28 103.5c2 34.667 13.333 67.167 34 97.5s47.334 50.833 80.001 61.5c14 4 29.667 5.33301 47 4c3.33301 0 6.66602 -0.333008 9.99902 -1c5.33301 -0.666992 11 -1.66699 17 -3
c10.667 -2.66699 28 -8.33398 52 -17.001c6.66699 -2 11.667 -5.66699 15 -11z" />
    <glyph glyph-name="guillemotright" unicode="&#xbb;" horiz-adv-x="415" 
d="M102 427l84.998 -63.0049c26 -22.667 42 -43.667 48 -63c8 -26 1.33301 -52 -20 -78c-16.667 -20 -45.667 -44 -87 -72c-6.66699 -4.66699 -13.834 -6.16699 -21.501 -4.5s-13.834 5.83398 -18.501 12.501s-6.16699 13.834 -4.5 21.501s5.83398 13.834 12.501 18.501
c36.667 24.667 61.334 45 74.001 61c8 10 11.333 18 10 24c-2.66699 8.66699 -13 20.667 -31 36c-9.33301 8 -36.333 28.333 -81 61c-6.66699 4.66699 -10.5 10.834 -11.5 18.501s0.833008 14.834 5.5 21.501s10.834 10.5 18.501 11.5s14.834 -0.833008 21.501 -5.5z
M290.998 449.995c83.333 -38.667 125.004 -85.666 125.004 -140.999c0.666992 -51.333 -34.666 -102.666 -105.999 -153.999c-6.66699 -4.66699 -14 -6.33398 -22 -5.00098s-14.333 5.33301 -19 12s-6.33398 14 -5.00098 22s5.33301 14.333 12 19
c55.333 39.333 82.666 74.333 81.999 105c0 31.333 -30.333 61.333 -91 90c-7.33301 3.33301 -12.333 8.66602 -15 15.999s-2.33398 14.666 0.999023 21.999s8.66602 12.333 15.999 15s14.666 2.33398 21.999 -0.999023z" />
    <glyph glyph-name="onequarter" unicode="&#xbc;" horiz-adv-x="801" 
d="M477 190c4 -4.66699 12.001 -8.66699 24.001 -12c22 -6.66699 52.667 -9.66699 92 -9c14.667 0 30 0.666992 46 2c-0.666992 66.667 -1 114.667 -1 144c0 8.66699 0.333008 22.667 1 42c-20.667 -17.333 -44 -39 -70 -65c-28.667 -28.667 -52.334 -53.667 -71.001 -75
c-9.33301 -11.333 -16.333 -20.333 -21 -27zM697.001 118l0.000976562 -70.998c0 -8 -2.83301 -14.833 -8.5 -20.5s-12.5 -8.5 -20.5 -8.5s-14.833 2.83301 -20.5 8.5s-8.5 12.5 -8.5 20.5v66c-16 -1.33301 -31.333 -2 -46 -2c-44.667 -0.666992 -80.667 3 -108 11
c-42.667 12 -65.667 34 -69 66c-0.666992 7.33301 1 14.666 5 21.999c2 4 5 8.66699 9 14c5.33301 8 13.333 18.333 24 31c20 22.667 44.667 48.667 74 78s55.333 53.666 78 72.999c12 10.667 22 18.667 30 24c5.33301 3.33301 10 6 14 8c9.33301 4 18 5 26 3
c4.66699 -1.33301 8.5 -3.5 11.5 -6.5s5.16699 -5.5 6.5 -7.5l1 -3l2 -6v-3v-4v-9v-27c-0.666992 -31.333 -1 -51.333 -1 -60c0 -30 0.333008 -76.333 1 -139c30.667 4 53.667 8 69 12c7.33301 2 14.5 1 21.5 -3s11.5 -9.83301 13.5 -17.5s1 -15 -3 -22s-10 -11.5 -18 -13.5
c-18.667 -5.33301 -46.334 -10 -83.001 -14zM618.002 628.002c-20 -31.333 -48.333 -70.3301 -85 -116.997c-46 -56.667 -74.667 -93.334 -86 -110.001c-78 -108 -146.667 -223 -206 -345c-3.33301 -6.66699 -8.83301 -11.334 -16.5 -14.001s-15 -2.33398 -22 0.999023
s-11.833 8.83301 -14.5 16.5s-2.33398 15.167 0.999023 22.5c60.667 124.667 130.667 242.334 210 353.001c12.667 17.333 42 54.666 88 111.999c36.667 45.333 63.667 82.333 81 111c4.66699 7.33301 10.834 11.833 18.501 13.5s15 0.333984 22 -3.99902
s11.333 -10.333 13 -18s0.5 -14.834 -3.5 -21.501zM291.002 334.005c-15.333 1.33301 -31.333 1 -48 -1v-12c0 -8 -2.83301 -14.833 -8.5 -20.5s-12.5 -8.5 -20.5 -8.5s-14.833 2.83301 -20.5 8.5s-8.5 12.5 -8.5 20.5c-10.667 -2.66699 -26 -7 -46 -13l-44 -12
c-8 -2 -15.5 -1 -22.5 3s-11.5 9.83301 -13.5 17.5s-1 15 3 22s9.66699 11.5 17 13.5l46 13c26 7.33301 46.333 12.666 61 15.999c0.666992 37.333 1 69.333 1 96c0.666992 39.333 0.666992 70 0 92c0 2 -0.333008 4 -1 6l-2 -2c-7.33301 -5.33301 -16 -12.333 -26 -21
l-14 -12c-6.66699 -4.66699 -14 -6.5 -22 -5.5s-14.333 4.66699 -19 11s-6.5 13.5 -5.5 21.5s4.5 14.333 10.5 19l15 12c10 8.66699 18.667 15.667 26 21c12 9.33301 22.333 16 31 20c6 3.33301 12 5.33301 18 6c11.333 2.66699 21.333 0.666992 30 -6
c6 -4.66699 10 -11.667 12 -21c0.666992 -3.33301 1.33398 -7.66602 2.00098 -12.999c1.33301 -8 2.33301 -19.333 3 -34c0.666992 -22.667 0.666992 -54.334 0 -95.001c0 -24 -0.333008 -52.333 -1 -85c18.667 2 35.667 2.33301 51 1c8 -0.666992 14.667 -4 20 -10
s7.66602 -13 6.99902 -21s-4 -14.667 -10 -20s-13 -7.66602 -21 -6.99902z" />
    <glyph glyph-name="onehalf" unicode="&#xbd;" horiz-adv-x="735" 
d="M246 327c-4.66699 -1.33301 -17.001 -4.33301 -37.001 -9l-43 -12c-9.33301 -2 -22 -4.5 -38 -7.5s-30.667 -5.16699 -44 -6.5c-8 -0.666992 -15.167 1.5 -21.5 6.5s-9.83301 11.5 -10.5 19.5s1.5 15.167 6.5 21.5s11.5 9.83301 19.5 10.5c17.333 2 36.333 5 57 9
c7.33301 42.667 13.333 89.667 18 141c3.33301 38 4.33301 69 3 93c0 7.33301 -0.333008 13.666 -1 18.999l-18 -16c-17.333 -16.667 -34 -34.667 -50 -54c-4.66699 -6 -11 -9.33301 -19 -10s-15.167 1.5 -21.5 6.5s-9.83301 11.5 -10.5 19.5s1.66602 15.333 6.99902 22
c16.667 20 34.334 39 53.001 57c14.667 14.667 27.334 25.334 38.001 32.001c8 5.33301 15.667 9 23 11c14 3.33301 26 0.333008 36 -9c8 -7.33301 13.667 -19 17 -35c2 -10 3.33301 -23.333 4 -40c1.33301 -27.333 0.333008 -61 -3 -101
c-3.33301 -40.667 -8.33301 -81 -15 -121l36 9c8 2 15.333 1 22 -3s11 -10 13 -18s1 -15.333 -3 -22s-10 -11 -18 -13zM586.999 684c-4.66699 -13.333 -10.335 -27 -17.002 -41s-12.667 -25.667 -18 -35l-22 -35c-9.33301 -14.667 -16 -25.667 -20 -33
c-22 -37.333 -54.833 -89.5 -98.5 -156.5s-81.334 -127.833 -113.001 -182.5s-58.167 -108 -79.5 -160c-3.33301 -7.33301 -8.66602 -12.5 -15.999 -15.5s-14.666 -3 -21.999 0s-12.5 8.16699 -15.5 15.5s-3.16699 14.666 -0.5 21.999c22 53.333 49.5 108.666 82.5 165.999
s71.667 120 116 188s76.5 119 96.5 153l21 34l21 34c4.66699 8 9.83398 17.833 15.501 29.5s10.167 23.167 13.5 34.5c2.66699 8 7.66699 13.667 15 17s14.833 3.83301 22.5 1.5s13.167 -7.16602 16.5 -14.499s4 -14.666 2 -21.999zM492.998 325l6 6.99609
c4 5.33301 8.33301 10.333 13 15s9 8.33398 13 11.001c8.66699 6.66699 22.334 13.667 41.001 21s36.667 12.333 54 15c24.667 4 45 2 61 -6c24 -12.667 33.667 -34.334 29 -65.001c-2 -10.667 -8.66699 -22.667 -20 -36c-7.33301 -8.66699 -17.666 -19 -30.999 -31l-45 -38
l-39 -33c-34.667 -30 -59 -53.333 -73 -70c-6.66699 -8.66699 -11.334 -16 -14.001 -22c0.666992 0 2.66699 -0.333008 6 -1c6 -1.33301 10 -2.33301 12 -3c9.33301 -2 19.333 -3.33301 30 -4s24.667 -1 42 -1h35c28 -0.666992 58.667 0 92 2
c8 0.666992 15 -1.66602 21 -6.99902s9.33301 -12 10 -20s-1.66602 -15 -6.99902 -21s-12 -9.33301 -20 -10c-35.333 -2 -68 -2.66699 -98 -2h-31c-19.333 0 -35.833 0.5 -49.5 1.5s-25.834 2.83301 -36.501 5.5c-1.33301 0 -4.66602 0.666992 -9.99902 2
c-6 0.666992 -10.667 1.66699 -14 3c-16.667 4 -28.334 12 -35.001 24c-8.66699 14.667 -9.33398 31.334 -2.00098 50.001c4.66699 12 13 25.333 25 40c16 19.333 42.333 45 79 77c6 4.66699 19 15.667 39 33l44 37c12 10.667 20.667 19.334 26 26.001
c2.66699 2.66699 5 5.33398 7 8.00098v4c-5.33301 1.33301 -13.333 1.33301 -24 0c-13.333 -2 -27.166 -5.83301 -41.499 -11.5s-23.833 -10.167 -28.5 -13.5c-2.66699 -2 -4.83398 -4 -6.50098 -6s-4 -5 -7 -9s-6.5 -8 -10.5 -12c-5.33301 -6 -12 -9 -20 -9
s-15 2.66699 -21 8s-9 12 -9 20s2.66699 15 8 21z" />
    <glyph glyph-name="threequarters" unicode="&#xbe;" horiz-adv-x="798" 
d="M551 185l1.00098 -0.000976562c18 -6 43.333 -11.667 76 -17c16.667 -2.66699 34 -5 52 -7c-2 19.333 -3 37.666 -3 54.999c0 6.66699 0.333008 17.834 1 33.501s1 26.167 1 31.5c0.666992 20.667 0 36.334 -2 47.001c-3.33301 -2.66699 -7 -6 -11 -10
c-14.667 -14.667 -33.334 -35 -56.001 -61l-53 -64zM745.001 94.999l4.00195 -34.0029c0.666992 -7.33301 -1.5 -14.166 -6.5 -20.499s-11.333 -10 -19 -11s-14.667 1 -21 6s-10.166 11.5 -11.499 19.5l-5 46c-24.667 3.33301 -47.334 6.66602 -68.001 9.99902
c-35.333 6 -63 12 -83 18c-13.333 4.66699 -24 9.33398 -32 14.001c-16 10 -23.333 22.667 -22 38c0 3.33301 1 7 3 11c0.666992 0.666992 1.16699 1.5 1.5 2.5s1.16602 2.16699 2.49902 3.5c1.33301 2 3 4.66699 5 8l18 23l55 66c23.333 27.333 43.333 49 60 65
c10 10 18.667 17.667 26 23c5.33301 3.33301 10 6 14 8c8 4 15.667 5.33301 23 4c12 -2.66699 22.333 -9.66699 31 -21c4.66699 -6 8.33398 -13.333 11.001 -22c5.33301 -17.333 7.33301 -41.666 6 -72.999c0 -5.33301 -0.333008 -15.5 -1 -30.5s-1 -25.833 -1 -32.5
c0 -18.667 1 -39.334 3 -62.001c9.33301 -0.666992 20.666 -1.66699 33.999 -3c8 -0.666992 14.667 -4 20 -10s7.66602 -13 6.99902 -21s-4 -14.667 -10 -20s-13 -7.66602 -21 -6.99902c-6 0.666992 -13.667 1.33398 -23 2.00098zM47.0029 588.996
c0.666992 2 1.66797 4.33301 3.00098 7l3 10c4.66699 11.333 9.66699 20 15 26c12 13.333 30 25 54 35s47.333 16 70 18c29.333 2 53.333 -2.66699 72 -14c24 -16 34.667 -41 32 -75c-1.33301 -14.667 -5.5 -28.5 -12.5 -41.5s-13.667 -22.667 -20 -29
s-14.833 -14.166 -25.5 -23.499c14 -4.66699 25 -11 33 -19c13.333 -13.333 20.666 -30.666 21.999 -51.999c2 -36 -7.16699 -66 -27.5 -90s-46.166 -40.333 -77.499 -49c-27.333 -8.66699 -57 -9.16699 -89 -1.5s-58 22.834 -78 45.501c-5.33301 6 -7.66602 13 -6.99902 21
s4 14.667 10 20s13 7.66602 21 6.99902s14.667 -4 20 -10c11.333 -13.333 27.166 -22.333 47.499 -27s40.5 -4.33398 60.5 0.999023s35.667 14.833 47 28.5s16.333 30.5 15 50.5c-0.666992 7.33301 -2.33398 12.333 -5.00098 15c-2 2 -6.33301 4 -13 6
c-2 0.666992 -6 1.66699 -12 3c-6.66699 2 -11.667 3.66699 -15 5c-18.667 6.66699 -29.667 18 -33 34c-4.66699 18.667 3 33 23 43l10 4c2 1.33301 5.5 4.33301 10.5 9s8.16699 7.66699 9.5 9s3.83301 3.66602 7.5 6.99902s6 5.83301 7 7.5s2.66699 4 5 7
s3.83301 5.5 4.5 7.5s1.5 4.66699 2.5 8s1.5 6.66602 1.5 9.99902c1.33301 10 -0.666992 16.667 -6 20c-7.33301 4.66699 -19 6.33398 -35 5.00098c-17.333 -1.33301 -34.333 -5.66602 -51 -12.999c-17.333 -7.33301 -28.666 -14 -33.999 -20
c-1.33301 -1.33301 -3 -4.33301 -5 -9c0 -0.666992 -0.166992 -1.5 -0.5 -2.5s-0.833008 -2.16699 -1.5 -3.5s-1 -2.33301 -1 -3c-2 -4.66699 -3.66699 -8.33398 -5 -11.001c-3.33301 -7.33301 -8.83301 -12.333 -16.5 -15s-15 -2.33398 -22 0.999023
s-11.833 8.83301 -14.5 16.5s-2.33398 14.834 0.999023 21.501zM617.004 624.996c-6 -22 -14.667 -43.665 -26 -64.998s-26.333 -46 -45 -74s-30 -45.333 -34 -52c-16 -26 -36.667 -63.333 -62 -112c-28 -53.333 -49 -91.666 -63 -114.999l-51 -77
c-26.667 -41.333 -45.667 -74 -57 -98c-3.33301 -7.33301 -8.66602 -12.333 -15.999 -15s-14.666 -2.33398 -21.999 0.999023s-12.333 8.66602 -15 15.999s-2.33398 14.666 0.999023 21.999c11.333 26 31.666 61.667 60.999 107l49 74c14 23.333 34.667 60.666 62 111.999
c30 56 51 94.333 63 115c7.33301 12 19.666 30.833 36.999 56.5s30.833 47.334 40.5 65.001s16.834 35.5 21.501 53.5c2 8 6.5 14 13.5 18s14.333 5 22 3s13.5 -6.5 17.5 -13.5s5 -14.167 3 -21.5z" />
    <glyph glyph-name="questiondown" unicode="&#xbf;" horiz-adv-x="498" 
d="M330 415l-0.998047 -0.999023c-4.66699 -2.66699 -10.667 -5 -18 -7c-10.667 -2.66699 -21.667 -4 -33 -4c-6 0 -11.333 0.666992 -16 2c-8.66699 2 -15 6.66699 -19 14c-2.66699 4 -4.16699 8.16699 -4.5 12.5s0 8 1 11s2.66699 5.83301 5 8.5s4 4.5 5 5.5
s1.83301 1.5 2.5 1.5c2.66699 2.66699 6.66699 4.66699 12 6c-5.33301 12 -6 23.333 -2 34c5.33301 16 19.666 26.333 42.999 31c19.333 3.33301 37.666 -4.33398 54.999 -23.001c13.333 -14 20.333 -27.667 21 -41c0 -16 -7.33301 -28.667 -22 -38
c-6 -4 -15 -7.66699 -27 -11zM340.002 283.001c-4.66699 -14 -10.168 -27.6709 -16.501 -41.0039s-15.833 -28 -28.5 -44l-27 -34c-4.66699 -6.66699 -16.167 -19.834 -34.5 -39.501s-27.833 -30.167 -28.5 -31.5c-28.667 -32 -49.334 -59.667 -62.001 -83
s-17 -46.333 -13 -69c1.33301 -10.667 5.5 -20.667 12.5 -30s17.5 -21.666 31.5 -36.999c18.667 -20 51 -35.667 97 -47c44.667 -10.667 83.667 4 117 44c30.667 37.333 48.334 83 53.001 137c0.666992 8 4.16699 14.5 10.5 19.5s13.5 7.16699 21.5 6.5
s14.5 -4.16699 19.5 -10.5s7.16699 -13.5 6.5 -21.5c-6 -65.333 -28.333 -121.333 -67 -168c-48 -58.667 -106.333 -79.667 -175 -63c-57.333 14 -99 35 -125 63l-24 27c-4.66699 5.33301 -11.167 15 -19.5 29s-13.833 27.667 -16.5 41
c-2.66699 19.333 -2.16699 38.333 1.5 57s10.667 36.834 21 54.501s20.333 32.834 30 45.501s22.167 27.334 37.5 44.001c4.66699 4.66699 13.334 14 26.001 28l26 30c5.33301 5.33301 12.666 13.833 21.999 25.5s16.333 21.167 21 28.5s9.66699 16 15 26
s9.33301 19.667 12 29c2.66699 8 7.5 13.833 14.5 17.5s14.333 4.33398 22 2.00098s13.334 -7 17.001 -14s4.5 -14.167 2.5 -21.5z" />
    <glyph glyph-name="Agrave" unicode="&#xc0;" horiz-adv-x="553" 
d="M329 317l-5 13.999c-8 20.667 -20 56.667 -36 108c-14.667 45.333 -27 80.333 -37 105l-13 31c-39.333 -159.333 -62.333 -250.666 -69 -273.999c18 2 44.667 4.66699 80 8s62 6 80 8zM189 824.999c10 -26 28.9971 -68.667 56.9971 -128c27.333 -58 47 -101.667 59 -131
c10.667 -25.333 23.334 -61.666 38.001 -108.999c16 -50.667 27.667 -86 35 -106l10 -27c48.667 6.66699 92 15 130 25c7.33301 2 14.5 1 21.5 -3s11.5 -9.83301 13.5 -17.5s1 -15 -3 -22s-10 -11.5 -18 -13.5c-35.333 -9.33301 -76 -17.333 -122 -24
c62.667 -158.667 99.334 -254.667 110.001 -288c2.66699 -7.33301 2.33398 -14.666 -0.999023 -21.999s-8.83301 -12.166 -16.5 -14.499s-15.167 -1.83301 -22.5 1.5s-12 9 -14 17l-34 93l-45 114c-18 44 -30 74.333 -36 91c-23.333 -2.66699 -57.333 -6.33398 -102 -11.001
l-97 -9c-4 -12.667 -11 -33.334 -21 -62.001s-17.833 -53.167 -23.5 -73.5s-10.167 -40.5 -13.5 -60.5c-1.33301 -8 -5.33301 -14.333 -12 -19s-14 -6.33398 -22 -5.00098s-14.333 5.33301 -19 12s-6.33398 14 -5.00098 22c6 31.333 23.333 90.333 52 177
c-8 -0.666992 -15.167 1.33301 -21.5 6s-10 11 -11 19s0.833008 15.167 5.5 21.5s11 10.166 19 11.499l27 4c13.333 46 30.333 111.667 51 197s34 139.333 40 162l2 6l-6 13c-27.333 57.333 -47 101 -59 131c-2.66699 7.33301 -2.5 14.833 0.5 22.5
s8.16699 12.834 15.5 15.501s14.833 2.5 22.5 -0.5s12.834 -8.16699 15.501 -15.5zM274.997 836.999c34 -50 65.6621 -109.335 94.9951 -178.002c2.66699 -7.33301 2.5 -14.666 -0.5 -21.999s-8.16699 -12.5 -15.5 -15.5s-14.666 -3 -21.999 0s-12.666 8.16699 -15.999 15.5
c-27.333 64.667 -57 120.667 -89 168c-4.66699 6.66699 -6.16699 13.834 -4.5 21.501s5.83398 13.834 12.501 18.501s13.834 6.16699 21.501 4.5s13.834 -5.83398 18.501 -12.501z" />
    <glyph glyph-name="Aacute" unicode="&#xc1;" horiz-adv-x="553" 
d="M329 317l-5 13.999c-8 20.667 -20 56.667 -36 108c-14.667 45.333 -27 80.333 -37 105l-13 31c-39.333 -159.333 -62.333 -250.666 -69 -273.999c18 2 44.667 4.66699 80 8s62 6 80 8zM189 824.999c10 -26 28.9971 -68.667 56.9971 -128c27.333 -58 47 -101.667 59 -131
c10.667 -25.333 23.334 -61.666 38.001 -108.999c16 -50.667 27.667 -86 35 -106l10 -27c48.667 6.66699 92 15 130 25c7.33301 2 14.5 1 21.5 -3s11.5 -9.83301 13.5 -17.5s1 -15 -3 -22s-10 -11.5 -18 -13.5c-35.333 -9.33301 -76 -17.333 -122 -24
c62.667 -158.667 99.334 -254.667 110.001 -288c2.66699 -7.33301 2.33398 -14.666 -0.999023 -21.999s-8.83301 -12.166 -16.5 -14.499s-15.167 -1.83301 -22.5 1.5s-12 9 -14 17l-34 93l-45 114c-18 44 -30 74.333 -36 91c-23.333 -2.66699 -57.333 -6.33398 -102 -11.001
l-97 -9c-4 -12.667 -11 -33.334 -21 -62.001s-17.833 -53.167 -23.5 -73.5s-10.167 -40.5 -13.5 -60.5c-1.33301 -8 -5.33301 -14.333 -12 -19s-14 -6.33398 -22 -5.00098s-14.333 5.33301 -19 12s-6.33398 14 -5.00098 22c6 31.333 23.333 90.333 52 177
c-8 -0.666992 -15.167 1.33301 -21.5 6s-10 11 -11 19s0.833008 15.167 5.5 21.5s11 10.166 19 11.499l27 4c13.333 46 30.333 111.667 51 197s34 139.333 40 162l2 6l-6 13c-27.333 57.333 -47 101 -59 131c-2.66699 7.33301 -2.5 14.833 0.5 22.5
s8.16699 12.834 15.5 15.501s14.833 2.5 22.5 -0.5s12.834 -8.16699 15.501 -15.5zM466.997 830.999c-23.333 -45.333 -64.333 -104.663 -123 -177.996c-5.33301 -6 -12 -9.5 -20 -10.5s-15 1 -21 6s-9.5 11.5 -10.5 19.5s0.833008 15 5.5 21
c56.667 70.667 95.667 126.667 117 168c4 7.33301 9.83301 12.166 17.5 14.499s15 1.66602 22 -2.00098s11.667 -9.33398 14 -17.001s1.83301 -14.834 -1.5 -21.501z" />
    <glyph glyph-name="Acircumflex" unicode="&#xc2;" horiz-adv-x="553" 
d="M329 317l-5 13.999c-8 20.667 -20 56.667 -36 108c-14.667 45.333 -27 80.333 -37 105l-13 31c-39.333 -159.333 -62.333 -250.666 -69 -273.999c18 2 44.667 4.66699 80 8s62 6 80 8zM189 824.999c10 -26 28.9971 -68.667 56.9971 -128c27.333 -58 47 -101.667 59 -131
c10.667 -25.333 23.334 -61.666 38.001 -108.999c16 -50.667 27.667 -86 35 -106l10 -27c48.667 6.66699 92 15 130 25c7.33301 2 14.5 1 21.5 -3s11.5 -9.83301 13.5 -17.5s1 -15 -3 -22s-10 -11.5 -18 -13.5c-35.333 -9.33301 -76 -17.333 -122 -24
c62.667 -158.667 99.334 -254.667 110.001 -288c2.66699 -7.33301 2.33398 -14.666 -0.999023 -21.999s-8.83301 -12.166 -16.5 -14.499s-15.167 -1.83301 -22.5 1.5s-12 9 -14 17l-34 93l-45 114c-18 44 -30 74.333 -36 91c-23.333 -2.66699 -57.333 -6.33398 -102 -11.001
l-97 -9c-4 -12.667 -11 -33.334 -21 -62.001s-17.833 -53.167 -23.5 -73.5s-10.167 -40.5 -13.5 -60.5c-1.33301 -8 -5.33301 -14.333 -12 -19s-14 -6.33398 -22 -5.00098s-14.333 5.33301 -19 12s-6.33398 14 -5.00098 22c6 31.333 23.333 90.333 52 177
c-8 -0.666992 -15.167 1.33301 -21.5 6s-10 11 -11 19s0.833008 15.167 5.5 21.5s11 10.166 19 11.499l27 4c13.333 46 30.333 111.667 51 197s34 139.333 40 162l2 6l-6 13c-27.333 57.333 -47 101 -59 131c-2.66699 7.33301 -2.5 14.833 0.5 22.5
s8.16699 12.834 15.5 15.501s14.833 2.5 22.5 -0.5s12.834 -8.16699 15.501 -15.5zM266.997 729.999c0 1.33301 6 16.334 18 45.001c10.667 26.667 20.667 48.667 30 66c13.333 26 26.666 45.667 39.999 59c24 22.667 48 27 72 13
c11.333 -6.66699 18.666 -17.667 21.999 -33c0.666992 -4 1.33398 -7.33301 2.00098 -10v-1c8.66699 -22 28.334 -64.667 59.001 -128c3.33301 -7.33301 3.66602 -14.833 0.999023 -22.5s-7.5 -13.167 -14.5 -16.5s-14.333 -3.66602 -22 -0.999023
s-13.167 7.33398 -16.5 14.001c-31.333 65.333 -51.666 109.333 -60.999 132c-0.666992 2.66699 -1.66699 6 -3 10c-8 -8.66699 -17.333 -23 -28 -43c-8 -16 -17 -36.333 -27 -61c-12.667 -30 -19.334 -45.667 -20.001 -47c-3.33301 -7.33301 -8.66602 -12.333 -15.999 -15
s-14.666 -2.33398 -21.999 0.999023s-12.333 8.66602 -15 15.999s-2.33398 14.666 0.999023 21.999z" />
    <glyph glyph-name="Atilde" unicode="&#xc3;" horiz-adv-x="553" 
d="M329 317l-5 13.999c-8 20.667 -20 56.667 -36 108c-14.667 45.333 -27 80.333 -37 105l-13 31c-39.333 -159.333 -62.333 -250.666 -69 -273.999c18 2 44.667 4.66699 80 8s62 6 80 8zM189 824.999c10 -26 28.9971 -68.667 56.9971 -128c27.333 -58 47 -101.667 59 -131
c10.667 -25.333 23.334 -61.666 38.001 -108.999c16 -50.667 27.667 -86 35 -106l10 -27c48.667 6.66699 92 15 130 25c7.33301 2 14.5 1 21.5 -3s11.5 -9.83301 13.5 -17.5s1 -15 -3 -22s-10 -11.5 -18 -13.5c-35.333 -9.33301 -76 -17.333 -122 -24
c62.667 -158.667 99.334 -254.667 110.001 -288c2.66699 -7.33301 2.33398 -14.666 -0.999023 -21.999s-8.83301 -12.166 -16.5 -14.499s-15.167 -1.83301 -22.5 1.5s-12 9 -14 17l-34 93l-45 114c-18 44 -30 74.333 -36 91c-23.333 -2.66699 -57.333 -6.33398 -102 -11.001
l-97 -9c-4 -12.667 -11 -33.334 -21 -62.001s-17.833 -53.167 -23.5 -73.5s-10.167 -40.5 -13.5 -60.5c-1.33301 -8 -5.33301 -14.333 -12 -19s-14 -6.33398 -22 -5.00098s-14.333 5.33301 -19 12s-6.33398 14 -5.00098 22c6 31.333 23.333 90.333 52 177
c-8 -0.666992 -15.167 1.33301 -21.5 6s-10 11 -11 19s0.833008 15.167 5.5 21.5s11 10.166 19 11.499l27 4c13.333 46 30.333 111.667 51 197s34 139.333 40 162l2 6l-6 13c-27.333 57.333 -47 101 -59 131c-2.66699 7.33301 -2.5 14.833 0.5 22.5
s8.16699 12.834 15.5 15.501s14.833 2.5 22.5 -0.5s12.834 -8.16699 15.501 -15.5zM246.997 728.999c14.667 39.333 29.333 66.666 44 81.999c19.333 20 40.666 25 63.999 15c10.667 -4 25.334 -14.667 44.001 -32c16.667 -15.333 30 -26 40 -32
c8.66699 -5.33301 15.667 -7.66602 21 -6.99902c3.33301 1.33301 6.66602 4.33301 9.99902 9c9.33301 13.333 15.666 35 18.999 65c1.33301 7.33301 5.16602 13.5 11.499 18.5s13.333 7 21 6s14 -4.66699 19 -11s7.16699 -13.5 6.5 -21.5
c-4.66699 -38.667 -14.334 -68.667 -29.001 -90c-12.667 -17.333 -28 -28 -46 -32c-19.333 -4.66699 -40.333 -0.333984 -63 12.999c-13.333 8 -29.666 21 -48.999 39c-13.333 12 -22 19 -26 21l-1 -1c-9.33301 -9.33301 -20 -30 -32 -62
c-2.66699 -7.33301 -7.66699 -12.666 -15 -15.999s-14.666 -3.66602 -21.999 -0.999023s-12.666 7.66699 -15.999 15s-3.66602 14.666 -0.999023 21.999z" />
    <glyph glyph-name="Adieresis" unicode="&#xc4;" horiz-adv-x="553" 
d="M329 317l-5 13.999c-8 20.667 -20 56.667 -36 108c-14.667 45.333 -27 80.333 -37 105l-13 31c-39.333 -159.333 -62.333 -250.666 -69 -273.999c18 2 44.667 4.66699 80 8s62 6 80 8zM37 718.999c2 28.667 10.332 49 24.999 61c10 7.33301 20.167 10.5 30.5 9.5
s19.5 -4.83301 27.5 -11.5c7.33301 -6.66699 11.833 -15 13.5 -25s-0.166016 -20.333 -5.49902 -31c-9.33301 -17.333 -28 -28.333 -56 -33c-0.666992 0 -1 -0.333008 -1 -1h-3h-4c-6.66699 0.666992 -12.5 3.16699 -17.5 7.5s-8.16699 9.83301 -9.5 16.5v7z
M188.999 824.999c10 -26 28.9971 -68.667 56.9971 -128c27.333 -58 47 -101.667 59 -131c10.667 -25.333 23.334 -61.666 38.001 -108.999c16 -50.667 27.667 -86 35 -106l10 -27c48.667 6.66699 92 15 130 25c7.33301 2 14.5 1 21.5 -3s11.5 -9.83301 13.5 -17.5
s1 -15 -3 -22s-10 -11.5 -18 -13.5c-35.333 -9.33301 -76 -17.333 -122 -24c62.667 -158.667 99.334 -254.667 110.001 -288c2.66699 -7.33301 2.33398 -14.666 -0.999023 -21.999s-8.83301 -12.166 -16.5 -14.499s-15.167 -1.83301 -22.5 1.5s-12 9 -14 17l-34 93l-45 114
c-18 44 -30 74.333 -36 91c-23.333 -2.66699 -57.333 -6.33398 -102 -11.001l-97 -9c-4 -12.667 -11 -33.334 -21 -62.001s-17.833 -53.167 -23.5 -73.5s-10.167 -40.5 -13.5 -60.5c-1.33301 -8 -5.33301 -14.333 -12 -19s-14 -6.33398 -22 -5.00098s-14.333 5.33301 -19 12
s-6.33398 14 -5.00098 22c6 31.333 23.333 90.333 52 177c-8 -0.666992 -15.167 1.33301 -21.5 6s-10 11 -11 19s0.833008 15.167 5.5 21.5s11 10.166 19 11.499l27 4c13.333 46 30.333 111.667 51 197s34 139.333 40 162l2 6l-6 13c-27.333 57.333 -47 101 -59 131
c-2.66699 7.33301 -2.5 14.833 0.5 22.5s8.16699 12.834 15.5 15.501s14.833 2.5 22.5 -0.5s12.834 -8.16699 15.501 -15.5zM394.996 754.999c-4.66699 -28 -15.332 -46.668 -31.999 -56.001c-10.667 -6 -21 -8 -31 -6s-18.5 6.83301 -25.5 14.5s-10.833 16.5 -11.5 26.5
s2.66602 20 9.99902 30c11.333 15.333 31.333 24 60 26h2h2h3c6.66699 -1.33301 12.167 -4.5 16.5 -9.5s6.83301 -10.833 7.5 -17.5v-2v-2c0 -1.33301 -0.333008 -2.66602 -1 -3.99902z" />
    <glyph glyph-name="Aring" unicode="&#xc5;" horiz-adv-x="553" 
d="M329 317l-5 13.999c-8 20.667 -20 56.667 -36 108c-14.667 45.333 -27 80.333 -37 105l-13 31c-39.333 -159.333 -62.333 -250.666 -69 -273.999c18 2 44.667 4.66699 80 8s62 6 80 8zM382 759.999c-6 13.333 -14.167 22.999 -24.5 28.999s-19.833 8 -28.5 6
c-21.333 -3.33301 -28.666 -20.666 -21.999 -51.999c3.33301 -14 9 -23.333 17 -28c7.33301 -3.33301 15.666 -3.33301 24.999 0c19.333 6.66699 30.333 21.667 33 45zM418 811.998c12 -3.33301 19 -10.9971 21 -22.9971c4.66699 -30.667 0 -57.667 -14 -81
s-33 -39.333 -57 -48c-25.333 -9.33301 -49 -8 -71 4c-24 13.333 -39.333 35.666 -46 66.999s-3.5 58.166 9.5 80.499s32.167 36.166 57.5 41.499c18 2.66699 36 0.5 54 -6.5s33.333 -18.5 46 -34.5zM189 825.001c10 -26 28.9971 -68.667 56.9971 -128
c27.333 -58 47 -101.667 59 -131c10.667 -25.333 23.334 -61.666 38.001 -108.999c16 -50.667 27.667 -86 35 -106l10 -27c48.667 6.66699 92 15 130 25c7.33301 2 14.5 1 21.5 -3s11.5 -9.83301 13.5 -17.5s1 -15 -3 -22s-10 -11.5 -18 -13.5
c-35.333 -9.33301 -76 -17.333 -122 -24c62.667 -158.667 99.334 -254.667 110.001 -288c2.66699 -7.33301 2.33398 -14.666 -0.999023 -21.999s-8.83301 -12.166 -16.5 -14.499s-15.167 -1.83301 -22.5 1.5s-12 9 -14 17l-34 93l-45 114c-18 44 -30 74.333 -36 91
c-23.333 -2.66699 -57.333 -6.33398 -102 -11.001l-97 -9c-4 -12.667 -11 -33.334 -21 -62.001s-17.833 -53.167 -23.5 -73.5s-10.167 -40.5 -13.5 -60.5c-1.33301 -8 -5.33301 -14.333 -12 -19s-14 -6.33398 -22 -5.00098s-14.333 5.33301 -19 12s-6.33398 14 -5.00098 22
c6 31.333 23.333 90.333 52 177c-8 -0.666992 -15.167 1.33301 -21.5 6s-10 11 -11 19s0.833008 15.167 5.5 21.5s11 10.166 19 11.499l27 4c13.333 46 30.333 111.667 51 197s34 139.333 40 162l2 6l-6 13c-27.333 57.333 -47 101 -59 131
c-2.66699 7.33301 -2.5 14.833 0.5 22.5s8.16699 12.834 15.5 15.501s14.833 2.5 22.5 -0.5s12.834 -8.16699 15.501 -15.5z" />
    <glyph glyph-name="AE" unicode="&#xc6;" horiz-adv-x="899" 
d="M329 317l-5 13.999c-8 20.667 -20 56.667 -36 108c-14.667 45.333 -27 80.333 -37 105l-13 31c-39.333 -159.333 -62.333 -250.666 -69 -273.999c18 2 44.667 4.66699 80 8s62 6 80 8zM189 824.999c11.333 -29.333 30.3301 -71.9961 56.9971 -127.996l9 -18
c2.66699 2 5.66699 3.66699 9 5c12.667 6.66699 29 13 49 19c33.333 10 77.666 20.333 132.999 31l137 24c56 9.33301 85 14.333 87 15c8 2 15.333 0.833008 22 -3.5s11 -10.333 13 -18s0.833008 -14.834 -3.5 -21.501s-10.166 -11 -17.499 -13
c-10.667 -2.66699 -41 -8 -91 -16c-58.667 -10 -104 -18 -136 -24c-54 -10.667 -96.333 -20.667 -127 -30c-5.33301 -1.33301 -10.333 -3 -15 -5c8 -3.33301 13.333 -9.33301 16 -18s1.33398 -16.667 -3.99902 -24c47.333 -105.333 73.333 -164 78 -176
c10.667 -25.333 22 -56 34 -92c28 4.66699 54.333 10.334 79 17.001c5.33301 1.33301 11 1 17 -1c52.667 12.667 101.334 25.334 146.001 38.001c8 2 15.5 1 22.5 -3s11.5 -9.83301 13.5 -17.5s1 -15 -3 -22s-9.66699 -11.5 -17 -13.5c-66 -18 -145 -37.667 -237 -59
c25.333 -74.667 48 -131.667 68 -171c32.667 2.66699 67.167 8.16699 103.5 16.5s78.5 19.666 126.5 33.999s83.333 24.166 106 29.499c8 2 15.333 1 22 -3s11 -10 13 -18s1 -15.333 -3 -22s-10 -11 -18 -13c-16 -4 -52.5 -14.333 -109.5 -31s-106.5 -29.334 -148.5 -38.001
s-82.333 -13.334 -121 -14.001l21 -60c2.66699 -7.33301 2.33398 -14.666 -0.999023 -21.999s-8.83301 -12.166 -16.5 -14.499s-15.167 -1.83301 -22.5 1.5s-12 9 -14 17l-34 93l-45 114c-18 44 -30 74.333 -36 91c-23.333 -2.66699 -57.333 -6.33398 -102 -11.001l-97 -9
c-4 -12.667 -11 -33.334 -21 -62.001s-17.833 -53.167 -23.5 -73.5s-10.167 -40.5 -13.5 -60.5c-1.33301 -8 -5.33301 -14.333 -12 -19s-14 -6.33398 -22 -5.00098s-14.333 5.33301 -19 12s-6.33398 14 -5.00098 22c6 31.333 23.333 90.333 52 177
c-8 -0.666992 -15.167 1.33301 -21.5 6s-10 11 -11 19s0.833008 15.167 5.5 21.5s11 10.166 19 11.499l27 4c13.333 46 30.333 111.667 51 197s34 139.333 40 162l2 6l-6 13c-27.333 57.333 -47 101 -59 131c-2.66699 7.33301 -2.5 14.833 0.5 22.5
s8.16699 12.834 15.5 15.501s14.833 2.5 22.5 -0.5s12.834 -8.16699 15.501 -15.5z" />
    <glyph glyph-name="Ccedilla" unicode="&#xc7;" horiz-adv-x="649" 
d="M629 609c-5.33301 -20.667 -9.66602 -36.335 -12.999 -47.002c-4 -12.667 -7.66699 -22.667 -11 -30c-2.66699 -5.33301 -5 -9.66602 -7 -12.999c-7.33301 -10.667 -16.666 -16 -27.999 -16c-17.333 0 -29.666 9.33301 -36.999 28l-3 9c-27.333 36 -65.333 62 -114 78
c-52 17.333 -95.333 23.666 -130 18.999c-47.333 -6 -90.666 -34.333 -129.999 -85c-37.333 -48.667 -58 -98.667 -62 -150c-3.33301 -36 7.66699 -85 33 -147c30.667 -75.333 65.667 -126.666 105 -153.999c23.333 -16.667 50.666 -28 81.999 -34
c10 7.33301 20.333 8.33301 31 3c4 -2 7 -4.33301 9 -7c32.667 -1.33301 65 3.66699 97 15c38 13.333 69.667 33.333 95 60c26 27.333 41.333 59 46 95c1.33301 8 5.16602 14.333 11.499 19s13.5 6.5 21.5 5.5s14.333 -4.66699 19 -11s6.66699 -13.5 6 -21.5
c-6.66699 -48 -26.5 -89.5 -59.5 -124.5s-73.167 -60.833 -120.5 -77.5c-40.667 -14 -82.334 -20 -125.001 -18l-15 -29l-6 -13h21c52 -2 86 -19 102 -51c20.667 -42 18 -82.333 -8 -121c-24 -36 -63.667 -50.667 -119 -44c-27.333 4 -62.666 14.333 -105.999 31
c-7.33301 2.66699 -12.5 7.66699 -15.5 15s-3.16699 14.833 -0.5 22.5s7.66699 13 15 16s15 3.16699 23 0.5c38 -15.333 68.333 -24.333 91 -27c32 -4 53.333 2 64 18c13.333 20 14.666 41 3.99902 63c-6 12 -23.333 18.333 -52 19h-22h-19
c-8.66699 0.666992 -15.667 1.66699 -21 3c-12.667 3.33301 -21.334 10.333 -26.001 21c-1.33301 2.66699 -2.16602 5.33398 -2.49902 8.00098s-0.5 5 -0.5 7v2c0.666992 1.33301 1 2.33301 1 3c0.666992 1.33301 1 2.33301 1 3s0.333008 1.33398 1 2.00098l2 4l5 11l17 33
l5 12c-31.333 8 -60 21 -86 39c-48.667 34.667 -90.334 94.667 -125.001 180c-28.667 70 -41 127.667 -37 173c5.33301 63.333 30.333 123.666 75 180.999c49.333 63.333 105 99.333 167 108c44 6 96 -1 156 -21c54 -18.667 97.333 -46.667 130 -84c2 6.66699 5 17.667 9 33
c2 8 6.5 14 13.5 18s14.333 5 22 3s13.5 -6.5 17.5 -13.5s5 -14.167 3 -21.5z" />
    <glyph glyph-name="Egrave" unicode="&#xc8;" horiz-adv-x="592" 
d="M127 526l-5.00098 -2c-11.333 -4 -21.333 -6.33301 -30 -7c-21.333 -1.33301 -36 6.33398 -44 23.001c-6.66699 13.333 -5.33398 31 3.99902 53c5.33301 12.667 17 23.334 35 32.001c12.667 6.66699 29 13 49 19c33.333 10 77.666 20.333 132.999 31l137 24
c55.333 9.33301 84.333 14.333 87 15c8 2 15.333 0.833008 22 -3.5s11 -10.333 13 -18s0.833008 -14.834 -3.5 -21.501s-10.166 -11 -17.499 -13c-10.667 -2.66699 -41 -8 -91 -16c-58.667 -10 -104 -18 -136 -24c-48 -9.33301 -86.667 -18 -116 -26
c18 -39.333 34 -98 48 -176c2 -12.667 4 -26.334 6 -41.001c64.667 21.333 119.334 34.333 164.001 39c8 0.666992 15.167 -1.5 21.5 -6.5s9.83301 -11.5 10.5 -19.5s-1.5 -15.167 -6.5 -21.5s-11.5 -9.83301 -19.5 -10.5c-42 -4 -95.667 -17 -161 -39
c4 -27.333 8 -59.333 12 -96c4 -33.333 0.666992 -66 -10 -98c30 4 65 6.66699 105 8c44.667 2 90 2 136 0s79 -4.66699 99 -8c8 -1.33301 14.333 -5.33301 19 -12s6.33398 -14 5.00098 -22s-5.33301 -14.333 -12 -19s-14 -6.33398 -22 -5.00098
c-18 3.33301 -48.833 6 -92.5 8s-87.167 2 -130.5 0c-52 -1.33301 -93.667 -5.66602 -125 -12.999c-6 -0.666992 -11.667 -2 -17 -4c-7.33301 -8 -15.666 -15 -24.999 -21c-7.33301 -5.33301 -14 -8.66602 -20 -9.99902c-7.33301 -2 -14 -2 -20 0
c-10 3.33301 -16.667 9.66602 -20 18.999c-2 6.66699 -1.66699 13.667 1 21c6 14.667 18.333 26.667 37 36c4 1.33301 8 3 12 5c19.333 32.667 26.666 69 21.999 109c-4 36.667 -7.66699 67.667 -11 93c-6 4 -10 9.33301 -12 16c-4 10.667 -2.33301 20 5 28
c-2.66699 18.667 -5.66699 36.667 -9 54c-8.66699 48 -17.667 88 -27 120zM201.999 905c35.333 -52 66.9951 -110.668 94.9951 -176.001c2.66699 -7.33301 2.5 -14.666 -0.5 -21.999s-8.16699 -12.5 -15.5 -15.5s-14.666 -3 -21.999 0s-12.666 8.16699 -15.999 15.5
c-26 61.333 -55.667 116.666 -89 165.999c-4.66699 6.66699 -6.16699 13.834 -4.5 21.501s5.83398 13.834 12.501 18.501s13.834 6.16699 21.501 4.5s13.834 -5.83398 18.501 -12.501z" />
    <glyph glyph-name="Eacute" unicode="&#xc9;" horiz-adv-x="592" 
d="M127 526l-5.00098 -2c-11.333 -4 -21.333 -6.33301 -30 -7c-21.333 -1.33301 -36 6.33398 -44 23.001c-6.66699 13.333 -5.33398 31 3.99902 53c5.33301 12.667 17 23.334 35 32.001c12.667 6.66699 29 13 49 19c33.333 10 77.666 20.333 132.999 31l137 24
c55.333 9.33301 84.333 14.333 87 15c8 2 15.333 0.833008 22 -3.5s11 -10.333 13 -18s0.833008 -14.834 -3.5 -21.501s-10.166 -11 -17.499 -13c-10.667 -2.66699 -41 -8 -91 -16c-58.667 -10 -104 -18 -136 -24c-48 -9.33301 -86.667 -18 -116 -26
c18 -39.333 34 -98 48 -176c2 -12.667 4 -26.334 6 -41.001c64.667 21.333 119.334 34.333 164.001 39c8 0.666992 15.167 -1.5 21.5 -6.5s9.83301 -11.5 10.5 -19.5s-1.5 -15.167 -6.5 -21.5s-11.5 -9.83301 -19.5 -10.5c-42 -4 -95.667 -17 -161 -39
c4 -27.333 8 -59.333 12 -96c4 -33.333 0.666992 -66 -10 -98c30 4 65 6.66699 105 8c44.667 2 90 2 136 0s79 -4.66699 99 -8c8 -1.33301 14.333 -5.33301 19 -12s6.33398 -14 5.00098 -22s-5.33301 -14.333 -12 -19s-14 -6.33398 -22 -5.00098
c-18 3.33301 -48.833 6 -92.5 8s-87.167 2 -130.5 0c-52 -1.33301 -93.667 -5.66602 -125 -12.999c-6 -0.666992 -11.667 -2 -17 -4c-7.33301 -8 -15.666 -15 -24.999 -21c-7.33301 -5.33301 -14 -8.66602 -20 -9.99902c-7.33301 -2 -14 -2 -20 0
c-10 3.33301 -16.667 9.66602 -20 18.999c-2 6.66699 -1.66699 13.667 1 21c6 14.667 18.333 26.667 37 36c4 1.33301 8 3 12 5c19.333 32.667 26.666 69 21.999 109c-4 36.667 -7.66699 67.667 -11 93c-6 4 -10 9.33301 -12 16c-4 10.667 -2.33301 20 5 28
c-2.66699 18.667 -5.66699 36.667 -9 54c-8.66699 48 -17.667 88 -27 120zM374.999 878c-22 -42 -63 -100.663 -123 -175.996c-5.33301 -6 -12 -9.5 -20 -10.5s-15 1 -21 6s-9.5 11.5 -10.5 19.5s0.833008 15 5.5 21c58.667 72.667 97.667 128 117 166
c4 7.33301 9.83301 12.166 17.5 14.499s15 1.66602 22 -2.00098s11.667 -9.33398 14 -17.001s1.83301 -14.834 -1.5 -21.501z" />
    <glyph glyph-name="Ecircumflex" unicode="&#xca;" horiz-adv-x="592" 
d="M127 526l-5.00098 -2c-11.333 -4 -21.333 -6.33301 -30 -7c-21.333 -1.33301 -36 6.33398 -44 23.001c-6.66699 13.333 -5.33398 31 3.99902 53c5.33301 12.667 17 23.334 35 32.001c12.667 6.66699 29 13 49 19c33.333 10 77.666 20.333 132.999 31l137 24
c56 9.33301 85 14.333 87 15c8 2 15.333 0.833008 22 -3.5s11 -10.333 13 -18s0.833008 -14.834 -3.5 -21.501s-10.166 -11 -17.499 -13c-10.667 -2.66699 -41 -8 -91 -16c-58.667 -10 -104 -18 -136 -24c-48 -9.33301 -86.667 -18 -116 -26c18 -39.333 34 -98 48 -176
c2 -12.667 4 -26.334 6 -41.001c64.667 21.333 119.334 34.333 164.001 39c8 0.666992 15.167 -1.5 21.5 -6.5s9.83301 -11.5 10.5 -19.5s-1.5 -15.167 -6.5 -21.5s-11.5 -9.83301 -19.5 -10.5c-42 -4 -95.667 -17 -161 -39c4 -27.333 8 -59.333 12 -96
c4 -33.333 0.666992 -66 -10 -98c30 4 65 6.66699 105 8c44.667 2 90 2 136 0s79 -4.66699 99 -8c8 -1.33301 14.333 -5.33301 19 -12s6.33398 -14 5.00098 -22s-5.33301 -14.333 -12 -19s-14 -6.33398 -22 -5.00098c-18 3.33301 -48.833 6 -92.5 8s-87.167 2 -130.5 0
c-52 -1.33301 -93.667 -5.66602 -125 -12.999c-6 -0.666992 -11.667 -2 -17 -4c-7.33301 -8 -15.666 -15 -24.999 -21c-7.33301 -5.33301 -14 -8.66602 -20 -9.99902c-7.33301 -2 -14 -2 -20 0c-10 3.33301 -16.667 9.66602 -20 18.999c-2 6.66699 -1.66699 13.667 1 21
c6 14.667 18.333 26.667 37 36c4 1.33301 8 3 12 5c19.333 32.667 26.666 69 21.999 109c-4 36.667 -7.66699 67.667 -11 93c-6 4 -10 9.33301 -12 16c-4 10.667 -2.33301 20 5 28c-2.66699 18.667 -5.66699 36.667 -9 54c-8.66699 48 -17.667 88 -27 120zM159.999 734
c0 1.33301 4.33398 16.3291 13.001 44.9961c8.66699 28 16.334 50.667 23.001 68c11.333 28 23 49 35 63c21.333 24.667 44.666 31.667 69.999 21c12 -5.33301 20.333 -15.666 25 -30.999c1.33301 -4.66699 2 -8 2 -10c0 -0.666992 0.333008 -1 1 -1
c9.33301 -18 33.333 -58 72 -120c4 -6.66699 5.16699 -13.834 3.5 -21.501s-6 -13.667 -13 -18s-14.333 -5.66602 -22 -3.99902s-13.834 6.16699 -18.501 13.5c-38.667 62.667 -63.334 103.334 -74.001 122.001c-1.33301 2.66699 -2.33301 6 -3 10
c-7.33301 -9.33301 -15.333 -24.333 -24 -45c-6 -15.333 -13 -36.333 -21 -63c-9.33301 -30.667 -14.333 -47 -15 -49c-2.66699 -7.33301 -7.5 -12.666 -14.5 -15.999s-14.333 -3.66602 -22 -0.999023s-13.167 7.5 -16.5 14.5s-3.66602 14.5 -0.999023 22.5z" />
    <glyph glyph-name="Edieresis" unicode="&#xcb;" horiz-adv-x="592" 
d="M127 526l-5.00098 -2c-11.333 -4 -21.333 -6.33301 -30 -7c-21.333 -1.33301 -36 6.33398 -44 23.001c-6.66699 13.333 -5.33398 31 3.99902 53c5.33301 12.667 17 23.334 35 32.001c12.667 6.66699 29 13 49 19c33.333 10 77.666 20.333 132.999 31l137 24
c55.333 9.33301 84.333 14.333 87 15c8 2 15.333 0.833008 22 -3.5s11 -10.333 13 -18s0.833008 -14.834 -3.5 -21.501s-10.166 -11 -17.499 -13c-10.667 -2.66699 -41 -8 -91 -16c-58.667 -10 -104 -18 -136 -24c-48 -9.33301 -86.667 -18 -116 -26
c18 -39.333 34 -98 48 -176c2 -12.667 4 -26.334 6 -41.001c64.667 21.333 119.334 34.333 164.001 39c8 0.666992 15.167 -1.5 21.5 -6.5s9.83301 -11.5 10.5 -19.5s-1.5 -15.167 -6.5 -21.5s-11.5 -9.83301 -19.5 -10.5c-42 -4 -95.667 -17 -161 -39
c4 -27.333 8 -59.333 12 -96c4 -33.333 0.666992 -66 -10 -98c30 4 65 6.66699 105 8c44.667 2 90 2 136 0s79 -4.66699 99 -8c8 -1.33301 14.333 -5.33301 19 -12s6.33398 -14 5.00098 -22s-5.33301 -14.333 -12 -19s-14 -6.33398 -22 -5.00098
c-18 3.33301 -48.833 6 -92.5 8s-87.167 2 -130.5 0c-52 -1.33301 -93.667 -5.66602 -125 -12.999c-6 -0.666992 -11.667 -2 -17 -4c-7.33301 -8 -15.666 -15 -24.999 -21c-7.33301 -5.33301 -14 -8.66602 -20 -9.99902c-7.33301 -2 -14 -2 -20 0
c-10 3.33301 -16.667 9.66602 -20 18.999c-2 6.66699 -1.66699 13.667 1 21c6 14.667 18.333 26.667 37 36c4 1.33301 8 3 12 5c19.333 32.667 26.666 69 21.999 109c-4 36.667 -7.66699 67.667 -11 93c-6 4 -10 9.33301 -12 16c-4 10.667 -2.33301 20 5 28
c-2.66699 18.667 -5.66699 36.667 -9 54c-8.66699 48 -17.667 88 -27 120zM107.999 732c2 28.667 10.332 49 24.999 61c10 7.33301 20.167 10.5 30.5 9.5s19.5 -4.83301 27.5 -11.5c7.33301 -6.66699 11.833 -15 13.5 -25s-0.166016 -20.333 -5.49902 -31
c-9.33301 -17.333 -28 -28.333 -56 -33c-0.666992 0 -1 -0.333008 -1 -1h-3h-4c-6.66699 0.666992 -12.5 3.16699 -17.5 7.5s-8.16699 9.83301 -9.5 16.5v7zM384.998 774c-4.66699 -28 -15.332 -46.668 -31.999 -56.001c-10.667 -6 -21 -8 -31 -6s-18.5 6.83301 -25.5 14.5
s-10.833 16.5 -11.5 26.5s2.66602 20 9.99902 30c11.333 15.333 31.333 24 60 26h2h2c7.33301 -0.666992 13.5 -3.5 18.5 -8.5s7.83301 -11.167 8.5 -18.5v-2v-2c0 -1.33301 -0.333008 -2.66602 -1 -3.99902z" />
    <glyph glyph-name="Igrave" unicode="&#xcc;" horiz-adv-x="506" 
d="M480 57c-31.333 -2.66699 -85.0029 -10.333 -161.003 -23c-73.333 -12 -128.666 -19.667 -165.999 -23c-8 -0.666992 -15.167 1.66602 -21.5 6.99902s-9.83301 11.833 -10.5 19.5s1.66602 14.667 6.99902 21s11.666 9.83301 18.999 10.5c27.333 2.66699 53 5.66699 77 9
c-5.33301 14 -8.66602 34 -9.99902 60c-1.33301 32.667 -2.66602 50.667 -3.99902 54c-10 57.333 -19.667 140.333 -29 249c-8 96 -14.333 162.667 -19 200c-36 -6 -72.667 -9.33301 -110 -10c-8 0 -15 2.66699 -21 8s-9 12 -9 20s2.66699 15 8 21s12 9 20 9
c36.667 0.666992 72.334 3.66699 107.001 9c4 12 12 19 24 21c10.667 1.33301 19.667 -2.33398 27 -11.001c56 12.667 103 30.334 141 53.001c6.66699 4 14 5 22 3s14 -6.33301 18 -13s5 -14 3 -22s-6.33301 -14 -13 -18c-43.333 -26 -96.333 -46 -159 -60
c4.66699 -38 11 -106.333 19 -205c8.66699 -104.667 18.334 -186 29.001 -244c0.666992 -6 2 -26 4 -60c1.33301 -22 3.66602 -37 6.99902 -45l4 -4l5 -5l21 4c72.667 12 128.334 19.667 167.001 23c7.33301 0.666992 14.166 -1.66602 20.499 -6.99902
s9.83301 -11.833 10.5 -19.5s-1.66602 -14.667 -6.99902 -21s-12 -9.83301 -20 -10.5zM102.997 945.001c36 -53.333 67.6621 -111.669 94.9951 -175.002c2.66699 -7.33301 2.5 -14.666 -0.5 -21.999s-8.16699 -12.5 -15.5 -15.5s-14.666 -3 -21.999 0
s-12.666 8.16699 -15.999 15.5c-25.333 59.333 -55 114.333 -89 165c-4.66699 6.66699 -6.16699 13.834 -4.5 21.501s5.83398 13.834 12.501 18.501s13.834 6.16699 21.501 4.5s13.834 -5.83398 18.501 -12.501z" />
    <glyph glyph-name="Iacute" unicode="&#xcd;" horiz-adv-x="506" 
d="M480 57c-31.333 -2.66699 -85.0029 -10.333 -161.003 -23c-73.333 -12 -128.666 -19.667 -165.999 -23c-8 -0.666992 -15.167 1.66602 -21.5 6.99902s-9.83301 11.833 -10.5 19.5s1.66602 14.667 6.99902 21s11.666 9.83301 18.999 10.5c27.333 2.66699 53 5.66699 77 9
c-5.33301 14 -8.66602 34 -9.99902 60c-1.33301 32.667 -2.66602 50.667 -3.99902 54c-10 57.333 -19.667 140.333 -29 249c-8 96 -14.333 162.667 -19 200c-36 -6 -72.667 -9.33301 -110 -10c-8 0 -15 2.66699 -21 8s-9 12 -9 20s2.66699 15 8 21s12 9 20 9
c36.667 0.666992 72.334 3.66699 107.001 9c4 12 12 19 24 21c10.667 1.33301 19.667 -2.33398 27 -11.001c56 12.667 103 30.334 141 53.001c6.66699 4 14 5 22 3s14 -6.33301 18 -13s5 -14 3 -22s-6.33301 -14 -13 -18c-43.333 -26 -96.333 -46 -159 -60
c4.66699 -38 11 -106.333 19 -205c8.66699 -104.667 18.334 -186 29.001 -244c0.666992 -6 2 -26 4 -60c1.33301 -22 3.66602 -37 6.99902 -45l4 -4l5 -5l21 4c72.667 12 128.334 19.667 167.001 23c7.33301 0.666992 14.166 -1.66602 20.499 -6.99902
s9.83301 -11.833 10.5 -19.5s-1.66602 -14.667 -6.99902 -21s-12 -9.83301 -20 -10.5zM328.997 921.001c-10.667 -20 -24.168 -41.8271 -40.501 -65.4941s-28.5 -40.834 -36.5 -51.501l-46 -58c-5.33301 -6 -12 -9.5 -20 -10.5s-15 1 -21 6s-9.5 11.5 -10.5 19.5
s0.833008 15 5.5 21c22 26.667 37.333 45.667 46 57s20.334 27.666 35.001 48.999s26.667 41 36 59c4 7.33301 9.83301 12.166 17.5 14.499s15 1.66602 22 -2.00098s11.667 -9.33398 14 -17.001s1.83301 -14.834 -1.5 -21.501z" />
    <glyph glyph-name="Icircumflex" unicode="&#xce;" horiz-adv-x="506" 
d="M480 57c-31.333 -2.66699 -85.0029 -10.333 -161.003 -23c-73.333 -12 -128.666 -19.667 -165.999 -23c-8 -0.666992 -15.167 1.66602 -21.5 6.99902s-9.83301 11.833 -10.5 19.5s1.66602 14.667 6.99902 21s11.666 9.83301 18.999 10.5c27.333 2.66699 53 5.66699 77 9
c-5.33301 14 -8.66602 34 -9.99902 60c-1.33301 32.667 -2.66602 50.667 -3.99902 54c-10 57.333 -19.667 140.333 -29 249c-8 96 -14.333 162.667 -19 200c-36 -6 -72.667 -9.33301 -110 -10c-8 0 -15 2.66699 -21 8s-9 12 -9 20s2.66699 15 8 21s12 9 20 9
c36.667 0.666992 72.334 3.66699 107.001 9c4 12 12 19 24 21c10.667 1.33301 19.667 -2.33398 27 -11.001c56 12.667 103 30.334 141 53.001c6.66699 4 14 5 22 3s14 -6.33301 18 -13s5 -14 3 -22s-6.33301 -14 -13 -18c-43.333 -26 -96.333 -46 -159 -60
c4.66699 -38 11 -106.333 19 -205c8.66699 -104.667 18.334 -186 29.001 -244c0.666992 -6 2 -26 4 -60c1.33301 -22 3.66602 -37 6.99902 -45l4 -4l5 -5l21 4c72.667 12 128.334 19.667 167.001 23c7.33301 0.666992 14.166 -1.66602 20.499 -6.99902
s9.83301 -11.833 10.5 -19.5s-1.66602 -14.667 -6.99902 -21s-12 -9.83301 -20 -10.5zM48.9971 762.001c0.666992 1.33301 5.33008 16.3291 13.9971 44.9961c8.66699 29.333 16.334 52 23.001 68c10.667 26.667 22 47 34 61c21.333 24.667 44.666 31.667 69.999 21
c12 -5.33301 20.333 -15.666 25 -30.999c1.33301 -4.66699 2 -8 2 -10c0 -0.666992 0.333008 -1 1 -1c12.667 -24.667 36.334 -63.667 71.001 -117c4.66699 -6.66699 6.16699 -14 4.5 -22s-5.83398 -14.167 -12.501 -18.5s-14 -5.66602 -22 -3.99902s-14 5.83398 -18 12.501
c-36 54.667 -61 95 -75 121c-1.33301 2.66699 -2.33301 5.66699 -3 9c-7.33301 -8.66699 -15 -23 -23 -43c-6.66699 -16 -14 -37 -22 -63c-8.66699 -29.333 -13.667 -45.333 -15 -48c-2.66699 -7.33301 -7.66699 -12.666 -15 -15.999s-14.666 -3.66602 -21.999 -0.999023
s-12.666 7.66699 -15.999 15s-3.66602 14.666 -0.999023 21.999z" />
    <glyph glyph-name="Idieresis" unicode="&#xcf;" horiz-adv-x="506" 
d="M61 745c2 28.667 10.332 49 24.999 61c10 7.33301 20.167 10.5 30.5 9.5s19.5 -4.83301 27.5 -11.5c7.33301 -6.66699 11.833 -15 13.5 -25s-0.166016 -20.333 -5.49902 -31c-9.33301 -17.333 -28 -28.333 -56 -33c-0.666992 0 -1 -0.333008 -1 -1h-3h-4
c-6.66699 0.666992 -12.5 3.16699 -17.5 7.5s-8.16699 9.83301 -9.5 16.5v7zM301.999 803c0 -1.33301 -0.329102 -2.66699 -0.996094 -4c-5.33301 -27.333 -16.333 -45.666 -33 -54.999c-10.667 -5.33301 -20.834 -6.83301 -30.501 -4.5s-17.834 7.16602 -24.501 14.499
s-10.334 16.166 -11.001 26.499s2.33301 20.5 9 30.5c12 14.667 32 22.334 60 23.001h1h1h2c1.33301 0 2.66602 -0.333008 3.99902 -1c6.66699 -0.666992 12.167 -3.66699 16.5 -9s6.5 -11.333 6.5 -18v-1v-2zM480.003 56.999
c-31.333 -2.66699 -85.0029 -10.333 -161.003 -23c-73.333 -12 -128.666 -19.667 -165.999 -23c-8 -0.666992 -15.167 1.66602 -21.5 6.99902s-9.83301 11.833 -10.5 19.5s1.66602 14.667 6.99902 21s11.666 9.83301 18.999 10.5c27.333 2.66699 53 5.66699 77 9
c-5.33301 14 -8.66602 34 -9.99902 60c-1.33301 32.667 -2.66602 50.667 -3.99902 54c-10 57.333 -19.667 140.333 -29 249c-8 96 -14.333 162.667 -19 200c-36 -6 -72.667 -9.33301 -110 -10c-8 0 -15 2.66699 -21 8s-9 12 -9 20s2.66699 15 8 21s12 9 20 9
c36.667 0.666992 72.334 3.66699 107.001 9c4 12 12 19 24 21c10.667 1.33301 19.667 -2.33398 27 -11.001c56 12.667 103 30.334 141 53.001c6.66699 4 14 5 22 3s14 -6.33301 18 -13s5 -14 3 -22s-6.33301 -14 -13 -18c-43.333 -26 -96.333 -46 -159 -60
c4.66699 -38 11 -106.333 19 -205c8.66699 -104.667 18.334 -186 29.001 -244c0.666992 -6 2 -26 4 -60c1.33301 -22 3.66602 -37 6.99902 -45l4 -4l5 -5l21 4c72.667 12 128.334 19.667 167.001 23c7.33301 0.666992 14.166 -1.66602 20.499 -6.99902
s9.83301 -11.833 10.5 -19.5s-1.66602 -14.667 -6.99902 -21s-12 -9.83301 -20 -10.5z" />
    <glyph glyph-name="Eth" unicode="&#xd0;" horiz-adv-x="696" 
d="M107 349c-18.667 84 -41.9961 183.332 -69.9961 297.999c-1.33301 6 -1 12 1 18c-0.666992 7.33301 1 14 5 20s9.66699 10 17 12c98.667 26 187.334 39.333 266.001 40c100 1.33301 181.667 -21.334 245 -68.001s103 -107.334 119 -182.001
c15.333 -71.333 7 -144 -25 -218s-85 -136 -159 -186c-0.666992 -0.666992 -9 -6.5 -25 -17.5s-25.667 -17.5 -29 -19.5l-28 -17c-14.667 -9.33301 -25.167 -15.166 -31.5 -17.499s-16.5 -6.66602 -30.5 -12.999s-25.833 -10.5 -35.5 -12.5s-21 -3.83301 -34 -5.5
s-25.5 -2.16699 -37.5 -1.5h-7c-5.33301 -0.666992 -9 -1 -11 -1c-13.333 0 -24.666 2.66699 -33.999 8c-6.66699 4 -12.334 11.333 -17.001 22c-2.66699 5.33301 -5.33398 12.333 -8.00098 21l-14 53c-6 25.333 -12.333 55 -19 89l-26 120
c-26 -11.333 -49.667 -22.666 -71 -33.999c-6.66699 -3.33301 -13.834 -3.83301 -21.501 -1.5s-13.334 7 -17.001 14s-4.33398 14.333 -2.00098 22s7.16602 13.5 14.499 17.5c24 12.667 52.333 26 85 40zM327.004 380.999c-22 -10.667 -69.332 -30.998 -141.999 -60.998
l-11 -5l27 -132l19 -87c5.33301 -21.333 10 -38 14 -50c0.666992 -4 1.66699 -7.33301 3 -10l7 1h13c8 -0.666992 16 -0.5 24 0.5s15.167 1.83301 21.5 2.5s14 2.83398 23 6.50098s15.833 6.16699 20.5 7.5s12 4.66602 22 9.99902l20 10c3.33301 2 10.5 6.66699 21.5 14
s17.667 11.666 20 12.999s9.83301 6.33301 22.5 15l22 15c64 43.333 109.833 96.666 137.5 159.999s34.834 124.666 21.501 183.999c-12.667 60 -45 109.333 -97 148c-52.667 38.667 -122.667 57.334 -210 56.001c-67.333 -0.666992 -143.666 -11.334 -228.999 -32.001
l64 -275l2 1c71.333 30 118 50 140 60c7.33301 3.33301 14.666 3.66602 21.999 0.999023s12.666 -7.66699 15.999 -15s3.66602 -14.666 0.999023 -21.999s-7.66699 -12.666 -15 -15.999z" />
    <glyph glyph-name="Ntilde" unicode="&#xd1;" horiz-adv-x="778" 
d="M67 108c23.333 36.667 39.3281 90.334 47.9951 161.001c2.66699 22 5.66699 53 9 93c3.33301 42 6.33301 72.667 9 92c12 85.333 18.333 129.333 19 132c3.33301 22.667 6.66602 40 9.99902 52c2.66699 8 5.33398 14.5 8.00098 19.5s6 8.83301 10 11.5
c8.66699 6.66699 18 8.66699 28 6c12 -3.33301 23 -12.666 33 -27.999c6.66699 -9.33301 13.334 -21.333 20.001 -36c4.66699 -9.33301 9.83398 -21 15.501 -35s8.83398 -22 9.50098 -24c15.333 -33.333 34.333 -69.5 57 -108.5s41.667 -70.5 57 -94.5l69 -104
c12 -18 30.667 -43.667 56 -77l16 -21c1.33301 7.33301 2.33301 15.333 3 24c3.33301 35.333 5.33301 83.333 6 144c0.666992 39.333 -0.333008 121.666 -3 246.999c-0.666992 32.667 -0.666992 56.667 0 72c0.666992 18 2.33398 32.667 5.00098 44
c4.66699 20 13.334 33.667 26.001 41c7.33301 3.33301 16 4.66602 26 3.99902c6 -0.666992 13.333 -1.66699 22 -3c12 -2.66699 28.333 -7 49 -13c52.667 -15.333 79.334 -23 80.001 -23c8 -1.33301 14.333 -5.33301 19 -12s6.33398 -14 5.00098 -22
s-5.33301 -14.333 -12 -19s-14 -6.33398 -22 -5.00098c-3.33301 0.666992 -32 9 -86 25c-19.333 6 -34.333 10 -45 12c-2 0.666992 -4 1 -6 1c-1.33301 -7.33301 -2.33301 -18.333 -3 -33c-0.666992 -12.667 -0.666992 -35 0 -67c2.66699 -122.667 3.66699 -206 3 -250
c-0.666992 -62 -2.66699 -111.667 -6 -149c-2.66699 -22.667 -5.66699 -41 -9 -55c-4.66699 -20.667 -12 -35 -22 -43c-8 -6 -17 -7.66699 -27 -5c-3.33301 1.33301 -6.33301 3 -9 5c-2.66699 1.33301 -5.33398 3.33301 -8.00098 6c-3.33301 3.33301 -8 8.33301 -14 15
c-8.66699 10.667 -20 25.667 -34 45c-26.667 35.333 -46 62 -58 80l-69 105c-16 24 -35.667 56.333 -59 97s-43 78.334 -59 113.001c-1.33301 2 -4.66602 9.5 -9.99902 22.5s-10 23.833 -14 32.5l-1 -6c-0.666992 -2.66699 -6.66699 -46.334 -18 -131.001
c-2.66699 -20.667 -5.66699 -51 -9 -91c-3.33301 -40.667 -6.33301 -71.667 -9 -93c-10 -78.667 -28.667 -140 -56 -184c-4.66699 -6.66699 -10.834 -11 -18.501 -13s-14.834 -0.833008 -21.501 3.5s-11 10.333 -13 18s-1 14.834 3 21.501zM152.995 762
c13.333 48 34.999 78.333 64.999 91c24 10 53.333 8 88 -6c10 -4 23.333 -10 40 -18c18 -9.33301 30.333 -15.333 37 -18c25.333 -11.333 45 -16 59 -14c4 0.666992 8.33301 1.83398 13 3.50098s8.5 3.33398 11.5 5.00098s7.16699 4.5 12.5 8.5s9 7 11 9l14 12
c6.66699 6 11.334 10 14.001 12c6 5.33301 13 7.66602 21 6.99902s14.667 -4 20 -10s7.66602 -13 6.99902 -21s-4 -14.667 -10 -20l-14 -13c-9.33301 -8 -16 -13.5 -20 -16.5s-10.5 -7.5 -19.5 -13.5s-17.667 -10.667 -26 -14s-17.166 -5.66602 -26.499 -6.99902
c-24.667 -3.33301 -55 3 -91 19c-7.33301 3.33301 -20.333 9.66602 -39 18.999c-15.333 7.33301 -27 12.666 -35 15.999c-20.667 8.66699 -35.667 11 -45 7c-12 -5.33301 -22.333 -23.333 -31 -54c-2 -7.33301 -6.5 -13 -13.5 -17s-14.333 -5 -22 -3s-13.5 6.5 -17.5 13.5
s-5 14.5 -3 22.5z" />
    <glyph glyph-name="Ograve" unicode="&#xd2;" horiz-adv-x="680" 
d="M436 662c-2 -2 -3.66602 -3.33105 -4.99902 -3.99805c-0.666992 -0.666992 -1.66699 -1.5 -3 -2.5s-3.83301 -2.16699 -7.5 -3.5s-7.5 -2 -11.5 -2c-14 0.666992 -22.667 7.66699 -26 21c-0.666992 2 -1 4 -1 6c-58.667 -4.66699 -109.667 -30.834 -153 -78.501
s-71.333 -104.834 -84 -171.501c-14 -78.667 -3 -147.334 33 -206.001c41.333 -65.333 109.333 -105.666 204 -120.999c45.333 -7.33301 90 5.66699 134 39c43.333 33.333 74 74.333 92 123c19.333 53.333 20.333 126 3 218c-13.333 70.667 -47 122.667 -101 156
c-32.667 20 -57.334 28.667 -74.001 26zM572.001 662.002c50.667 -42.667 83.0029 -100.001 97.0029 -172.001c18.667 -102 16.334 -184.667 -6.99902 -248c-10 -27.333 -24.5 -53.666 -43.5 -78.999s-40.833 -48 -65.5 -68s-52.834 -35 -84.501 -45
s-63.167 -12.667 -94.5 -8c-112.667 17.333 -194.334 67 -245.001 149c-44 71.333 -57.667 153.666 -41 246.999c8 41.333 22.167 81 42.5 119s45.333 71.5 75 100.5s65.167 50.5 106.5 64.5s84.333 17.667 129 11c6 -1.33301 11.333 -4 16 -8c11.333 0 25 -0.333008 41 -1
c43.333 -2 71.666 -3.33301 84.999 -4c8 -0.666992 14.667 -4 20 -10s7.66602 -13 6.99902 -21s-4 -14.667 -10 -20s-13 -7.66602 -21 -6.99902h-7zM360.004 760.001l-45.001 62.001c-18 25.333 -32.667 47.333 -44 66c-4 7.33301 -5 14.833 -3 22.5s6.5 13.5 13.5 17.5
s14.333 5 22 3s13.5 -6.33301 17.5 -13c10 -17.333 23.667 -38 41 -62l46 -62c4.66699 -6.66699 6.33398 -14 5.00098 -22s-5.33301 -14.333 -12 -19s-14 -6.33398 -22 -5.00098s-14.333 5.33301 -19 12z" />
    </font>
</defs>
</svg>
