<svg xmlns="http://www.w3.org/2000/svg" width="128" height="92" viewBox="0 -23 128 92"><path fill="#CCCCCC" d="M22-23c-1.1 0-2.6 0.7-3.3 1.5L1.3-1.5c-0.7 0.8-0.7 2.2 0 3l17.4 20c0.7 0.8 2.2 1.5 3.3 1.5h104c1.1 0 2-0.9 2-2V2c0-1.1 0-2.9 0-4v-19c0-1.1-0.9-2-2-2H22zM22 5c-2.8 0-5-2.2-5-5s2.2-5 5-5 5 2.2 5 5S24.8 5 22 5z"/><path fill="#F4F4F4" d="M22.6-22c-1.1 0-2.5 0.7-3.2 1.5L2.8-1.5c-0.7 0.8-0.7 2.1 0 2.9l16.6 19.1c0.7 0.8 2.1 1.5 3.2 1.5H125c1.1 0 1.9-0.9 1.9-1.9V1.9c0-1.1 0-2.8 0-3.9v-18.1c0-1.1-0.9-1.9-1.9-1.9C125-22 22.6-22 22.6-22zM22 6c-3.3 0-6-2.7-6-6s2.7-6 6-6 6 2.7 6 6S25.3 6 22 6z"/><path fill="#CCCCCC" d="M2 23c-1.1 0-2 0.9-2 2v42c0 1.1 0.9 2 2 2h124c1.1 0 2-0.9 2-2V48c0-1.1 0-2.9 0-4V25c0-1.1-0.9-2-2-2H2zM22 51c-2.8 0-5-2.2-5-5s2.2-5 5-5 5 2.2 5 5S24.8 51 22 51z"/><path fill="#F4F4F4" d="M2.9 24c-1 0-1.9 0.9-1.9 1.9V66c0 1.1 0.9 2 1.9 2H125c1.1 0 1.9-0.9 1.9-1.9V47.9c0-1.1 0-2.8 0-3.9V25.9c0-1.1-0.9-1.9-1.9-1.9C125 24 2.9 24 2.9 24zM22 52c-3.3 0-6-2.7-6-6s2.7-6 6-6 6 2.7 6 6S25.3 52 22 52z"/></svg>